%TF.GenerationSoftware,KiCad,Pcbnew,9.0.3*%
%TF.CreationDate,2025-07-30T15:06:46-04:00*%
%TF.ProjectId,blackboxvDualv4,626c6163-6b62-46f7-9876-4475616c7634,rev?*%
%TF.SameCoordinates,Original*%
%TF.FileFunction,Soldermask,Top*%
%TF.FilePolarity,Negative*%
%FSLAX46Y46*%
G04 Gerber Fmt 4.6, Leading zero omitted, Abs format (unit mm)*
G04 Created by KiCad (PCBNEW 9.0.3) date 2025-07-30 15:06:46*
%MOMM*%
%LPD*%
G01*
G04 APERTURE LIST*
G04 Aperture macros list*
%AMRoundRect*
0 Rectangle with rounded corners*
0 $1 Rounding radius*
0 $2 $3 $4 $5 $6 $7 $8 $9 X,Y pos of 4 corners*
0 Add a 4 corners polygon primitive as box body*
4,1,4,$2,$3,$4,$5,$6,$7,$8,$9,$2,$3,0*
0 Add four circle primitives for the rounded corners*
1,1,$1+$1,$2,$3*
1,1,$1+$1,$4,$5*
1,1,$1+$1,$6,$7*
1,1,$1+$1,$8,$9*
0 Add four rect primitives between the rounded corners*
20,1,$1+$1,$2,$3,$4,$5,0*
20,1,$1+$1,$4,$5,$6,$7,0*
20,1,$1+$1,$6,$7,$8,$9,0*
20,1,$1+$1,$8,$9,$2,$3,0*%
%AMFreePoly0*
4,1,25,0.333266,0.742596,0.345389,0.732242,0.732242,0.345389,0.760749,0.289441,0.762000,0.273547,0.762000,-0.273547,0.742596,-0.333266,0.732242,-0.345389,0.345389,-0.732242,0.289441,-0.760749,0.273547,-0.762000,-0.273547,-0.762000,-0.333266,-0.742596,-0.345389,-0.732242,-0.732242,-0.345389,-0.760749,-0.289441,-0.762000,-0.273547,-0.762000,0.273547,-0.742596,0.333266,-0.732242,0.345389,
-0.345389,0.732242,-0.289441,0.760749,-0.273547,0.762000,0.273547,0.762000,0.333266,0.742596,0.333266,0.742596,$1*%
G04 Aperture macros list end*
%ADD10RoundRect,0.101600X0.762000X-0.762000X0.762000X0.762000X-0.762000X0.762000X-0.762000X-0.762000X0*%
%ADD11O,1.524000X2.844800*%
%ADD12RoundRect,0.101600X-0.800000X0.650000X-0.800000X-0.650000X0.800000X-0.650000X0.800000X0.650000X0*%
%ADD13FreePoly0,180.000000*%
%ADD14RoundRect,0.101600X0.762000X0.762000X-0.762000X0.762000X-0.762000X-0.762000X0.762000X-0.762000X0*%
%ADD15C,5.080000*%
%ADD16RoundRect,0.101600X0.800000X-0.650000X0.800000X0.650000X-0.800000X0.650000X-0.800000X-0.650000X0*%
%ADD17RoundRect,0.101600X-0.762000X-0.762000X0.762000X-0.762000X0.762000X0.762000X-0.762000X0.762000X0*%
%ADD18RoundRect,0.101600X0.901500X-0.800000X0.901500X0.800000X-0.901500X0.800000X-0.901500X-0.800000X0*%
%ADD19C,4.318000*%
%ADD20RoundRect,0.101600X-0.762000X0.762000X-0.762000X-0.762000X0.762000X-0.762000X0.762000X0.762000X0*%
%ADD21FreePoly0,0.000000*%
%ADD22RoundRect,0.101600X-0.901500X0.800000X-0.901500X-0.800000X0.901500X-0.800000X0.901500X0.800000X0*%
G04 APERTURE END LIST*
D10*
%TO.C,JP9*%
X162445600Y-101188600D03*
X164985600Y-101188600D03*
%TD*%
D11*
%TO.C,SW1*%
X129425600Y-103093600D03*
X126885600Y-103093600D03*
X124345600Y-103093600D03*
X121805600Y-103093600D03*
X119265600Y-103093600D03*
X119265600Y-108173600D03*
X121805600Y-108173600D03*
X124345600Y-108173600D03*
X126885600Y-108173600D03*
X129425600Y-108173600D03*
%TD*%
%TO.C,SW3*%
X168160600Y-106268600D03*
X170700600Y-106268600D03*
X173240600Y-106268600D03*
X175780600Y-106268600D03*
X178320600Y-106268600D03*
X178320600Y-101188600D03*
X175780600Y-101188600D03*
X173240600Y-101188600D03*
X170700600Y-101188600D03*
X168160600Y-101188600D03*
%TD*%
D12*
%TO.C,C2*%
X114185600Y-116063600D03*
X114185600Y-118063600D03*
%TD*%
D10*
%TO.C,JP11*%
X132600600Y-115793600D03*
X135140600Y-115793600D03*
%TD*%
D13*
%TO.C,R4*%
X198031000Y-122143600D03*
X203060200Y-122143600D03*
X200545600Y-119603600D03*
%TD*%
D10*
%TO.C,L4*%
X159905600Y-106228600D03*
X159905600Y-101228600D03*
%TD*%
D11*
%TO.C,SW2*%
X119265600Y-120873600D03*
X121805600Y-120873600D03*
X124345600Y-120873600D03*
X126885600Y-120873600D03*
X129425600Y-120873600D03*
X129425600Y-115793600D03*
X126885600Y-115793600D03*
X124345600Y-115793600D03*
X121805600Y-115793600D03*
X119265600Y-115793600D03*
%TD*%
D14*
%TO.C,JP2*%
X86880600Y-101188600D03*
X86880600Y-98648600D03*
%TD*%
D15*
%TO.C,UNK_HOLE_1*%
X126885600Y-137383600D03*
%TD*%
D12*
%TO.C,C1*%
X114820600Y-103363600D03*
X114820600Y-105363600D03*
%TD*%
D10*
%TO.C,JP8*%
X132600600Y-108173600D03*
X135140600Y-108173600D03*
%TD*%
D14*
%TO.C,JP6*%
X200545600Y-111348600D03*
X200545600Y-108808600D03*
%TD*%
D10*
%TO.C,JP1*%
X200545600Y-101188600D03*
X203085600Y-101188600D03*
%TD*%
D16*
%TO.C,C4*%
X183400600Y-93298600D03*
X183400600Y-91298600D03*
%TD*%
D15*
%TO.C,UNK_HOLE_7*%
X170065600Y-72613600D03*
%TD*%
D16*
%TO.C,C3*%
X182765600Y-105998600D03*
X182765600Y-103998600D03*
%TD*%
D17*
%TO.C,JP4*%
X96405600Y-98648600D03*
X96405600Y-101188600D03*
%TD*%
D18*
%TO.C,R1*%
X84340600Y-90799600D03*
X84340600Y-87955600D03*
%TD*%
D19*
%TO.C,UNK_HOLE_2*%
X72910600Y-70708600D03*
%TD*%
D20*
%TO.C,L2*%
X137680600Y-103133600D03*
X137680600Y-108133600D03*
%TD*%
D15*
%TO.C,UNK_HOLE_0*%
X126885600Y-73883600D03*
%TD*%
D21*
%TO.C,R3*%
X98920200Y-87853600D03*
X93891000Y-87853600D03*
X96405600Y-90393600D03*
%TD*%
D10*
%TO.C,JP10*%
X162445600Y-106268600D03*
X164985600Y-106268600D03*
%TD*%
D15*
%TO.C,UNK_HOLE_6*%
X170065600Y-136113600D03*
%TD*%
D10*
%TO.C,JP13*%
X162445600Y-93568600D03*
X164985600Y-93568600D03*
%TD*%
D20*
%TO.C,JP3*%
X96405600Y-108808600D03*
X93865600Y-108808600D03*
%TD*%
D19*
%TO.C,UNK_HOLE_5*%
X72910600Y-138653600D03*
%TD*%
D10*
%TO.C,JP12*%
X132600600Y-120873600D03*
X135140600Y-120873600D03*
%TD*%
D20*
%TO.C,L1*%
X137680600Y-115833600D03*
X137680600Y-120833600D03*
%TD*%
D17*
%TO.C,JP5*%
X210070600Y-108808600D03*
X210070600Y-111348600D03*
%TD*%
D10*
%TO.C,L3*%
X159905600Y-93528600D03*
X159905600Y-88528600D03*
%TD*%
%TO.C,JP7*%
X132600600Y-103093600D03*
X135140600Y-103093600D03*
%TD*%
D19*
%TO.C,UNK_HOLE_4*%
X223405600Y-138653600D03*
%TD*%
D10*
%TO.C,JP14*%
X162445600Y-88488600D03*
X164985600Y-88488600D03*
%TD*%
D22*
%TO.C,R2*%
X212610600Y-118816600D03*
X212610600Y-121660600D03*
%TD*%
D11*
%TO.C,SW4*%
X178320600Y-88488600D03*
X175780600Y-88488600D03*
X173240600Y-88488600D03*
X170700600Y-88488600D03*
X168160600Y-88488600D03*
X168160600Y-93568600D03*
X170700600Y-93568600D03*
X173240600Y-93568600D03*
X175780600Y-93568600D03*
X178320600Y-93568600D03*
%TD*%
D19*
%TO.C,UNK_HOLE_3*%
X223405600Y-70708600D03*
%TD*%
G36*
X227793639Y-110733285D02*
G01*
X227839394Y-110786089D01*
X227850600Y-110837600D01*
X227850600Y-117574600D01*
X227830915Y-117641639D01*
X227778111Y-117687394D01*
X227726600Y-117698600D01*
X219338600Y-117698600D01*
X219271561Y-117678915D01*
X219225806Y-117626111D01*
X219214600Y-117574600D01*
X219214600Y-110837600D01*
X219234285Y-110770561D01*
X219287089Y-110724806D01*
X219338600Y-110713600D01*
X227726600Y-110713600D01*
X227793639Y-110733285D01*
G37*
G36*
X77679639Y-92318285D02*
G01*
X77725394Y-92371089D01*
X77736600Y-92422600D01*
X77736600Y-99159600D01*
X77716915Y-99226639D01*
X77664111Y-99272394D01*
X77612600Y-99283600D01*
X69224600Y-99283600D01*
X69157561Y-99263915D01*
X69111806Y-99211111D01*
X69100600Y-99159600D01*
X69100600Y-92422600D01*
X69120285Y-92355561D01*
X69173089Y-92309806D01*
X69224600Y-92298600D01*
X77612600Y-92298600D01*
X77679639Y-92318285D01*
G37*
G36*
X227793639Y-80888285D02*
G01*
X227839394Y-80941089D01*
X227850600Y-80992600D01*
X227850600Y-87729600D01*
X227830915Y-87796639D01*
X227778111Y-87842394D01*
X227726600Y-87853600D01*
X219338600Y-87853600D01*
X219271561Y-87833915D01*
X219225806Y-87781111D01*
X219214600Y-87729600D01*
X219214600Y-80992600D01*
X219234285Y-80925561D01*
X219287089Y-80879806D01*
X219338600Y-80868600D01*
X227726600Y-80868600D01*
X227793639Y-80888285D01*
G37*
G36*
X206838639Y-66928285D02*
G01*
X206884394Y-66981089D01*
X206895600Y-67032600D01*
X206895600Y-73759600D01*
X206875915Y-73826639D01*
X206823111Y-73872394D01*
X206771600Y-73883600D01*
X197494600Y-73883600D01*
X197427561Y-73863915D01*
X197381806Y-73811111D01*
X197370600Y-73759600D01*
X197370600Y-67032600D01*
X197390285Y-66965561D01*
X197443089Y-66919806D01*
X197494600Y-66908600D01*
X206771600Y-66908600D01*
X206838639Y-66928285D01*
G37*
G36*
X77679639Y-122163285D02*
G01*
X77725394Y-122216089D01*
X77736600Y-122267600D01*
X77736600Y-129004600D01*
X77716915Y-129071639D01*
X77664111Y-129117394D01*
X77612600Y-129128600D01*
X69224600Y-129128600D01*
X69157561Y-129108915D01*
X69111806Y-129056111D01*
X69100600Y-129004600D01*
X69100600Y-122267600D01*
X69120285Y-122200561D01*
X69173089Y-122154806D01*
X69224600Y-122143600D01*
X77612600Y-122143600D01*
X77679639Y-122163285D01*
G37*
G36*
X99523639Y-136133285D02*
G01*
X99569394Y-136186089D01*
X99580600Y-136237600D01*
X99580600Y-142974600D01*
X99560915Y-143041639D01*
X99508111Y-143087394D01*
X99456600Y-143098600D01*
X90179600Y-143098600D01*
X90112561Y-143078915D01*
X90066806Y-143026111D01*
X90055600Y-142974600D01*
X90055600Y-136237600D01*
X90075285Y-136170561D01*
X90128089Y-136124806D01*
X90179600Y-136113600D01*
X99456600Y-136113600D01*
X99523639Y-136133285D01*
G37*
M02*
