M48
; DRILL file {KiCad 9.0.3} date 2025-07-30T15:06:51-0400
; FORMAT={-:-/ absolute / inch / decimal}
; #@! TF.CreationDate,2025-07-30T15:06:51-04:00
; #@! TF.GenerationSoftware,Kicad,Pcbnew,9.0.3
; #@! TF.FileFunction,Plated,1,2,PTH
FMAT,2
INCH
; #@! TA.AperFunction,Plated,PTH,ViaDrill
T1C0.0300
; #@! TA.AperFunction,Plated,PTH,ViaDrill
T2C0.0320
; #@! TA.AperFunction,Plated,PTH,ComponentDrill
T3C0.0320
; #@! TA.AperFunction,Plated,PTH,ComponentDrill
T4C0.0354
; #@! TA.AperFunction,Plated,PTH,ComponentDrill
T5C0.0380
; #@! TA.AperFunction,Plated,PTH,ViaDrill
T6C0.0630
%
G90
G05
T1
X3.7105Y-4.1288
X3.8805Y-4.1288
X4.0355Y-4.2988
X4.0355Y-4.4688
X4.1355Y-4.2988
X4.1355Y-4.4688
X4.4505Y-4.2238
X4.5505Y-3.9738
X4.5755Y-4.3438
X4.5755Y-4.4738
X5.5405Y-4.3588
X5.5405Y-4.4638
X6.1755Y-3.7788
X6.1755Y-3.8838
X7.1405Y-3.7688
X7.1405Y-3.8988
X7.1655Y-4.2688
X7.2655Y-4.0188
X7.5555Y-3.7988
X7.5555Y-3.9688
X7.6555Y-3.7988
X7.6555Y-3.9688
X7.8105Y-4.1388
X7.9805Y-4.1388
T2
X3.6955Y-3.5588
X3.7955Y-3.2588
X3.7955Y-3.4588
X3.7955Y-3.6588
X7.8955Y-4.6088
X7.8955Y-4.8088
X7.8955Y-5.0088
X7.9955Y-4.7088
T3
X3.6965Y-3.4588
X3.7955Y-3.5588
X3.8945Y-3.4588
X4.6955Y-4.0588
X4.6955Y-4.2588
X4.6955Y-4.5588
X4.6955Y-4.7588
X4.7955Y-4.0588
X4.7955Y-4.2588
X4.7955Y-4.5588
X4.7955Y-4.7588
X4.8955Y-4.0588
X4.8955Y-4.2588
X4.8955Y-4.5588
X4.8955Y-4.7588
X4.9955Y-4.0588
X4.9955Y-4.2588
X4.9955Y-4.5588
X4.9955Y-4.7588
X5.0955Y-4.0588
X5.0955Y-4.2588
X5.0955Y-4.5588
X5.0955Y-4.7588
X6.6205Y-3.4838
X6.6205Y-3.6838
X6.6205Y-3.9838
X6.6205Y-4.1838
X6.7205Y-3.4838
X6.7205Y-3.6838
X6.7205Y-3.9838
X6.7205Y-4.1838
X6.8205Y-3.4838
X6.8205Y-3.6838
X6.8205Y-3.9838
X6.8205Y-4.1838
X6.9205Y-3.4838
X6.9205Y-3.6838
X6.9205Y-3.9838
X6.9205Y-4.1838
X7.0205Y-3.4838
X7.0205Y-3.6838
X7.0205Y-3.9838
X7.0205Y-4.1838
X7.7965Y-4.8088
X7.8955Y-4.7088
X7.9945Y-4.8088
T4
X5.4205Y-4.0604
X5.4205Y-4.2572
X5.4205Y-4.5604
X5.4205Y-4.7572
X6.2955Y-3.4854
X6.2955Y-3.6822
X6.2955Y-3.9854
X6.2955Y-4.1822
T5
X3.4205Y-3.8838
X3.4205Y-3.9838
X3.6955Y-4.2838
X3.7955Y-3.8838
X3.7955Y-3.9838
X3.7955Y-4.2838
X5.2205Y-4.0588
X5.2205Y-4.2588
X5.2205Y-4.5588
X5.2205Y-4.7588
X5.3205Y-4.0588
X5.3205Y-4.2588
X5.3205Y-4.5588
X5.3205Y-4.7588
X6.3955Y-3.4838
X6.3955Y-3.6838
X6.3955Y-3.9838
X6.3955Y-4.1838
X6.4955Y-3.4838
X6.4955Y-3.6838
X6.4955Y-3.9838
X6.4955Y-4.1838
X7.8955Y-3.9838
X7.8955Y-4.2838
X7.8955Y-4.3838
X7.9955Y-3.9838
X8.2705Y-4.2838
X8.2705Y-4.3838
T6
X2.9455Y-3.2088
X2.9455Y-3.3838
X2.9455Y-3.6838
X2.9455Y-3.8588
X2.9455Y-4.1338
X2.9455Y-4.3838
X2.9455Y-4.5588
X2.9455Y-4.8588
X2.9455Y-5.0338
X3.6205Y-5.4838
X3.8455Y-5.4838
X7.8455Y-2.7838
X8.0705Y-2.7838
X8.7455Y-3.2338
X8.7455Y-3.4088
X8.7455Y-3.7088
X8.7455Y-3.8838
X8.7455Y-4.1338
X8.7455Y-4.4088
X8.7455Y-4.5838
X8.7455Y-4.8838
X8.7455Y-5.0588
M30
