%TF.GenerationSoftware,KiCad,Pcbnew,9.0.3*%
%TF.CreationDate,2025-07-30T15:06:46-04:00*%
%TF.ProjectId,blackboxvDualv4,626c6163-6b62-46f7-9876-4475616c7634,rev?*%
%TF.SameCoordinates,Original*%
%TF.FileFunction,Legend,Top*%
%TF.FilePolarity,Positive*%
%FSLAX46Y46*%
G04 Gerber Fmt 4.6, Leading zero omitted, Abs format (unit mm)*
G04 Created by KiCad (PCBNEW 9.0.3) date 2025-07-30 15:06:46*
%MOMM*%
%LPD*%
G01*
G04 APERTURE LIST*
%ADD10C,0.304800*%
%ADD11C,0.508000*%
%ADD12C,0.254000*%
%ADD13C,0.406400*%
%ADD14C,0.142240*%
%ADD15C,0.243840*%
%ADD16C,0.203200*%
%ADD17C,0.121920*%
%ADD18C,0.152400*%
%ADD19C,0.114300*%
%ADD20C,0.118872*%
%ADD21C,0.000000*%
%ADD22C,0.101600*%
G04 APERTURE END LIST*
D10*
X100215600Y-103728600D02*
X100215600Y-96108600D01*
D11*
X207784600Y-110078600D02*
X207149600Y-110713600D01*
D10*
X196735600Y-106268600D02*
X196735600Y-113888600D01*
D12*
X81800600Y-79598600D02*
X81800600Y-100553600D01*
D10*
X83070600Y-96108600D02*
X83070600Y-103728600D01*
D11*
X94246600Y-99918600D02*
X94881600Y-99918600D01*
D12*
X226580600Y-79598600D02*
X226580600Y-100553600D01*
D13*
X189750600Y-129763600D02*
X170065600Y-138653600D01*
X146570600Y-80233600D02*
X146570600Y-131033600D01*
D11*
X207149600Y-110713600D02*
X205879600Y-109443600D01*
D12*
X70370600Y-109443600D02*
X81800600Y-109443600D01*
X70370600Y-100553600D02*
X70370600Y-79598600D01*
X215150600Y-79598600D02*
X226580600Y-79598600D01*
D13*
X189750600Y-129763600D02*
X150380600Y-129763600D01*
D11*
X205879600Y-109443600D02*
X204609600Y-110713600D01*
D10*
X204990600Y-97632600D02*
X198640600Y-97632600D01*
D12*
X81800600Y-109443600D02*
X81800600Y-130398600D01*
D13*
X189750600Y-78963600D02*
X189750600Y-129763600D01*
D10*
X213880600Y-106268600D02*
X196735600Y-106268600D01*
X198640600Y-97632600D02*
X198640600Y-103982600D01*
D11*
X204609600Y-110713600D02*
X203339600Y-109443600D01*
X203339600Y-109443600D02*
X202704600Y-110078600D01*
X91071600Y-100553600D02*
X92341600Y-99283600D01*
D12*
X81800600Y-130398600D02*
X70370600Y-130398600D01*
D13*
X150380600Y-78963600D02*
X189750600Y-78963600D01*
D11*
X208419600Y-110078600D02*
X207784600Y-110078600D01*
D13*
X170065600Y-70073600D02*
X150380600Y-78963600D01*
D10*
X98310600Y-112364600D02*
X98310600Y-106014600D01*
D13*
X150380600Y-129763600D02*
X150380600Y-78963600D01*
D10*
X198640600Y-103982600D02*
X204990600Y-103982600D01*
D13*
X107200600Y-131033600D02*
X107200600Y-80233600D01*
X146570600Y-131033600D02*
X107200600Y-131033600D01*
X107200600Y-80233600D02*
X146570600Y-80233600D01*
D12*
X70370600Y-79598600D02*
X81800600Y-79598600D01*
D10*
X204990600Y-103982600D02*
X204990600Y-97632600D01*
X100215600Y-96108600D02*
X83070600Y-96108600D01*
D11*
X88531600Y-99918600D02*
X89166600Y-99918600D01*
D10*
X98310600Y-106014600D02*
X91960600Y-106014600D01*
D11*
X89166600Y-99918600D02*
X89801600Y-99283600D01*
D12*
X215150600Y-130398600D02*
X215150600Y-109443600D01*
X81800600Y-100553600D02*
X70370600Y-100553600D01*
D13*
X148475600Y-69438600D02*
X148475600Y-139923600D01*
D11*
X202704600Y-110078600D02*
X202069600Y-110078600D01*
D12*
X226580600Y-130398600D02*
X215150600Y-130398600D01*
D13*
X170065600Y-138653600D02*
X150380600Y-129763600D01*
D10*
X196735600Y-113888600D02*
X213880600Y-113888600D01*
D13*
X107200600Y-80233600D02*
X126885600Y-71343600D01*
D12*
X70370600Y-130398600D02*
X70370600Y-109443600D01*
D10*
X91960600Y-112364600D02*
X98310600Y-112364600D01*
D12*
X226580600Y-100553600D02*
X215150600Y-100553600D01*
X226580600Y-109443600D02*
X226580600Y-130398600D01*
X215150600Y-100553600D02*
X215150600Y-79598600D01*
D10*
X213880600Y-113888600D02*
X213880600Y-106268600D01*
D13*
X126885600Y-71343600D02*
X146570600Y-80233600D01*
D11*
X92341600Y-99283600D02*
X93611600Y-100553600D01*
D13*
X107200600Y-131033600D02*
X126885600Y-139923600D01*
D10*
X83070600Y-103728600D02*
X100215600Y-103728600D01*
X91960600Y-106014600D02*
X91960600Y-112364600D01*
D11*
X89801600Y-99283600D02*
X91071600Y-100553600D01*
D13*
X189750600Y-78963600D02*
X170065600Y-70073600D01*
X126885600Y-139923600D02*
X146570600Y-131033600D01*
D12*
X215150600Y-109443600D02*
X226580600Y-109443600D01*
D11*
X93611600Y-100553600D02*
X94246600Y-99918600D01*
D10*
X77647566Y-114739399D02*
X80318195Y-114739399D01*
X78982880Y-116074713D02*
X78982880Y-113404084D01*
D14*
X84488364Y-95266017D02*
X83943111Y-94487084D01*
X83553644Y-95266017D02*
X83553644Y-93630257D01*
X83553644Y-93630257D02*
X84176791Y-93630257D01*
X84176791Y-93630257D02*
X84332578Y-93708150D01*
X84332578Y-93708150D02*
X84410471Y-93786044D01*
X84410471Y-93786044D02*
X84488364Y-93941830D01*
X84488364Y-93941830D02*
X84488364Y-94175510D01*
X84488364Y-94175510D02*
X84410471Y-94331297D01*
X84410471Y-94331297D02*
X84332578Y-94409190D01*
X84332578Y-94409190D02*
X84176791Y-94487084D01*
X84176791Y-94487084D02*
X83553644Y-94487084D01*
X85189404Y-95266017D02*
X85189404Y-94175510D01*
X85189404Y-94331297D02*
X85267298Y-94253404D01*
X85267298Y-94253404D02*
X85423084Y-94175510D01*
X85423084Y-94175510D02*
X85656764Y-94175510D01*
X85656764Y-94175510D02*
X85812551Y-94253404D01*
X85812551Y-94253404D02*
X85890444Y-94409190D01*
X85890444Y-94409190D02*
X85890444Y-95266017D01*
X85890444Y-94409190D02*
X85968338Y-94253404D01*
X85968338Y-94253404D02*
X86124124Y-94175510D01*
X86124124Y-94175510D02*
X86357804Y-94175510D01*
X86357804Y-94175510D02*
X86513591Y-94253404D01*
X86513591Y-94253404D02*
X86591484Y-94409190D01*
X86591484Y-94409190D02*
X86591484Y-95266017D01*
X87993564Y-95188124D02*
X87837777Y-95266017D01*
X87837777Y-95266017D02*
X87526204Y-95266017D01*
X87526204Y-95266017D02*
X87370417Y-95188124D01*
X87370417Y-95188124D02*
X87292524Y-95032337D01*
X87292524Y-95032337D02*
X87292524Y-94409190D01*
X87292524Y-94409190D02*
X87370417Y-94253404D01*
X87370417Y-94253404D02*
X87526204Y-94175510D01*
X87526204Y-94175510D02*
X87837777Y-94175510D01*
X87837777Y-94175510D02*
X87993564Y-94253404D01*
X87993564Y-94253404D02*
X88071457Y-94409190D01*
X88071457Y-94409190D02*
X88071457Y-94564977D01*
X88071457Y-94564977D02*
X87292524Y-94720764D01*
X89473537Y-95266017D02*
X89473537Y-94409190D01*
X89473537Y-94409190D02*
X89395644Y-94253404D01*
X89395644Y-94253404D02*
X89239857Y-94175510D01*
X89239857Y-94175510D02*
X88928284Y-94175510D01*
X88928284Y-94175510D02*
X88772497Y-94253404D01*
X89473537Y-95188124D02*
X89317751Y-95266017D01*
X89317751Y-95266017D02*
X88928284Y-95266017D01*
X88928284Y-95266017D02*
X88772497Y-95188124D01*
X88772497Y-95188124D02*
X88694604Y-95032337D01*
X88694604Y-95032337D02*
X88694604Y-94876550D01*
X88694604Y-94876550D02*
X88772497Y-94720764D01*
X88772497Y-94720764D02*
X88928284Y-94642870D01*
X88928284Y-94642870D02*
X89317751Y-94642870D01*
X89317751Y-94642870D02*
X89473537Y-94564977D01*
X90174577Y-95188124D02*
X90330364Y-95266017D01*
X90330364Y-95266017D02*
X90641937Y-95266017D01*
X90641937Y-95266017D02*
X90797724Y-95188124D01*
X90797724Y-95188124D02*
X90875617Y-95032337D01*
X90875617Y-95032337D02*
X90875617Y-94954444D01*
X90875617Y-94954444D02*
X90797724Y-94798657D01*
X90797724Y-94798657D02*
X90641937Y-94720764D01*
X90641937Y-94720764D02*
X90408257Y-94720764D01*
X90408257Y-94720764D02*
X90252470Y-94642870D01*
X90252470Y-94642870D02*
X90174577Y-94487084D01*
X90174577Y-94487084D02*
X90174577Y-94409190D01*
X90174577Y-94409190D02*
X90252470Y-94253404D01*
X90252470Y-94253404D02*
X90408257Y-94175510D01*
X90408257Y-94175510D02*
X90641937Y-94175510D01*
X90641937Y-94175510D02*
X90797724Y-94253404D01*
X91576657Y-95110230D02*
X91654551Y-95188124D01*
X91654551Y-95188124D02*
X91576657Y-95266017D01*
X91576657Y-95266017D02*
X91498764Y-95188124D01*
X91498764Y-95188124D02*
X91576657Y-95110230D01*
X91576657Y-95110230D02*
X91576657Y-95266017D01*
X91576657Y-94253404D02*
X91654551Y-94331297D01*
X91654551Y-94331297D02*
X91576657Y-94409190D01*
X91576657Y-94409190D02*
X91498764Y-94331297D01*
X91498764Y-94331297D02*
X91576657Y-94253404D01*
X91576657Y-94253404D02*
X91576657Y-94409190D01*
X82116004Y-105695257D02*
X82116004Y-106863657D01*
X82116004Y-106863657D02*
X82038111Y-107097337D01*
X82038111Y-107097337D02*
X81882324Y-107253124D01*
X81882324Y-107253124D02*
X81648644Y-107331017D01*
X81648644Y-107331017D02*
X81492858Y-107331017D01*
X83595977Y-106240510D02*
X83595977Y-107331017D01*
X82894937Y-106240510D02*
X82894937Y-107097337D01*
X82894937Y-107097337D02*
X82972831Y-107253124D01*
X82972831Y-107253124D02*
X83128617Y-107331017D01*
X83128617Y-107331017D02*
X83362297Y-107331017D01*
X83362297Y-107331017D02*
X83518084Y-107253124D01*
X83518084Y-107253124D02*
X83595977Y-107175230D01*
X84374910Y-107331017D02*
X84374910Y-106240510D01*
X84374910Y-106396297D02*
X84452804Y-106318404D01*
X84452804Y-106318404D02*
X84608590Y-106240510D01*
X84608590Y-106240510D02*
X84842270Y-106240510D01*
X84842270Y-106240510D02*
X84998057Y-106318404D01*
X84998057Y-106318404D02*
X85075950Y-106474190D01*
X85075950Y-106474190D02*
X85075950Y-107331017D01*
X85075950Y-106474190D02*
X85153844Y-106318404D01*
X85153844Y-106318404D02*
X85309630Y-106240510D01*
X85309630Y-106240510D02*
X85543310Y-106240510D01*
X85543310Y-106240510D02*
X85699097Y-106318404D01*
X85699097Y-106318404D02*
X85776990Y-106474190D01*
X85776990Y-106474190D02*
X85776990Y-107331017D01*
X86555923Y-106240510D02*
X86555923Y-107876270D01*
X86555923Y-106318404D02*
X86711710Y-106240510D01*
X86711710Y-106240510D02*
X87023283Y-106240510D01*
X87023283Y-106240510D02*
X87179070Y-106318404D01*
X87179070Y-106318404D02*
X87256963Y-106396297D01*
X87256963Y-106396297D02*
X87334857Y-106552084D01*
X87334857Y-106552084D02*
X87334857Y-107019444D01*
X87334857Y-107019444D02*
X87256963Y-107175230D01*
X87256963Y-107175230D02*
X87179070Y-107253124D01*
X87179070Y-107253124D02*
X87023283Y-107331017D01*
X87023283Y-107331017D02*
X86711710Y-107331017D01*
X86711710Y-107331017D02*
X86555923Y-107253124D01*
X88659043Y-107253124D02*
X88503256Y-107331017D01*
X88503256Y-107331017D02*
X88191683Y-107331017D01*
X88191683Y-107331017D02*
X88035896Y-107253124D01*
X88035896Y-107253124D02*
X87958003Y-107097337D01*
X87958003Y-107097337D02*
X87958003Y-106474190D01*
X87958003Y-106474190D02*
X88035896Y-106318404D01*
X88035896Y-106318404D02*
X88191683Y-106240510D01*
X88191683Y-106240510D02*
X88503256Y-106240510D01*
X88503256Y-106240510D02*
X88659043Y-106318404D01*
X88659043Y-106318404D02*
X88736936Y-106474190D01*
X88736936Y-106474190D02*
X88736936Y-106629977D01*
X88736936Y-106629977D02*
X87958003Y-106785764D01*
X89437976Y-107331017D02*
X89437976Y-106240510D01*
X89437976Y-106552084D02*
X89515870Y-106396297D01*
X89515870Y-106396297D02*
X89593763Y-106318404D01*
X89593763Y-106318404D02*
X89749550Y-106240510D01*
X89749550Y-106240510D02*
X89905336Y-106240510D01*
X90450589Y-107175230D02*
X90528483Y-107253124D01*
X90528483Y-107253124D02*
X90450589Y-107331017D01*
X90450589Y-107331017D02*
X90372696Y-107253124D01*
X90372696Y-107253124D02*
X90450589Y-107175230D01*
X90450589Y-107175230D02*
X90450589Y-107331017D01*
X90450589Y-106318404D02*
X90528483Y-106396297D01*
X90528483Y-106396297D02*
X90450589Y-106474190D01*
X90450589Y-106474190D02*
X90372696Y-106396297D01*
X90372696Y-106396297D02*
X90450589Y-106318404D01*
X90450589Y-106318404D02*
X90450589Y-106474190D01*
D15*
X73876418Y-89465330D02*
X74811138Y-92269490D01*
X74811138Y-92269490D02*
X75745858Y-89465330D01*
X76680579Y-92269490D02*
X76680579Y-90400050D01*
X76680579Y-89465330D02*
X76547047Y-89598861D01*
X76547047Y-89598861D02*
X76680579Y-89732393D01*
X76680579Y-89732393D02*
X76814110Y-89598861D01*
X76814110Y-89598861D02*
X76680579Y-89465330D01*
X76680579Y-89465330D02*
X76680579Y-89732393D01*
X78015893Y-90400050D02*
X78015893Y-92269490D01*
X78015893Y-90667113D02*
X78149424Y-90533581D01*
X78149424Y-90533581D02*
X78416487Y-90400050D01*
X78416487Y-90400050D02*
X78817081Y-90400050D01*
X78817081Y-90400050D02*
X79084144Y-90533581D01*
X79084144Y-90533581D02*
X79217676Y-90800644D01*
X79217676Y-90800644D02*
X79217676Y-92269490D01*
D10*
X78028566Y-96959399D02*
X80699195Y-96959399D01*
D15*
X86946678Y-69703357D02*
X87881398Y-69703357D01*
X88281992Y-71172203D02*
X86946678Y-71172203D01*
X86946678Y-71172203D02*
X86946678Y-68368043D01*
X86946678Y-68368043D02*
X88281992Y-68368043D01*
X89483775Y-71172203D02*
X89483775Y-68368043D01*
X89483775Y-68368043D02*
X91086152Y-71172203D01*
X91086152Y-71172203D02*
X91086152Y-68368043D01*
X93890311Y-68501574D02*
X93623249Y-68368043D01*
X93623249Y-68368043D02*
X93222654Y-68368043D01*
X93222654Y-68368043D02*
X92822060Y-68501574D01*
X92822060Y-68501574D02*
X92554997Y-68768637D01*
X92554997Y-68768637D02*
X92421466Y-69035700D01*
X92421466Y-69035700D02*
X92287934Y-69569826D01*
X92287934Y-69569826D02*
X92287934Y-69970420D01*
X92287934Y-69970420D02*
X92421466Y-70504546D01*
X92421466Y-70504546D02*
X92554997Y-70771609D01*
X92554997Y-70771609D02*
X92822060Y-71038672D01*
X92822060Y-71038672D02*
X93222654Y-71172203D01*
X93222654Y-71172203D02*
X93489717Y-71172203D01*
X93489717Y-71172203D02*
X93890311Y-71038672D01*
X93890311Y-71038672D02*
X94023843Y-70905140D01*
X94023843Y-70905140D02*
X94023843Y-69970420D01*
X94023843Y-69970420D02*
X93489717Y-69970420D01*
X95092094Y-71038672D02*
X95492689Y-71172203D01*
X95492689Y-71172203D02*
X96160346Y-71172203D01*
X96160346Y-71172203D02*
X96427409Y-71038672D01*
X96427409Y-71038672D02*
X96560940Y-70905140D01*
X96560940Y-70905140D02*
X96694471Y-70638077D01*
X96694471Y-70638077D02*
X96694471Y-70371014D01*
X96694471Y-70371014D02*
X96560940Y-70103952D01*
X96560940Y-70103952D02*
X96427409Y-69970420D01*
X96427409Y-69970420D02*
X96160346Y-69836889D01*
X96160346Y-69836889D02*
X95626220Y-69703357D01*
X95626220Y-69703357D02*
X95359157Y-69569826D01*
X95359157Y-69569826D02*
X95225626Y-69436294D01*
X95225626Y-69436294D02*
X95092094Y-69169232D01*
X95092094Y-69169232D02*
X95092094Y-68902169D01*
X95092094Y-68902169D02*
X95225626Y-68635106D01*
X95225626Y-68635106D02*
X95359157Y-68501574D01*
X95359157Y-68501574D02*
X95626220Y-68368043D01*
X95626220Y-68368043D02*
X96293877Y-68368043D01*
X96293877Y-68368043D02*
X96694471Y-68501574D01*
X97762723Y-68635106D02*
X97896255Y-68501574D01*
X97896255Y-68501574D02*
X98163318Y-68368043D01*
X98163318Y-68368043D02*
X98830975Y-68368043D01*
X98830975Y-68368043D02*
X99098038Y-68501574D01*
X99098038Y-68501574D02*
X99231569Y-68635106D01*
X99231569Y-68635106D02*
X99365100Y-68902169D01*
X99365100Y-68902169D02*
X99365100Y-69169232D01*
X99365100Y-69169232D02*
X99231569Y-69569826D01*
X99231569Y-69569826D02*
X97629192Y-71172203D01*
X97629192Y-71172203D02*
X99365100Y-71172203D01*
X100433352Y-68635106D02*
X100566884Y-68501574D01*
X100566884Y-68501574D02*
X100833947Y-68368043D01*
X100833947Y-68368043D02*
X101501604Y-68368043D01*
X101501604Y-68368043D02*
X101768667Y-68501574D01*
X101768667Y-68501574D02*
X101902198Y-68635106D01*
X101902198Y-68635106D02*
X102035729Y-68902169D01*
X102035729Y-68902169D02*
X102035729Y-69169232D01*
X102035729Y-69169232D02*
X101902198Y-69569826D01*
X101902198Y-69569826D02*
X100299821Y-71172203D01*
X100299821Y-71172203D02*
X102035729Y-71172203D01*
X87881398Y-74217898D02*
X88281992Y-74351430D01*
X88281992Y-74351430D02*
X88415523Y-74484961D01*
X88415523Y-74484961D02*
X88549055Y-74752024D01*
X88549055Y-74752024D02*
X88549055Y-75152618D01*
X88549055Y-75152618D02*
X88415523Y-75419681D01*
X88415523Y-75419681D02*
X88281992Y-75553213D01*
X88281992Y-75553213D02*
X88014929Y-75686744D01*
X88014929Y-75686744D02*
X86946678Y-75686744D01*
X86946678Y-75686744D02*
X86946678Y-72882584D01*
X86946678Y-72882584D02*
X87881398Y-72882584D01*
X87881398Y-72882584D02*
X88148461Y-73016115D01*
X88148461Y-73016115D02*
X88281992Y-73149647D01*
X88281992Y-73149647D02*
X88415523Y-73416710D01*
X88415523Y-73416710D02*
X88415523Y-73683773D01*
X88415523Y-73683773D02*
X88281992Y-73950835D01*
X88281992Y-73950835D02*
X88148461Y-74084367D01*
X88148461Y-74084367D02*
X87881398Y-74217898D01*
X87881398Y-74217898D02*
X86946678Y-74217898D01*
X90151432Y-75686744D02*
X89884369Y-75553213D01*
X89884369Y-75553213D02*
X89750838Y-75286150D01*
X89750838Y-75286150D02*
X89750838Y-72882584D01*
X92421467Y-75686744D02*
X92421467Y-74217898D01*
X92421467Y-74217898D02*
X92287935Y-73950835D01*
X92287935Y-73950835D02*
X92020872Y-73817304D01*
X92020872Y-73817304D02*
X91486747Y-73817304D01*
X91486747Y-73817304D02*
X91219684Y-73950835D01*
X92421467Y-75553213D02*
X92154404Y-75686744D01*
X92154404Y-75686744D02*
X91486747Y-75686744D01*
X91486747Y-75686744D02*
X91219684Y-75553213D01*
X91219684Y-75553213D02*
X91086152Y-75286150D01*
X91086152Y-75286150D02*
X91086152Y-75019087D01*
X91086152Y-75019087D02*
X91219684Y-74752024D01*
X91219684Y-74752024D02*
X91486747Y-74618493D01*
X91486747Y-74618493D02*
X92154404Y-74618493D01*
X92154404Y-74618493D02*
X92421467Y-74484961D01*
X94958564Y-75553213D02*
X94691501Y-75686744D01*
X94691501Y-75686744D02*
X94157375Y-75686744D01*
X94157375Y-75686744D02*
X93890312Y-75553213D01*
X93890312Y-75553213D02*
X93756781Y-75419681D01*
X93756781Y-75419681D02*
X93623249Y-75152618D01*
X93623249Y-75152618D02*
X93623249Y-74351430D01*
X93623249Y-74351430D02*
X93756781Y-74084367D01*
X93756781Y-74084367D02*
X93890312Y-73950835D01*
X93890312Y-73950835D02*
X94157375Y-73817304D01*
X94157375Y-73817304D02*
X94691501Y-73817304D01*
X94691501Y-73817304D02*
X94958564Y-73950835D01*
X96160347Y-75686744D02*
X96160347Y-72882584D01*
X96427410Y-74618493D02*
X97228598Y-75686744D01*
X97228598Y-73817304D02*
X96160347Y-74885555D01*
X101501604Y-74217898D02*
X101902198Y-74351430D01*
X101902198Y-74351430D02*
X102035729Y-74484961D01*
X102035729Y-74484961D02*
X102169261Y-74752024D01*
X102169261Y-74752024D02*
X102169261Y-75152618D01*
X102169261Y-75152618D02*
X102035729Y-75419681D01*
X102035729Y-75419681D02*
X101902198Y-75553213D01*
X101902198Y-75553213D02*
X101635135Y-75686744D01*
X101635135Y-75686744D02*
X100566884Y-75686744D01*
X100566884Y-75686744D02*
X100566884Y-72882584D01*
X100566884Y-72882584D02*
X101501604Y-72882584D01*
X101501604Y-72882584D02*
X101768667Y-73016115D01*
X101768667Y-73016115D02*
X101902198Y-73149647D01*
X101902198Y-73149647D02*
X102035729Y-73416710D01*
X102035729Y-73416710D02*
X102035729Y-73683773D01*
X102035729Y-73683773D02*
X101902198Y-73950835D01*
X101902198Y-73950835D02*
X101768667Y-74084367D01*
X101768667Y-74084367D02*
X101501604Y-74217898D01*
X101501604Y-74217898D02*
X100566884Y-74217898D01*
X103771638Y-75686744D02*
X103504575Y-75553213D01*
X103504575Y-75553213D02*
X103371044Y-75419681D01*
X103371044Y-75419681D02*
X103237512Y-75152618D01*
X103237512Y-75152618D02*
X103237512Y-74351430D01*
X103237512Y-74351430D02*
X103371044Y-74084367D01*
X103371044Y-74084367D02*
X103504575Y-73950835D01*
X103504575Y-73950835D02*
X103771638Y-73817304D01*
X103771638Y-73817304D02*
X104172232Y-73817304D01*
X104172232Y-73817304D02*
X104439295Y-73950835D01*
X104439295Y-73950835D02*
X104572827Y-74084367D01*
X104572827Y-74084367D02*
X104706358Y-74351430D01*
X104706358Y-74351430D02*
X104706358Y-75152618D01*
X104706358Y-75152618D02*
X104572827Y-75419681D01*
X104572827Y-75419681D02*
X104439295Y-75553213D01*
X104439295Y-75553213D02*
X104172232Y-75686744D01*
X104172232Y-75686744D02*
X103771638Y-75686744D01*
X105641078Y-75686744D02*
X107109924Y-73817304D01*
X105641078Y-73817304D02*
X107109924Y-75686744D01*
D14*
X86728644Y-80661017D02*
X86728644Y-79025257D01*
X86728644Y-79025257D02*
X87351791Y-79025257D01*
X87351791Y-79025257D02*
X87507578Y-79103150D01*
X87507578Y-79103150D02*
X87585471Y-79181044D01*
X87585471Y-79181044D02*
X87663364Y-79336830D01*
X87663364Y-79336830D02*
X87663364Y-79570510D01*
X87663364Y-79570510D02*
X87585471Y-79726297D01*
X87585471Y-79726297D02*
X87507578Y-79804190D01*
X87507578Y-79804190D02*
X87351791Y-79882084D01*
X87351791Y-79882084D02*
X86728644Y-79882084D01*
X88598084Y-80661017D02*
X88442298Y-80583124D01*
X88442298Y-80583124D02*
X88364404Y-80505230D01*
X88364404Y-80505230D02*
X88286511Y-80349444D01*
X88286511Y-80349444D02*
X88286511Y-79882084D01*
X88286511Y-79882084D02*
X88364404Y-79726297D01*
X88364404Y-79726297D02*
X88442298Y-79648404D01*
X88442298Y-79648404D02*
X88598084Y-79570510D01*
X88598084Y-79570510D02*
X88831764Y-79570510D01*
X88831764Y-79570510D02*
X88987551Y-79648404D01*
X88987551Y-79648404D02*
X89065444Y-79726297D01*
X89065444Y-79726297D02*
X89143338Y-79882084D01*
X89143338Y-79882084D02*
X89143338Y-80349444D01*
X89143338Y-80349444D02*
X89065444Y-80505230D01*
X89065444Y-80505230D02*
X88987551Y-80583124D01*
X88987551Y-80583124D02*
X88831764Y-80661017D01*
X88831764Y-80661017D02*
X88598084Y-80661017D01*
X89610697Y-79570510D02*
X90233844Y-79570510D01*
X89844377Y-79025257D02*
X89844377Y-80427337D01*
X89844377Y-80427337D02*
X89922271Y-80583124D01*
X89922271Y-80583124D02*
X90078057Y-80661017D01*
X90078057Y-80661017D02*
X90233844Y-80661017D01*
X91402244Y-80583124D02*
X91246457Y-80661017D01*
X91246457Y-80661017D02*
X90934884Y-80661017D01*
X90934884Y-80661017D02*
X90779097Y-80583124D01*
X90779097Y-80583124D02*
X90701204Y-80427337D01*
X90701204Y-80427337D02*
X90701204Y-79804190D01*
X90701204Y-79804190D02*
X90779097Y-79648404D01*
X90779097Y-79648404D02*
X90934884Y-79570510D01*
X90934884Y-79570510D02*
X91246457Y-79570510D01*
X91246457Y-79570510D02*
X91402244Y-79648404D01*
X91402244Y-79648404D02*
X91480137Y-79804190D01*
X91480137Y-79804190D02*
X91480137Y-79959977D01*
X91480137Y-79959977D02*
X90701204Y-80115764D01*
X92181177Y-79570510D02*
X92181177Y-80661017D01*
X92181177Y-79726297D02*
X92259071Y-79648404D01*
X92259071Y-79648404D02*
X92414857Y-79570510D01*
X92414857Y-79570510D02*
X92648537Y-79570510D01*
X92648537Y-79570510D02*
X92804324Y-79648404D01*
X92804324Y-79648404D02*
X92882217Y-79804190D01*
X92882217Y-79804190D02*
X92882217Y-80661017D01*
X93427470Y-79570510D02*
X94050617Y-79570510D01*
X93661150Y-79025257D02*
X93661150Y-80427337D01*
X93661150Y-80427337D02*
X93739044Y-80583124D01*
X93739044Y-80583124D02*
X93894830Y-80661017D01*
X93894830Y-80661017D02*
X94050617Y-80661017D01*
X94595870Y-80661017D02*
X94595870Y-79570510D01*
X94595870Y-79025257D02*
X94517977Y-79103150D01*
X94517977Y-79103150D02*
X94595870Y-79181044D01*
X94595870Y-79181044D02*
X94673764Y-79103150D01*
X94673764Y-79103150D02*
X94595870Y-79025257D01*
X94595870Y-79025257D02*
X94595870Y-79181044D01*
X95608483Y-80661017D02*
X95452697Y-80583124D01*
X95452697Y-80583124D02*
X95374803Y-80505230D01*
X95374803Y-80505230D02*
X95296910Y-80349444D01*
X95296910Y-80349444D02*
X95296910Y-79882084D01*
X95296910Y-79882084D02*
X95374803Y-79726297D01*
X95374803Y-79726297D02*
X95452697Y-79648404D01*
X95452697Y-79648404D02*
X95608483Y-79570510D01*
X95608483Y-79570510D02*
X95842163Y-79570510D01*
X95842163Y-79570510D02*
X95997950Y-79648404D01*
X95997950Y-79648404D02*
X96075843Y-79726297D01*
X96075843Y-79726297D02*
X96153737Y-79882084D01*
X96153737Y-79882084D02*
X96153737Y-80349444D01*
X96153737Y-80349444D02*
X96075843Y-80505230D01*
X96075843Y-80505230D02*
X95997950Y-80583124D01*
X95997950Y-80583124D02*
X95842163Y-80661017D01*
X95842163Y-80661017D02*
X95608483Y-80661017D01*
X96854776Y-80661017D02*
X96854776Y-79570510D01*
X96854776Y-79726297D02*
X96932670Y-79648404D01*
X96932670Y-79648404D02*
X97088456Y-79570510D01*
X97088456Y-79570510D02*
X97322136Y-79570510D01*
X97322136Y-79570510D02*
X97477923Y-79648404D01*
X97477923Y-79648404D02*
X97555816Y-79804190D01*
X97555816Y-79804190D02*
X97555816Y-80661017D01*
X97555816Y-79804190D02*
X97633710Y-79648404D01*
X97633710Y-79648404D02*
X97789496Y-79570510D01*
X97789496Y-79570510D02*
X98023176Y-79570510D01*
X98023176Y-79570510D02*
X98178963Y-79648404D01*
X98178963Y-79648404D02*
X98256856Y-79804190D01*
X98256856Y-79804190D02*
X98256856Y-80661017D01*
X99658936Y-80583124D02*
X99503149Y-80661017D01*
X99503149Y-80661017D02*
X99191576Y-80661017D01*
X99191576Y-80661017D02*
X99035789Y-80583124D01*
X99035789Y-80583124D02*
X98957896Y-80427337D01*
X98957896Y-80427337D02*
X98957896Y-79804190D01*
X98957896Y-79804190D02*
X99035789Y-79648404D01*
X99035789Y-79648404D02*
X99191576Y-79570510D01*
X99191576Y-79570510D02*
X99503149Y-79570510D01*
X99503149Y-79570510D02*
X99658936Y-79648404D01*
X99658936Y-79648404D02*
X99736829Y-79804190D01*
X99736829Y-79804190D02*
X99736829Y-79959977D01*
X99736829Y-79959977D02*
X98957896Y-80115764D01*
X100204189Y-79570510D02*
X100827336Y-79570510D01*
X100437869Y-79025257D02*
X100437869Y-80427337D01*
X100437869Y-80427337D02*
X100515763Y-80583124D01*
X100515763Y-80583124D02*
X100671549Y-80661017D01*
X100671549Y-80661017D02*
X100827336Y-80661017D01*
X101995736Y-80583124D02*
X101839949Y-80661017D01*
X101839949Y-80661017D02*
X101528376Y-80661017D01*
X101528376Y-80661017D02*
X101372589Y-80583124D01*
X101372589Y-80583124D02*
X101294696Y-80427337D01*
X101294696Y-80427337D02*
X101294696Y-79804190D01*
X101294696Y-79804190D02*
X101372589Y-79648404D01*
X101372589Y-79648404D02*
X101528376Y-79570510D01*
X101528376Y-79570510D02*
X101839949Y-79570510D01*
X101839949Y-79570510D02*
X101995736Y-79648404D01*
X101995736Y-79648404D02*
X102073629Y-79804190D01*
X102073629Y-79804190D02*
X102073629Y-79959977D01*
X102073629Y-79959977D02*
X101294696Y-80115764D01*
X102774669Y-80661017D02*
X102774669Y-79570510D01*
X102774669Y-79882084D02*
X102852563Y-79726297D01*
X102852563Y-79726297D02*
X102930456Y-79648404D01*
X102930456Y-79648404D02*
X103086243Y-79570510D01*
X103086243Y-79570510D02*
X103242029Y-79570510D01*
D10*
X78028566Y-127439399D02*
X80699195Y-127439399D01*
X77647566Y-84894399D02*
X80318195Y-84894399D01*
X78982880Y-86229713D02*
X78982880Y-83559084D01*
D16*
X113271836Y-80140253D02*
X114050769Y-82477053D01*
X114050769Y-82477053D02*
X114829703Y-80140253D01*
X116610121Y-82477053D02*
X116610121Y-81253015D01*
X116610121Y-81253015D02*
X116498845Y-81030462D01*
X116498845Y-81030462D02*
X116276293Y-80919186D01*
X116276293Y-80919186D02*
X115831188Y-80919186D01*
X115831188Y-80919186D02*
X115608635Y-81030462D01*
X116610121Y-82365777D02*
X116387569Y-82477053D01*
X116387569Y-82477053D02*
X115831188Y-82477053D01*
X115831188Y-82477053D02*
X115608635Y-82365777D01*
X115608635Y-82365777D02*
X115497359Y-82143224D01*
X115497359Y-82143224D02*
X115497359Y-81920672D01*
X115497359Y-81920672D02*
X115608635Y-81698119D01*
X115608635Y-81698119D02*
X115831188Y-81586843D01*
X115831188Y-81586843D02*
X116387569Y-81586843D01*
X116387569Y-81586843D02*
X116610121Y-81475567D01*
X118056712Y-82477053D02*
X117834160Y-82365777D01*
X117834160Y-82365777D02*
X117722883Y-82143224D01*
X117722883Y-82143224D02*
X117722883Y-80140253D01*
X119948407Y-80919186D02*
X119948407Y-82477053D01*
X118946921Y-80919186D02*
X118946921Y-82143224D01*
X118946921Y-82143224D02*
X119058198Y-82365777D01*
X119058198Y-82365777D02*
X119280750Y-82477053D01*
X119280750Y-82477053D02*
X119614579Y-82477053D01*
X119614579Y-82477053D02*
X119837131Y-82365777D01*
X119837131Y-82365777D02*
X119948407Y-82254500D01*
X121951379Y-82365777D02*
X121728827Y-82477053D01*
X121728827Y-82477053D02*
X121283722Y-82477053D01*
X121283722Y-82477053D02*
X121061169Y-82365777D01*
X121061169Y-82365777D02*
X120949893Y-82143224D01*
X120949893Y-82143224D02*
X120949893Y-81253015D01*
X120949893Y-81253015D02*
X121061169Y-81030462D01*
X121061169Y-81030462D02*
X121283722Y-80919186D01*
X121283722Y-80919186D02*
X121728827Y-80919186D01*
X121728827Y-80919186D02*
X121951379Y-81030462D01*
X121951379Y-81030462D02*
X122062655Y-81253015D01*
X122062655Y-81253015D02*
X122062655Y-81475567D01*
X122062655Y-81475567D02*
X120949893Y-81698119D01*
X122952864Y-82365777D02*
X123175417Y-82477053D01*
X123175417Y-82477053D02*
X123620521Y-82477053D01*
X123620521Y-82477053D02*
X123843074Y-82365777D01*
X123843074Y-82365777D02*
X123954350Y-82143224D01*
X123954350Y-82143224D02*
X123954350Y-82031948D01*
X123954350Y-82031948D02*
X123843074Y-81809396D01*
X123843074Y-81809396D02*
X123620521Y-81698119D01*
X123620521Y-81698119D02*
X123286693Y-81698119D01*
X123286693Y-81698119D02*
X123064140Y-81586843D01*
X123064140Y-81586843D02*
X122952864Y-81364291D01*
X122952864Y-81364291D02*
X122952864Y-81253015D01*
X122952864Y-81253015D02*
X123064140Y-81030462D01*
X123064140Y-81030462D02*
X123286693Y-80919186D01*
X123286693Y-80919186D02*
X123620521Y-80919186D01*
X123620521Y-80919186D02*
X123843074Y-81030462D01*
X124955835Y-82254500D02*
X125067112Y-82365777D01*
X125067112Y-82365777D02*
X124955835Y-82477053D01*
X124955835Y-82477053D02*
X124844559Y-82365777D01*
X124844559Y-82365777D02*
X124955835Y-82254500D01*
X124955835Y-82254500D02*
X124955835Y-82477053D01*
X124955835Y-81030462D02*
X125067112Y-81141738D01*
X125067112Y-81141738D02*
X124955835Y-81253015D01*
X124955835Y-81253015D02*
X124844559Y-81141738D01*
X124844559Y-81141738D02*
X124955835Y-81030462D01*
X124955835Y-81030462D02*
X124955835Y-81253015D01*
X209871601Y-94454184D02*
X209537773Y-94342908D01*
X209537773Y-94342908D02*
X209426496Y-94231632D01*
X209426496Y-94231632D02*
X209315220Y-94009080D01*
X209315220Y-94009080D02*
X209315220Y-93675251D01*
X209315220Y-93675251D02*
X209426496Y-93452699D01*
X209426496Y-93452699D02*
X209537773Y-93341423D01*
X209537773Y-93341423D02*
X209760325Y-93230146D01*
X209760325Y-93230146D02*
X210650535Y-93230146D01*
X210650535Y-93230146D02*
X210650535Y-95566946D01*
X210650535Y-95566946D02*
X209871601Y-95566946D01*
X209871601Y-95566946D02*
X209649049Y-95455670D01*
X209649049Y-95455670D02*
X209537773Y-95344394D01*
X209537773Y-95344394D02*
X209426496Y-95121842D01*
X209426496Y-95121842D02*
X209426496Y-94899289D01*
X209426496Y-94899289D02*
X209537773Y-94676737D01*
X209537773Y-94676737D02*
X209649049Y-94565461D01*
X209649049Y-94565461D02*
X209871601Y-94454184D01*
X209871601Y-94454184D02*
X210650535Y-94454184D01*
X207979906Y-93230146D02*
X208202458Y-93341423D01*
X208202458Y-93341423D02*
X208313735Y-93452699D01*
X208313735Y-93452699D02*
X208425011Y-93675251D01*
X208425011Y-93675251D02*
X208425011Y-94342908D01*
X208425011Y-94342908D02*
X208313735Y-94565461D01*
X208313735Y-94565461D02*
X208202458Y-94676737D01*
X208202458Y-94676737D02*
X207979906Y-94788013D01*
X207979906Y-94788013D02*
X207646077Y-94788013D01*
X207646077Y-94788013D02*
X207423525Y-94676737D01*
X207423525Y-94676737D02*
X207312249Y-94565461D01*
X207312249Y-94565461D02*
X207200973Y-94342908D01*
X207200973Y-94342908D02*
X207200973Y-93675251D01*
X207200973Y-93675251D02*
X207312249Y-93452699D01*
X207312249Y-93452699D02*
X207423525Y-93341423D01*
X207423525Y-93341423D02*
X207646077Y-93230146D01*
X207646077Y-93230146D02*
X207979906Y-93230146D01*
X206422039Y-93230146D02*
X205198001Y-94788013D01*
X206422039Y-94788013D02*
X205198001Y-93230146D01*
X202638649Y-94788013D02*
X200969506Y-94788013D01*
X201970992Y-95789499D02*
X202638649Y-92785042D01*
X201192058Y-93786527D02*
X202861201Y-93786527D01*
X201859715Y-92785042D02*
X201192058Y-95789499D01*
X200190573Y-93452699D02*
X200079296Y-93341423D01*
X200079296Y-93341423D02*
X200190573Y-93230146D01*
X200190573Y-93230146D02*
X200301849Y-93341423D01*
X200301849Y-93341423D02*
X200190573Y-93452699D01*
X200190573Y-93452699D02*
X200190573Y-93230146D01*
X200190573Y-94676737D02*
X200079296Y-94565461D01*
X200079296Y-94565461D02*
X200190573Y-94454184D01*
X200190573Y-94454184D02*
X200301849Y-94565461D01*
X200301849Y-94565461D02*
X200190573Y-94676737D01*
X200190573Y-94676737D02*
X200190573Y-94454184D01*
D15*
X222978116Y-122128615D02*
X222043396Y-119324455D01*
X222043396Y-119324455D02*
X221108676Y-122128615D01*
X220173955Y-119324455D02*
X220173955Y-121193895D01*
X220173955Y-122128615D02*
X220307487Y-121995084D01*
X220307487Y-121995084D02*
X220173955Y-121861552D01*
X220173955Y-121861552D02*
X220040424Y-121995084D01*
X220040424Y-121995084D02*
X220173955Y-122128615D01*
X220173955Y-122128615D02*
X220173955Y-121861552D01*
X218838641Y-121193895D02*
X218838641Y-119324455D01*
X218838641Y-120926832D02*
X218705110Y-121060364D01*
X218705110Y-121060364D02*
X218438047Y-121193895D01*
X218438047Y-121193895D02*
X218037453Y-121193895D01*
X218037453Y-121193895D02*
X217770390Y-121060364D01*
X217770390Y-121060364D02*
X217636859Y-120793301D01*
X217636859Y-120793301D02*
X217636859Y-119324455D01*
D17*
X72220827Y-132408402D02*
X71753467Y-131740745D01*
X71419638Y-132408402D02*
X71419638Y-131006322D01*
X71419638Y-131006322D02*
X71953764Y-131006322D01*
X71953764Y-131006322D02*
X72087295Y-131073088D01*
X72087295Y-131073088D02*
X72154061Y-131139854D01*
X72154061Y-131139854D02*
X72220827Y-131273385D01*
X72220827Y-131273385D02*
X72220827Y-131473682D01*
X72220827Y-131473682D02*
X72154061Y-131607214D01*
X72154061Y-131607214D02*
X72087295Y-131673979D01*
X72087295Y-131673979D02*
X71953764Y-131740745D01*
X71953764Y-131740745D02*
X71419638Y-131740745D01*
X73355844Y-132341637D02*
X73222312Y-132408402D01*
X73222312Y-132408402D02*
X72955250Y-132408402D01*
X72955250Y-132408402D02*
X72821718Y-132341637D01*
X72821718Y-132341637D02*
X72754952Y-132208105D01*
X72754952Y-132208105D02*
X72754952Y-131673979D01*
X72754952Y-131673979D02*
X72821718Y-131540448D01*
X72821718Y-131540448D02*
X72955250Y-131473682D01*
X72955250Y-131473682D02*
X73222312Y-131473682D01*
X73222312Y-131473682D02*
X73355844Y-131540448D01*
X73355844Y-131540448D02*
X73422610Y-131673979D01*
X73422610Y-131673979D02*
X73422610Y-131807511D01*
X73422610Y-131807511D02*
X72754952Y-131941042D01*
X73889970Y-131473682D02*
X74223798Y-132408402D01*
X74223798Y-132408402D02*
X74557627Y-131473682D01*
X76894426Y-132408402D02*
X76093237Y-132408402D01*
X76493832Y-132408402D02*
X76493832Y-131006322D01*
X76493832Y-131006322D02*
X76360300Y-131206619D01*
X76360300Y-131206619D02*
X76226769Y-131340151D01*
X76226769Y-131340151D02*
X76093237Y-131406917D01*
X77495317Y-132274871D02*
X77562083Y-132341637D01*
X77562083Y-132341637D02*
X77495317Y-132408402D01*
X77495317Y-132408402D02*
X77428551Y-132341637D01*
X77428551Y-132341637D02*
X77495317Y-132274871D01*
X77495317Y-132274871D02*
X77495317Y-132408402D01*
X78096208Y-131139854D02*
X78162974Y-131073088D01*
X78162974Y-131073088D02*
X78296506Y-131006322D01*
X78296506Y-131006322D02*
X78630334Y-131006322D01*
X78630334Y-131006322D02*
X78763866Y-131073088D01*
X78763866Y-131073088D02*
X78830631Y-131139854D01*
X78830631Y-131139854D02*
X78897397Y-131273385D01*
X78897397Y-131273385D02*
X78897397Y-131406917D01*
X78897397Y-131406917D02*
X78830631Y-131607214D01*
X78830631Y-131607214D02*
X78029443Y-132408402D01*
X78029443Y-132408402D02*
X78897397Y-132408402D01*
X71820232Y-133263592D02*
X71820232Y-134265078D01*
X71820232Y-134265078D02*
X71753467Y-134465375D01*
X71753467Y-134465375D02*
X71619935Y-134598907D01*
X71619935Y-134598907D02*
X71419638Y-134665672D01*
X71419638Y-134665672D02*
X71286107Y-134665672D01*
X72487889Y-134532141D02*
X72554655Y-134598907D01*
X72554655Y-134598907D02*
X72487889Y-134665672D01*
X72487889Y-134665672D02*
X72421123Y-134598907D01*
X72421123Y-134598907D02*
X72487889Y-134532141D01*
X72487889Y-134532141D02*
X72487889Y-134665672D01*
X74157031Y-134598907D02*
X74357329Y-134665672D01*
X74357329Y-134665672D02*
X74691157Y-134665672D01*
X74691157Y-134665672D02*
X74824689Y-134598907D01*
X74824689Y-134598907D02*
X74891454Y-134532141D01*
X74891454Y-134532141D02*
X74958220Y-134398609D01*
X74958220Y-134398609D02*
X74958220Y-134265078D01*
X74958220Y-134265078D02*
X74891454Y-134131547D01*
X74891454Y-134131547D02*
X74824689Y-134064781D01*
X74824689Y-134064781D02*
X74691157Y-133998015D01*
X74691157Y-133998015D02*
X74424094Y-133931249D01*
X74424094Y-133931249D02*
X74290563Y-133864484D01*
X74290563Y-133864484D02*
X74223797Y-133797718D01*
X74223797Y-133797718D02*
X74157031Y-133664187D01*
X74157031Y-133664187D02*
X74157031Y-133530655D01*
X74157031Y-133530655D02*
X74223797Y-133397124D01*
X74223797Y-133397124D02*
X74290563Y-133330358D01*
X74290563Y-133330358D02*
X74424094Y-133263592D01*
X74424094Y-133263592D02*
X74757923Y-133263592D01*
X74757923Y-133263592D02*
X74958220Y-133330358D01*
X75358814Y-133730952D02*
X75892940Y-133730952D01*
X75559111Y-133263592D02*
X75559111Y-134465375D01*
X75559111Y-134465375D02*
X75625877Y-134598907D01*
X75625877Y-134598907D02*
X75759408Y-134665672D01*
X75759408Y-134665672D02*
X75892940Y-134665672D01*
X76961192Y-134665672D02*
X76961192Y-133931249D01*
X76961192Y-133931249D02*
X76894426Y-133797718D01*
X76894426Y-133797718D02*
X76760894Y-133730952D01*
X76760894Y-133730952D02*
X76493832Y-133730952D01*
X76493832Y-133730952D02*
X76360300Y-133797718D01*
X76961192Y-134598907D02*
X76827660Y-134665672D01*
X76827660Y-134665672D02*
X76493832Y-134665672D01*
X76493832Y-134665672D02*
X76360300Y-134598907D01*
X76360300Y-134598907D02*
X76293534Y-134465375D01*
X76293534Y-134465375D02*
X76293534Y-134331844D01*
X76293534Y-134331844D02*
X76360300Y-134198312D01*
X76360300Y-134198312D02*
X76493832Y-134131547D01*
X76493832Y-134131547D02*
X76827660Y-134131547D01*
X76827660Y-134131547D02*
X76961192Y-134064781D01*
X78229741Y-133730952D02*
X78229741Y-134665672D01*
X77628849Y-133730952D02*
X77628849Y-134465375D01*
X77628849Y-134465375D02*
X77695615Y-134598907D01*
X77695615Y-134598907D02*
X77829146Y-134665672D01*
X77829146Y-134665672D02*
X78029443Y-134665672D01*
X78029443Y-134665672D02*
X78162975Y-134598907D01*
X78162975Y-134598907D02*
X78229741Y-134532141D01*
X78697101Y-133730952D02*
X79231227Y-133730952D01*
X78897398Y-133263592D02*
X78897398Y-134465375D01*
X78897398Y-134465375D02*
X78964164Y-134598907D01*
X78964164Y-134598907D02*
X79097695Y-134665672D01*
X79097695Y-134665672D02*
X79231227Y-134665672D01*
X79698587Y-134665672D02*
X79698587Y-133263592D01*
X80299479Y-134665672D02*
X80299479Y-133931249D01*
X80299479Y-133931249D02*
X80232713Y-133797718D01*
X80232713Y-133797718D02*
X80099181Y-133730952D01*
X80099181Y-133730952D02*
X79898884Y-133730952D01*
X79898884Y-133730952D02*
X79765353Y-133797718D01*
X79765353Y-133797718D02*
X79698587Y-133864484D01*
X81033902Y-134598907D02*
X81033902Y-134665672D01*
X81033902Y-134665672D02*
X80967136Y-134799204D01*
X80967136Y-134799204D02*
X80900370Y-134865969D01*
X82636278Y-134265078D02*
X83303936Y-134265078D01*
X82502747Y-134665672D02*
X82970107Y-133263592D01*
X82970107Y-133263592D02*
X83437467Y-134665672D01*
X83904827Y-133730952D02*
X83904827Y-135133032D01*
X83904827Y-133797718D02*
X84038359Y-133730952D01*
X84038359Y-133730952D02*
X84305421Y-133730952D01*
X84305421Y-133730952D02*
X84438953Y-133797718D01*
X84438953Y-133797718D02*
X84505719Y-133864484D01*
X84505719Y-133864484D02*
X84572484Y-133998015D01*
X84572484Y-133998015D02*
X84572484Y-134398609D01*
X84572484Y-134398609D02*
X84505719Y-134532141D01*
X84505719Y-134532141D02*
X84438953Y-134598907D01*
X84438953Y-134598907D02*
X84305421Y-134665672D01*
X84305421Y-134665672D02*
X84038359Y-134665672D01*
X84038359Y-134665672D02*
X83904827Y-134598907D01*
X85173376Y-134665672D02*
X85173376Y-133730952D01*
X85173376Y-133998015D02*
X85240142Y-133864484D01*
X85240142Y-133864484D02*
X85306908Y-133797718D01*
X85306908Y-133797718D02*
X85440439Y-133730952D01*
X85440439Y-133730952D02*
X85573970Y-133730952D01*
X86041330Y-134665672D02*
X86041330Y-133730952D01*
X86041330Y-133263592D02*
X85974564Y-133330358D01*
X85974564Y-133330358D02*
X86041330Y-133397124D01*
X86041330Y-133397124D02*
X86108096Y-133330358D01*
X86108096Y-133330358D02*
X86041330Y-133263592D01*
X86041330Y-133263592D02*
X86041330Y-133397124D01*
X86909284Y-134665672D02*
X86775753Y-134598907D01*
X86775753Y-134598907D02*
X86708987Y-134465375D01*
X86708987Y-134465375D02*
X86708987Y-133263592D01*
X88444895Y-133397124D02*
X88511661Y-133330358D01*
X88511661Y-133330358D02*
X88645193Y-133263592D01*
X88645193Y-133263592D02*
X88979021Y-133263592D01*
X88979021Y-133263592D02*
X89112553Y-133330358D01*
X89112553Y-133330358D02*
X89179318Y-133397124D01*
X89179318Y-133397124D02*
X89246084Y-133530655D01*
X89246084Y-133530655D02*
X89246084Y-133664187D01*
X89246084Y-133664187D02*
X89179318Y-133864484D01*
X89179318Y-133864484D02*
X88378130Y-134665672D01*
X88378130Y-134665672D02*
X89246084Y-134665672D01*
X90114038Y-133263592D02*
X90247569Y-133263592D01*
X90247569Y-133263592D02*
X90381101Y-133330358D01*
X90381101Y-133330358D02*
X90447867Y-133397124D01*
X90447867Y-133397124D02*
X90514632Y-133530655D01*
X90514632Y-133530655D02*
X90581398Y-133797718D01*
X90581398Y-133797718D02*
X90581398Y-134131547D01*
X90581398Y-134131547D02*
X90514632Y-134398609D01*
X90514632Y-134398609D02*
X90447867Y-134532141D01*
X90447867Y-134532141D02*
X90381101Y-134598907D01*
X90381101Y-134598907D02*
X90247569Y-134665672D01*
X90247569Y-134665672D02*
X90114038Y-134665672D01*
X90114038Y-134665672D02*
X89980507Y-134598907D01*
X89980507Y-134598907D02*
X89913741Y-134532141D01*
X89913741Y-134532141D02*
X89846975Y-134398609D01*
X89846975Y-134398609D02*
X89780209Y-134131547D01*
X89780209Y-134131547D02*
X89780209Y-133797718D01*
X89780209Y-133797718D02*
X89846975Y-133530655D01*
X89846975Y-133530655D02*
X89913741Y-133397124D01*
X89913741Y-133397124D02*
X89980507Y-133330358D01*
X89980507Y-133330358D02*
X90114038Y-133263592D01*
X91115523Y-133397124D02*
X91182289Y-133330358D01*
X91182289Y-133330358D02*
X91315821Y-133263592D01*
X91315821Y-133263592D02*
X91649649Y-133263592D01*
X91649649Y-133263592D02*
X91783181Y-133330358D01*
X91783181Y-133330358D02*
X91849946Y-133397124D01*
X91849946Y-133397124D02*
X91916712Y-133530655D01*
X91916712Y-133530655D02*
X91916712Y-133664187D01*
X91916712Y-133664187D02*
X91849946Y-133864484D01*
X91849946Y-133864484D02*
X91048758Y-134665672D01*
X91048758Y-134665672D02*
X91916712Y-134665672D01*
X92784666Y-133263592D02*
X92918197Y-133263592D01*
X92918197Y-133263592D02*
X93051729Y-133330358D01*
X93051729Y-133330358D02*
X93118495Y-133397124D01*
X93118495Y-133397124D02*
X93185260Y-133530655D01*
X93185260Y-133530655D02*
X93252026Y-133797718D01*
X93252026Y-133797718D02*
X93252026Y-134131547D01*
X93252026Y-134131547D02*
X93185260Y-134398609D01*
X93185260Y-134398609D02*
X93118495Y-134532141D01*
X93118495Y-134532141D02*
X93051729Y-134598907D01*
X93051729Y-134598907D02*
X92918197Y-134665672D01*
X92918197Y-134665672D02*
X92784666Y-134665672D01*
X92784666Y-134665672D02*
X92651135Y-134598907D01*
X92651135Y-134598907D02*
X92584369Y-134532141D01*
X92584369Y-134532141D02*
X92517603Y-134398609D01*
X92517603Y-134398609D02*
X92450837Y-134131547D01*
X92450837Y-134131547D02*
X92450837Y-133797718D01*
X92450837Y-133797718D02*
X92517603Y-133530655D01*
X92517603Y-133530655D02*
X92584369Y-133397124D01*
X92584369Y-133397124D02*
X92651135Y-133330358D01*
X92651135Y-133330358D02*
X92784666Y-133263592D01*
D16*
X87079598Y-115543015D02*
X87413426Y-115654291D01*
X87413426Y-115654291D02*
X87524703Y-115765567D01*
X87524703Y-115765567D02*
X87635979Y-115988119D01*
X87635979Y-115988119D02*
X87635979Y-116321948D01*
X87635979Y-116321948D02*
X87524703Y-116544500D01*
X87524703Y-116544500D02*
X87413426Y-116655777D01*
X87413426Y-116655777D02*
X87190874Y-116767053D01*
X87190874Y-116767053D02*
X86300664Y-116767053D01*
X86300664Y-116767053D02*
X86300664Y-114430253D01*
X86300664Y-114430253D02*
X87079598Y-114430253D01*
X87079598Y-114430253D02*
X87302150Y-114541529D01*
X87302150Y-114541529D02*
X87413426Y-114652805D01*
X87413426Y-114652805D02*
X87524703Y-114875357D01*
X87524703Y-114875357D02*
X87524703Y-115097910D01*
X87524703Y-115097910D02*
X87413426Y-115320462D01*
X87413426Y-115320462D02*
X87302150Y-115431738D01*
X87302150Y-115431738D02*
X87079598Y-115543015D01*
X87079598Y-115543015D02*
X86300664Y-115543015D01*
X88971293Y-116767053D02*
X88748741Y-116655777D01*
X88748741Y-116655777D02*
X88637464Y-116544500D01*
X88637464Y-116544500D02*
X88526188Y-116321948D01*
X88526188Y-116321948D02*
X88526188Y-115654291D01*
X88526188Y-115654291D02*
X88637464Y-115431738D01*
X88637464Y-115431738D02*
X88748741Y-115320462D01*
X88748741Y-115320462D02*
X88971293Y-115209186D01*
X88971293Y-115209186D02*
X89305122Y-115209186D01*
X89305122Y-115209186D02*
X89527674Y-115320462D01*
X89527674Y-115320462D02*
X89638950Y-115431738D01*
X89638950Y-115431738D02*
X89750226Y-115654291D01*
X89750226Y-115654291D02*
X89750226Y-116321948D01*
X89750226Y-116321948D02*
X89638950Y-116544500D01*
X89638950Y-116544500D02*
X89527674Y-116655777D01*
X89527674Y-116655777D02*
X89305122Y-116767053D01*
X89305122Y-116767053D02*
X88971293Y-116767053D01*
X90529160Y-116767053D02*
X91753198Y-115209186D01*
X90529160Y-115209186D02*
X91753198Y-116767053D01*
X94312550Y-115209186D02*
X95981693Y-115209186D01*
X94980207Y-114207700D02*
X94312550Y-117212157D01*
X95759141Y-116210672D02*
X94089998Y-116210672D01*
X95091484Y-117212157D02*
X95759141Y-114207700D01*
X96760626Y-116544500D02*
X96871903Y-116655777D01*
X96871903Y-116655777D02*
X96760626Y-116767053D01*
X96760626Y-116767053D02*
X96649350Y-116655777D01*
X96649350Y-116655777D02*
X96760626Y-116544500D01*
X96760626Y-116544500D02*
X96760626Y-116767053D01*
X96760626Y-115320462D02*
X96871903Y-115431738D01*
X96871903Y-115431738D02*
X96760626Y-115543015D01*
X96760626Y-115543015D02*
X96649350Y-115431738D01*
X96649350Y-115431738D02*
X96760626Y-115320462D01*
X96760626Y-115320462D02*
X96760626Y-115543015D01*
D15*
X225518116Y-92283615D02*
X224583396Y-89479455D01*
X224583396Y-89479455D02*
X223648676Y-92283615D01*
X222313361Y-89479455D02*
X222580424Y-89612987D01*
X222580424Y-89612987D02*
X222713955Y-89746518D01*
X222713955Y-89746518D02*
X222847487Y-90013581D01*
X222847487Y-90013581D02*
X222847487Y-90814769D01*
X222847487Y-90814769D02*
X222713955Y-91081832D01*
X222713955Y-91081832D02*
X222580424Y-91215364D01*
X222580424Y-91215364D02*
X222313361Y-91348895D01*
X222313361Y-91348895D02*
X221912767Y-91348895D01*
X221912767Y-91348895D02*
X221645704Y-91215364D01*
X221645704Y-91215364D02*
X221512173Y-91081832D01*
X221512173Y-91081832D02*
X221378641Y-90814769D01*
X221378641Y-90814769D02*
X221378641Y-90013581D01*
X221378641Y-90013581D02*
X221512173Y-89746518D01*
X221512173Y-89746518D02*
X221645704Y-89612987D01*
X221645704Y-89612987D02*
X221912767Y-89479455D01*
X221912767Y-89479455D02*
X222313361Y-89479455D01*
X218975076Y-91348895D02*
X218975076Y-89479455D01*
X220176858Y-91348895D02*
X220176858Y-89880049D01*
X220176858Y-89880049D02*
X220043327Y-89612987D01*
X220043327Y-89612987D02*
X219776264Y-89479455D01*
X219776264Y-89479455D02*
X219375670Y-89479455D01*
X219375670Y-89479455D02*
X219108607Y-89612987D01*
X219108607Y-89612987D02*
X218975076Y-89746518D01*
X218040356Y-91348895D02*
X216972104Y-91348895D01*
X217639761Y-92283615D02*
X217639761Y-89880049D01*
X217639761Y-89880049D02*
X217506230Y-89612987D01*
X217506230Y-89612987D02*
X217239167Y-89479455D01*
X217239167Y-89479455D02*
X216972104Y-89479455D01*
D10*
X216820697Y-126713467D02*
X219491326Y-126713467D01*
X218156011Y-128048781D02*
X218156011Y-125378152D01*
D14*
X216736004Y-99980257D02*
X216736004Y-101148657D01*
X216736004Y-101148657D02*
X216658111Y-101382337D01*
X216658111Y-101382337D02*
X216502324Y-101538124D01*
X216502324Y-101538124D02*
X216268644Y-101616017D01*
X216268644Y-101616017D02*
X216112858Y-101616017D01*
X218215977Y-100525510D02*
X218215977Y-101616017D01*
X217514937Y-100525510D02*
X217514937Y-101382337D01*
X217514937Y-101382337D02*
X217592831Y-101538124D01*
X217592831Y-101538124D02*
X217748617Y-101616017D01*
X217748617Y-101616017D02*
X217982297Y-101616017D01*
X217982297Y-101616017D02*
X218138084Y-101538124D01*
X218138084Y-101538124D02*
X218215977Y-101460230D01*
X218994910Y-101616017D02*
X218994910Y-100525510D01*
X218994910Y-100681297D02*
X219072804Y-100603404D01*
X219072804Y-100603404D02*
X219228590Y-100525510D01*
X219228590Y-100525510D02*
X219462270Y-100525510D01*
X219462270Y-100525510D02*
X219618057Y-100603404D01*
X219618057Y-100603404D02*
X219695950Y-100759190D01*
X219695950Y-100759190D02*
X219695950Y-101616017D01*
X219695950Y-100759190D02*
X219773844Y-100603404D01*
X219773844Y-100603404D02*
X219929630Y-100525510D01*
X219929630Y-100525510D02*
X220163310Y-100525510D01*
X220163310Y-100525510D02*
X220319097Y-100603404D01*
X220319097Y-100603404D02*
X220396990Y-100759190D01*
X220396990Y-100759190D02*
X220396990Y-101616017D01*
X221175923Y-100525510D02*
X221175923Y-102161270D01*
X221175923Y-100603404D02*
X221331710Y-100525510D01*
X221331710Y-100525510D02*
X221643283Y-100525510D01*
X221643283Y-100525510D02*
X221799070Y-100603404D01*
X221799070Y-100603404D02*
X221876963Y-100681297D01*
X221876963Y-100681297D02*
X221954857Y-100837084D01*
X221954857Y-100837084D02*
X221954857Y-101304444D01*
X221954857Y-101304444D02*
X221876963Y-101460230D01*
X221876963Y-101460230D02*
X221799070Y-101538124D01*
X221799070Y-101538124D02*
X221643283Y-101616017D01*
X221643283Y-101616017D02*
X221331710Y-101616017D01*
X221331710Y-101616017D02*
X221175923Y-101538124D01*
X223279043Y-101538124D02*
X223123256Y-101616017D01*
X223123256Y-101616017D02*
X222811683Y-101616017D01*
X222811683Y-101616017D02*
X222655896Y-101538124D01*
X222655896Y-101538124D02*
X222578003Y-101382337D01*
X222578003Y-101382337D02*
X222578003Y-100759190D01*
X222578003Y-100759190D02*
X222655896Y-100603404D01*
X222655896Y-100603404D02*
X222811683Y-100525510D01*
X222811683Y-100525510D02*
X223123256Y-100525510D01*
X223123256Y-100525510D02*
X223279043Y-100603404D01*
X223279043Y-100603404D02*
X223356936Y-100759190D01*
X223356936Y-100759190D02*
X223356936Y-100914977D01*
X223356936Y-100914977D02*
X222578003Y-101070764D01*
X224057976Y-101616017D02*
X224057976Y-100525510D01*
X224057976Y-100837084D02*
X224135870Y-100681297D01*
X224135870Y-100681297D02*
X224213763Y-100603404D01*
X224213763Y-100603404D02*
X224369550Y-100525510D01*
X224369550Y-100525510D02*
X224525336Y-100525510D01*
X225070589Y-101460230D02*
X225148483Y-101538124D01*
X225148483Y-101538124D02*
X225070589Y-101616017D01*
X225070589Y-101616017D02*
X224992696Y-101538124D01*
X224992696Y-101538124D02*
X225070589Y-101460230D01*
X225070589Y-101460230D02*
X225070589Y-101616017D01*
X225070589Y-100603404D02*
X225148483Y-100681297D01*
X225148483Y-100681297D02*
X225070589Y-100759190D01*
X225070589Y-100759190D02*
X224992696Y-100681297D01*
X224992696Y-100681297D02*
X225070589Y-100603404D01*
X225070589Y-100603404D02*
X225070589Y-100759190D01*
D10*
X216820697Y-84168467D02*
X219491326Y-84168467D01*
X216820697Y-96868467D02*
X219491326Y-96868467D01*
X218156011Y-98203781D02*
X218156011Y-95533152D01*
D14*
X215298364Y-114316017D02*
X214753111Y-113537084D01*
X214363644Y-114316017D02*
X214363644Y-112680257D01*
X214363644Y-112680257D02*
X214986791Y-112680257D01*
X214986791Y-112680257D02*
X215142578Y-112758150D01*
X215142578Y-112758150D02*
X215220471Y-112836044D01*
X215220471Y-112836044D02*
X215298364Y-112991830D01*
X215298364Y-112991830D02*
X215298364Y-113225510D01*
X215298364Y-113225510D02*
X215220471Y-113381297D01*
X215220471Y-113381297D02*
X215142578Y-113459190D01*
X215142578Y-113459190D02*
X214986791Y-113537084D01*
X214986791Y-113537084D02*
X214363644Y-113537084D01*
X215999404Y-114316017D02*
X215999404Y-113225510D01*
X215999404Y-113381297D02*
X216077298Y-113303404D01*
X216077298Y-113303404D02*
X216233084Y-113225510D01*
X216233084Y-113225510D02*
X216466764Y-113225510D01*
X216466764Y-113225510D02*
X216622551Y-113303404D01*
X216622551Y-113303404D02*
X216700444Y-113459190D01*
X216700444Y-113459190D02*
X216700444Y-114316017D01*
X216700444Y-113459190D02*
X216778338Y-113303404D01*
X216778338Y-113303404D02*
X216934124Y-113225510D01*
X216934124Y-113225510D02*
X217167804Y-113225510D01*
X217167804Y-113225510D02*
X217323591Y-113303404D01*
X217323591Y-113303404D02*
X217401484Y-113459190D01*
X217401484Y-113459190D02*
X217401484Y-114316017D01*
X218803564Y-114238124D02*
X218647777Y-114316017D01*
X218647777Y-114316017D02*
X218336204Y-114316017D01*
X218336204Y-114316017D02*
X218180417Y-114238124D01*
X218180417Y-114238124D02*
X218102524Y-114082337D01*
X218102524Y-114082337D02*
X218102524Y-113459190D01*
X218102524Y-113459190D02*
X218180417Y-113303404D01*
X218180417Y-113303404D02*
X218336204Y-113225510D01*
X218336204Y-113225510D02*
X218647777Y-113225510D01*
X218647777Y-113225510D02*
X218803564Y-113303404D01*
X218803564Y-113303404D02*
X218881457Y-113459190D01*
X218881457Y-113459190D02*
X218881457Y-113614977D01*
X218881457Y-113614977D02*
X218102524Y-113770764D01*
X220283537Y-114316017D02*
X220283537Y-113459190D01*
X220283537Y-113459190D02*
X220205644Y-113303404D01*
X220205644Y-113303404D02*
X220049857Y-113225510D01*
X220049857Y-113225510D02*
X219738284Y-113225510D01*
X219738284Y-113225510D02*
X219582497Y-113303404D01*
X220283537Y-114238124D02*
X220127751Y-114316017D01*
X220127751Y-114316017D02*
X219738284Y-114316017D01*
X219738284Y-114316017D02*
X219582497Y-114238124D01*
X219582497Y-114238124D02*
X219504604Y-114082337D01*
X219504604Y-114082337D02*
X219504604Y-113926550D01*
X219504604Y-113926550D02*
X219582497Y-113770764D01*
X219582497Y-113770764D02*
X219738284Y-113692870D01*
X219738284Y-113692870D02*
X220127751Y-113692870D01*
X220127751Y-113692870D02*
X220283537Y-113614977D01*
X220984577Y-114238124D02*
X221140364Y-114316017D01*
X221140364Y-114316017D02*
X221451937Y-114316017D01*
X221451937Y-114316017D02*
X221607724Y-114238124D01*
X221607724Y-114238124D02*
X221685617Y-114082337D01*
X221685617Y-114082337D02*
X221685617Y-114004444D01*
X221685617Y-114004444D02*
X221607724Y-113848657D01*
X221607724Y-113848657D02*
X221451937Y-113770764D01*
X221451937Y-113770764D02*
X221218257Y-113770764D01*
X221218257Y-113770764D02*
X221062470Y-113692870D01*
X221062470Y-113692870D02*
X220984577Y-113537084D01*
X220984577Y-113537084D02*
X220984577Y-113459190D01*
X220984577Y-113459190D02*
X221062470Y-113303404D01*
X221062470Y-113303404D02*
X221218257Y-113225510D01*
X221218257Y-113225510D02*
X221451937Y-113225510D01*
X221451937Y-113225510D02*
X221607724Y-113303404D01*
X222386657Y-114160230D02*
X222464551Y-114238124D01*
X222464551Y-114238124D02*
X222386657Y-114316017D01*
X222386657Y-114316017D02*
X222308764Y-114238124D01*
X222308764Y-114238124D02*
X222386657Y-114160230D01*
X222386657Y-114160230D02*
X222386657Y-114316017D01*
X222386657Y-113303404D02*
X222464551Y-113381297D01*
X222464551Y-113381297D02*
X222386657Y-113459190D01*
X222386657Y-113459190D02*
X222308764Y-113381297D01*
X222308764Y-113381297D02*
X222386657Y-113303404D01*
X222386657Y-113303404D02*
X222386657Y-113459190D01*
D17*
X224730372Y-77588797D02*
X225197732Y-78256454D01*
X225531561Y-77588797D02*
X225531561Y-78990877D01*
X225531561Y-78990877D02*
X224997435Y-78990877D01*
X224997435Y-78990877D02*
X224863904Y-78924111D01*
X224863904Y-78924111D02*
X224797138Y-78857345D01*
X224797138Y-78857345D02*
X224730372Y-78723814D01*
X224730372Y-78723814D02*
X224730372Y-78523517D01*
X224730372Y-78523517D02*
X224797138Y-78389985D01*
X224797138Y-78389985D02*
X224863904Y-78323220D01*
X224863904Y-78323220D02*
X224997435Y-78256454D01*
X224997435Y-78256454D02*
X225531561Y-78256454D01*
X223595355Y-77655563D02*
X223728887Y-77588797D01*
X223728887Y-77588797D02*
X223995950Y-77588797D01*
X223995950Y-77588797D02*
X224129481Y-77655563D01*
X224129481Y-77655563D02*
X224196247Y-77789094D01*
X224196247Y-77789094D02*
X224196247Y-78323220D01*
X224196247Y-78323220D02*
X224129481Y-78456751D01*
X224129481Y-78456751D02*
X223995950Y-78523517D01*
X223995950Y-78523517D02*
X223728887Y-78523517D01*
X223728887Y-78523517D02*
X223595355Y-78456751D01*
X223595355Y-78456751D02*
X223528590Y-78323220D01*
X223528590Y-78323220D02*
X223528590Y-78189688D01*
X223528590Y-78189688D02*
X224196247Y-78056157D01*
X223061229Y-78523517D02*
X222727401Y-77588797D01*
X222727401Y-77588797D02*
X222393572Y-78523517D01*
X220056773Y-77588797D02*
X220857962Y-77588797D01*
X220457367Y-77588797D02*
X220457367Y-78990877D01*
X220457367Y-78990877D02*
X220590899Y-78790580D01*
X220590899Y-78790580D02*
X220724430Y-78657048D01*
X220724430Y-78657048D02*
X220857962Y-78590283D01*
X219455882Y-77722328D02*
X219389116Y-77655563D01*
X219389116Y-77655563D02*
X219455882Y-77588797D01*
X219455882Y-77588797D02*
X219522648Y-77655563D01*
X219522648Y-77655563D02*
X219455882Y-77722328D01*
X219455882Y-77722328D02*
X219455882Y-77588797D01*
X218854991Y-78857345D02*
X218788225Y-78924111D01*
X218788225Y-78924111D02*
X218654694Y-78990877D01*
X218654694Y-78990877D02*
X218320865Y-78990877D01*
X218320865Y-78990877D02*
X218187334Y-78924111D01*
X218187334Y-78924111D02*
X218120568Y-78857345D01*
X218120568Y-78857345D02*
X218053802Y-78723814D01*
X218053802Y-78723814D02*
X218053802Y-78590283D01*
X218053802Y-78590283D02*
X218120568Y-78389985D01*
X218120568Y-78389985D02*
X218921756Y-77588797D01*
X218921756Y-77588797D02*
X218053802Y-77588797D01*
X225130967Y-76733607D02*
X225130967Y-75732121D01*
X225130967Y-75732121D02*
X225197732Y-75531824D01*
X225197732Y-75531824D02*
X225331264Y-75398293D01*
X225331264Y-75398293D02*
X225531561Y-75331527D01*
X225531561Y-75331527D02*
X225665092Y-75331527D01*
X224463310Y-75465058D02*
X224396544Y-75398293D01*
X224396544Y-75398293D02*
X224463310Y-75331527D01*
X224463310Y-75331527D02*
X224530076Y-75398293D01*
X224530076Y-75398293D02*
X224463310Y-75465058D01*
X224463310Y-75465058D02*
X224463310Y-75331527D01*
X222794168Y-75398293D02*
X222593871Y-75331527D01*
X222593871Y-75331527D02*
X222260042Y-75331527D01*
X222260042Y-75331527D02*
X222126511Y-75398293D01*
X222126511Y-75398293D02*
X222059745Y-75465058D01*
X222059745Y-75465058D02*
X221992979Y-75598590D01*
X221992979Y-75598590D02*
X221992979Y-75732121D01*
X221992979Y-75732121D02*
X222059745Y-75865653D01*
X222059745Y-75865653D02*
X222126511Y-75932418D01*
X222126511Y-75932418D02*
X222260042Y-75999184D01*
X222260042Y-75999184D02*
X222527105Y-76065950D01*
X222527105Y-76065950D02*
X222660636Y-76132715D01*
X222660636Y-76132715D02*
X222727402Y-76199481D01*
X222727402Y-76199481D02*
X222794168Y-76333013D01*
X222794168Y-76333013D02*
X222794168Y-76466544D01*
X222794168Y-76466544D02*
X222727402Y-76600075D01*
X222727402Y-76600075D02*
X222660636Y-76666841D01*
X222660636Y-76666841D02*
X222527105Y-76733607D01*
X222527105Y-76733607D02*
X222193276Y-76733607D01*
X222193276Y-76733607D02*
X221992979Y-76666841D01*
X221592385Y-76266247D02*
X221058259Y-76266247D01*
X221392088Y-76733607D02*
X221392088Y-75531824D01*
X221392088Y-75531824D02*
X221325322Y-75398293D01*
X221325322Y-75398293D02*
X221191791Y-75331527D01*
X221191791Y-75331527D02*
X221058259Y-75331527D01*
X219990008Y-75331527D02*
X219990008Y-76065950D01*
X219990008Y-76065950D02*
X220056773Y-76199481D01*
X220056773Y-76199481D02*
X220190305Y-76266247D01*
X220190305Y-76266247D02*
X220457368Y-76266247D01*
X220457368Y-76266247D02*
X220590899Y-76199481D01*
X219990008Y-75398293D02*
X220123539Y-75331527D01*
X220123539Y-75331527D02*
X220457368Y-75331527D01*
X220457368Y-75331527D02*
X220590899Y-75398293D01*
X220590899Y-75398293D02*
X220657665Y-75531824D01*
X220657665Y-75531824D02*
X220657665Y-75665355D01*
X220657665Y-75665355D02*
X220590899Y-75798887D01*
X220590899Y-75798887D02*
X220457368Y-75865653D01*
X220457368Y-75865653D02*
X220123539Y-75865653D01*
X220123539Y-75865653D02*
X219990008Y-75932418D01*
X218721459Y-76266247D02*
X218721459Y-75331527D01*
X219322350Y-76266247D02*
X219322350Y-75531824D01*
X219322350Y-75531824D02*
X219255584Y-75398293D01*
X219255584Y-75398293D02*
X219122053Y-75331527D01*
X219122053Y-75331527D02*
X218921756Y-75331527D01*
X218921756Y-75331527D02*
X218788224Y-75398293D01*
X218788224Y-75398293D02*
X218721459Y-75465058D01*
X218254098Y-76266247D02*
X217719972Y-76266247D01*
X218053801Y-76733607D02*
X218053801Y-75531824D01*
X218053801Y-75531824D02*
X217987035Y-75398293D01*
X217987035Y-75398293D02*
X217853504Y-75331527D01*
X217853504Y-75331527D02*
X217719972Y-75331527D01*
X217252612Y-75331527D02*
X217252612Y-76733607D01*
X216651721Y-75331527D02*
X216651721Y-76065950D01*
X216651721Y-76065950D02*
X216718486Y-76199481D01*
X216718486Y-76199481D02*
X216852018Y-76266247D01*
X216852018Y-76266247D02*
X217052315Y-76266247D01*
X217052315Y-76266247D02*
X217185846Y-76199481D01*
X217185846Y-76199481D02*
X217252612Y-76132715D01*
X215917297Y-75398293D02*
X215917297Y-75331527D01*
X215917297Y-75331527D02*
X215984063Y-75197995D01*
X215984063Y-75197995D02*
X216050829Y-75131230D01*
X214314921Y-75732121D02*
X213647264Y-75732121D01*
X214448452Y-75331527D02*
X213981092Y-76733607D01*
X213981092Y-76733607D02*
X213513732Y-75331527D01*
X213046372Y-76266247D02*
X213046372Y-74864167D01*
X213046372Y-76199481D02*
X212912841Y-76266247D01*
X212912841Y-76266247D02*
X212645778Y-76266247D01*
X212645778Y-76266247D02*
X212512246Y-76199481D01*
X212512246Y-76199481D02*
X212445481Y-76132715D01*
X212445481Y-76132715D02*
X212378715Y-75999184D01*
X212378715Y-75999184D02*
X212378715Y-75598590D01*
X212378715Y-75598590D02*
X212445481Y-75465058D01*
X212445481Y-75465058D02*
X212512246Y-75398293D01*
X212512246Y-75398293D02*
X212645778Y-75331527D01*
X212645778Y-75331527D02*
X212912841Y-75331527D01*
X212912841Y-75331527D02*
X213046372Y-75398293D01*
X211777823Y-75331527D02*
X211777823Y-76266247D01*
X211777823Y-75999184D02*
X211711057Y-76132715D01*
X211711057Y-76132715D02*
X211644292Y-76199481D01*
X211644292Y-76199481D02*
X211510760Y-76266247D01*
X211510760Y-76266247D02*
X211377229Y-76266247D01*
X210909869Y-75331527D02*
X210909869Y-76266247D01*
X210909869Y-76733607D02*
X210976635Y-76666841D01*
X210976635Y-76666841D02*
X210909869Y-76600075D01*
X210909869Y-76600075D02*
X210843103Y-76666841D01*
X210843103Y-76666841D02*
X210909869Y-76733607D01*
X210909869Y-76733607D02*
X210909869Y-76600075D01*
X210041915Y-75331527D02*
X210175446Y-75398293D01*
X210175446Y-75398293D02*
X210242212Y-75531824D01*
X210242212Y-75531824D02*
X210242212Y-76733607D01*
X208506304Y-76600075D02*
X208439538Y-76666841D01*
X208439538Y-76666841D02*
X208306007Y-76733607D01*
X208306007Y-76733607D02*
X207972178Y-76733607D01*
X207972178Y-76733607D02*
X207838647Y-76666841D01*
X207838647Y-76666841D02*
X207771881Y-76600075D01*
X207771881Y-76600075D02*
X207705115Y-76466544D01*
X207705115Y-76466544D02*
X207705115Y-76333013D01*
X207705115Y-76333013D02*
X207771881Y-76132715D01*
X207771881Y-76132715D02*
X208573069Y-75331527D01*
X208573069Y-75331527D02*
X207705115Y-75331527D01*
X206837161Y-76733607D02*
X206703630Y-76733607D01*
X206703630Y-76733607D02*
X206570098Y-76666841D01*
X206570098Y-76666841D02*
X206503333Y-76600075D01*
X206503333Y-76600075D02*
X206436567Y-76466544D01*
X206436567Y-76466544D02*
X206369801Y-76199481D01*
X206369801Y-76199481D02*
X206369801Y-75865653D01*
X206369801Y-75865653D02*
X206436567Y-75598590D01*
X206436567Y-75598590D02*
X206503333Y-75465058D01*
X206503333Y-75465058D02*
X206570098Y-75398293D01*
X206570098Y-75398293D02*
X206703630Y-75331527D01*
X206703630Y-75331527D02*
X206837161Y-75331527D01*
X206837161Y-75331527D02*
X206970693Y-75398293D01*
X206970693Y-75398293D02*
X207037458Y-75465058D01*
X207037458Y-75465058D02*
X207104224Y-75598590D01*
X207104224Y-75598590D02*
X207170990Y-75865653D01*
X207170990Y-75865653D02*
X207170990Y-76199481D01*
X207170990Y-76199481D02*
X207104224Y-76466544D01*
X207104224Y-76466544D02*
X207037458Y-76600075D01*
X207037458Y-76600075D02*
X206970693Y-76666841D01*
X206970693Y-76666841D02*
X206837161Y-76733607D01*
X205835676Y-76600075D02*
X205768910Y-76666841D01*
X205768910Y-76666841D02*
X205635379Y-76733607D01*
X205635379Y-76733607D02*
X205301550Y-76733607D01*
X205301550Y-76733607D02*
X205168019Y-76666841D01*
X205168019Y-76666841D02*
X205101253Y-76600075D01*
X205101253Y-76600075D02*
X205034487Y-76466544D01*
X205034487Y-76466544D02*
X205034487Y-76333013D01*
X205034487Y-76333013D02*
X205101253Y-76132715D01*
X205101253Y-76132715D02*
X205902441Y-75331527D01*
X205902441Y-75331527D02*
X205034487Y-75331527D01*
X204166533Y-76733607D02*
X204033002Y-76733607D01*
X204033002Y-76733607D02*
X203899470Y-76666841D01*
X203899470Y-76666841D02*
X203832705Y-76600075D01*
X203832705Y-76600075D02*
X203765939Y-76466544D01*
X203765939Y-76466544D02*
X203699173Y-76199481D01*
X203699173Y-76199481D02*
X203699173Y-75865653D01*
X203699173Y-75865653D02*
X203765939Y-75598590D01*
X203765939Y-75598590D02*
X203832705Y-75465058D01*
X203832705Y-75465058D02*
X203899470Y-75398293D01*
X203899470Y-75398293D02*
X204033002Y-75331527D01*
X204033002Y-75331527D02*
X204166533Y-75331527D01*
X204166533Y-75331527D02*
X204300065Y-75398293D01*
X204300065Y-75398293D02*
X204366830Y-75465058D01*
X204366830Y-75465058D02*
X204433596Y-75598590D01*
X204433596Y-75598590D02*
X204500362Y-75865653D01*
X204500362Y-75865653D02*
X204500362Y-76199481D01*
X204500362Y-76199481D02*
X204433596Y-76466544D01*
X204433596Y-76466544D02*
X204366830Y-76600075D01*
X204366830Y-76600075D02*
X204300065Y-76666841D01*
X204300065Y-76666841D02*
X204166533Y-76733607D01*
D15*
X72977258Y-119310330D02*
X73911978Y-122114490D01*
X73911978Y-122114490D02*
X74846698Y-119310330D01*
X76182013Y-122114490D02*
X75914950Y-121980959D01*
X75914950Y-121980959D02*
X75781419Y-121847427D01*
X75781419Y-121847427D02*
X75647887Y-121580364D01*
X75647887Y-121580364D02*
X75647887Y-120779176D01*
X75647887Y-120779176D02*
X75781419Y-120512113D01*
X75781419Y-120512113D02*
X75914950Y-120378581D01*
X75914950Y-120378581D02*
X76182013Y-120245050D01*
X76182013Y-120245050D02*
X76582607Y-120245050D01*
X76582607Y-120245050D02*
X76849670Y-120378581D01*
X76849670Y-120378581D02*
X76983202Y-120512113D01*
X76983202Y-120512113D02*
X77116733Y-120779176D01*
X77116733Y-120779176D02*
X77116733Y-121580364D01*
X77116733Y-121580364D02*
X76983202Y-121847427D01*
X76983202Y-121847427D02*
X76849670Y-121980959D01*
X76849670Y-121980959D02*
X76582607Y-122114490D01*
X76582607Y-122114490D02*
X76182013Y-122114490D01*
X79520299Y-120245050D02*
X79520299Y-122114490D01*
X78318516Y-120245050D02*
X78318516Y-121713896D01*
X78318516Y-121713896D02*
X78452047Y-121980959D01*
X78452047Y-121980959D02*
X78719110Y-122114490D01*
X78719110Y-122114490D02*
X79119704Y-122114490D01*
X79119704Y-122114490D02*
X79386767Y-121980959D01*
X79386767Y-121980959D02*
X79520299Y-121847427D01*
X80455018Y-120245050D02*
X81523270Y-120245050D01*
X80855613Y-119310330D02*
X80855613Y-121713896D01*
X80855613Y-121713896D02*
X80989144Y-121980959D01*
X80989144Y-121980959D02*
X81256207Y-122114490D01*
X81256207Y-122114490D02*
X81523270Y-122114490D01*
D16*
X183679363Y-129856946D02*
X182900430Y-127520146D01*
X182900430Y-127520146D02*
X182121496Y-129856946D01*
X180341078Y-127520146D02*
X180341078Y-128744184D01*
X180341078Y-128744184D02*
X180452354Y-128966737D01*
X180452354Y-128966737D02*
X180674906Y-129078013D01*
X180674906Y-129078013D02*
X181120011Y-129078013D01*
X181120011Y-129078013D02*
X181342564Y-128966737D01*
X180341078Y-127631423D02*
X180563630Y-127520146D01*
X180563630Y-127520146D02*
X181120011Y-127520146D01*
X181120011Y-127520146D02*
X181342564Y-127631423D01*
X181342564Y-127631423D02*
X181453840Y-127853975D01*
X181453840Y-127853975D02*
X181453840Y-128076527D01*
X181453840Y-128076527D02*
X181342564Y-128299080D01*
X181342564Y-128299080D02*
X181120011Y-128410356D01*
X181120011Y-128410356D02*
X180563630Y-128410356D01*
X180563630Y-128410356D02*
X180341078Y-128521632D01*
X178894487Y-127520146D02*
X179117039Y-127631423D01*
X179117039Y-127631423D02*
X179228316Y-127853975D01*
X179228316Y-127853975D02*
X179228316Y-129856946D01*
X177002792Y-129078013D02*
X177002792Y-127520146D01*
X178004278Y-129078013D02*
X178004278Y-127853975D01*
X178004278Y-127853975D02*
X177893001Y-127631423D01*
X177893001Y-127631423D02*
X177670449Y-127520146D01*
X177670449Y-127520146D02*
X177336620Y-127520146D01*
X177336620Y-127520146D02*
X177114068Y-127631423D01*
X177114068Y-127631423D02*
X177002792Y-127742699D01*
X174999820Y-127631423D02*
X175222372Y-127520146D01*
X175222372Y-127520146D02*
X175667477Y-127520146D01*
X175667477Y-127520146D02*
X175890030Y-127631423D01*
X175890030Y-127631423D02*
X176001306Y-127853975D01*
X176001306Y-127853975D02*
X176001306Y-128744184D01*
X176001306Y-128744184D02*
X175890030Y-128966737D01*
X175890030Y-128966737D02*
X175667477Y-129078013D01*
X175667477Y-129078013D02*
X175222372Y-129078013D01*
X175222372Y-129078013D02*
X174999820Y-128966737D01*
X174999820Y-128966737D02*
X174888544Y-128744184D01*
X174888544Y-128744184D02*
X174888544Y-128521632D01*
X174888544Y-128521632D02*
X176001306Y-128299080D01*
X173998335Y-127631423D02*
X173775782Y-127520146D01*
X173775782Y-127520146D02*
X173330678Y-127520146D01*
X173330678Y-127520146D02*
X173108125Y-127631423D01*
X173108125Y-127631423D02*
X172996849Y-127853975D01*
X172996849Y-127853975D02*
X172996849Y-127965251D01*
X172996849Y-127965251D02*
X173108125Y-128187803D01*
X173108125Y-128187803D02*
X173330678Y-128299080D01*
X173330678Y-128299080D02*
X173664506Y-128299080D01*
X173664506Y-128299080D02*
X173887059Y-128410356D01*
X173887059Y-128410356D02*
X173998335Y-128632908D01*
X173998335Y-128632908D02*
X173998335Y-128744184D01*
X173998335Y-128744184D02*
X173887059Y-128966737D01*
X173887059Y-128966737D02*
X173664506Y-129078013D01*
X173664506Y-129078013D02*
X173330678Y-129078013D01*
X173330678Y-129078013D02*
X173108125Y-128966737D01*
X171995364Y-127742699D02*
X171884087Y-127631423D01*
X171884087Y-127631423D02*
X171995364Y-127520146D01*
X171995364Y-127520146D02*
X172106640Y-127631423D01*
X172106640Y-127631423D02*
X171995364Y-127742699D01*
X171995364Y-127742699D02*
X171995364Y-127520146D01*
X171995364Y-128966737D02*
X171884087Y-128855461D01*
X171884087Y-128855461D02*
X171995364Y-128744184D01*
X171995364Y-128744184D02*
X172106640Y-128855461D01*
X172106640Y-128855461D02*
X171995364Y-128966737D01*
X171995364Y-128966737D02*
X171995364Y-128744184D01*
D15*
X210004521Y-140293842D02*
X209069801Y-140293842D01*
X208669207Y-138824996D02*
X210004521Y-138824996D01*
X210004521Y-138824996D02*
X210004521Y-141629156D01*
X210004521Y-141629156D02*
X208669207Y-141629156D01*
X207467424Y-138824996D02*
X207467424Y-141629156D01*
X207467424Y-141629156D02*
X205865047Y-138824996D01*
X205865047Y-138824996D02*
X205865047Y-141629156D01*
X203060888Y-141495625D02*
X203327951Y-141629156D01*
X203327951Y-141629156D02*
X203728545Y-141629156D01*
X203728545Y-141629156D02*
X204129139Y-141495625D01*
X204129139Y-141495625D02*
X204396202Y-141228562D01*
X204396202Y-141228562D02*
X204529733Y-140961499D01*
X204529733Y-140961499D02*
X204663265Y-140427373D01*
X204663265Y-140427373D02*
X204663265Y-140026779D01*
X204663265Y-140026779D02*
X204529733Y-139492653D01*
X204529733Y-139492653D02*
X204396202Y-139225590D01*
X204396202Y-139225590D02*
X204129139Y-138958528D01*
X204129139Y-138958528D02*
X203728545Y-138824996D01*
X203728545Y-138824996D02*
X203461482Y-138824996D01*
X203461482Y-138824996D02*
X203060888Y-138958528D01*
X203060888Y-138958528D02*
X202927356Y-139092059D01*
X202927356Y-139092059D02*
X202927356Y-140026779D01*
X202927356Y-140026779D02*
X203461482Y-140026779D01*
X201859105Y-138958528D02*
X201458511Y-138824996D01*
X201458511Y-138824996D02*
X200790853Y-138824996D01*
X200790853Y-138824996D02*
X200523791Y-138958528D01*
X200523791Y-138958528D02*
X200390259Y-139092059D01*
X200390259Y-139092059D02*
X200256728Y-139359122D01*
X200256728Y-139359122D02*
X200256728Y-139626185D01*
X200256728Y-139626185D02*
X200390259Y-139893248D01*
X200390259Y-139893248D02*
X200523791Y-140026779D01*
X200523791Y-140026779D02*
X200790853Y-140160310D01*
X200790853Y-140160310D02*
X201324979Y-140293842D01*
X201324979Y-140293842D02*
X201592042Y-140427373D01*
X201592042Y-140427373D02*
X201725573Y-140560905D01*
X201725573Y-140560905D02*
X201859105Y-140827968D01*
X201859105Y-140827968D02*
X201859105Y-141095030D01*
X201859105Y-141095030D02*
X201725573Y-141362093D01*
X201725573Y-141362093D02*
X201592042Y-141495625D01*
X201592042Y-141495625D02*
X201324979Y-141629156D01*
X201324979Y-141629156D02*
X200657322Y-141629156D01*
X200657322Y-141629156D02*
X200256728Y-141495625D01*
X199188476Y-141362093D02*
X199054944Y-141495625D01*
X199054944Y-141495625D02*
X198787882Y-141629156D01*
X198787882Y-141629156D02*
X198120224Y-141629156D01*
X198120224Y-141629156D02*
X197853162Y-141495625D01*
X197853162Y-141495625D02*
X197719630Y-141362093D01*
X197719630Y-141362093D02*
X197586099Y-141095030D01*
X197586099Y-141095030D02*
X197586099Y-140827968D01*
X197586099Y-140827968D02*
X197719630Y-140427373D01*
X197719630Y-140427373D02*
X199322007Y-138824996D01*
X199322007Y-138824996D02*
X197586099Y-138824996D01*
X196517847Y-141362093D02*
X196384315Y-141495625D01*
X196384315Y-141495625D02*
X196117253Y-141629156D01*
X196117253Y-141629156D02*
X195449595Y-141629156D01*
X195449595Y-141629156D02*
X195182533Y-141495625D01*
X195182533Y-141495625D02*
X195049001Y-141362093D01*
X195049001Y-141362093D02*
X194915470Y-141095030D01*
X194915470Y-141095030D02*
X194915470Y-140827968D01*
X194915470Y-140827968D02*
X195049001Y-140427373D01*
X195049001Y-140427373D02*
X196651378Y-138824996D01*
X196651378Y-138824996D02*
X194915470Y-138824996D01*
X209069801Y-135779301D02*
X208669207Y-135645769D01*
X208669207Y-135645769D02*
X208535676Y-135512238D01*
X208535676Y-135512238D02*
X208402144Y-135245175D01*
X208402144Y-135245175D02*
X208402144Y-134844581D01*
X208402144Y-134844581D02*
X208535676Y-134577518D01*
X208535676Y-134577518D02*
X208669207Y-134443987D01*
X208669207Y-134443987D02*
X208936270Y-134310455D01*
X208936270Y-134310455D02*
X210004521Y-134310455D01*
X210004521Y-134310455D02*
X210004521Y-137114615D01*
X210004521Y-137114615D02*
X209069801Y-137114615D01*
X209069801Y-137114615D02*
X208802739Y-136981084D01*
X208802739Y-136981084D02*
X208669207Y-136847552D01*
X208669207Y-136847552D02*
X208535676Y-136580489D01*
X208535676Y-136580489D02*
X208535676Y-136313427D01*
X208535676Y-136313427D02*
X208669207Y-136046364D01*
X208669207Y-136046364D02*
X208802739Y-135912832D01*
X208802739Y-135912832D02*
X209069801Y-135779301D01*
X209069801Y-135779301D02*
X210004521Y-135779301D01*
X206799767Y-134310455D02*
X207066830Y-134443987D01*
X207066830Y-134443987D02*
X207200361Y-134711049D01*
X207200361Y-134711049D02*
X207200361Y-137114615D01*
X204529733Y-134310455D02*
X204529733Y-135779301D01*
X204529733Y-135779301D02*
X204663264Y-136046364D01*
X204663264Y-136046364D02*
X204930327Y-136179895D01*
X204930327Y-136179895D02*
X205464453Y-136179895D01*
X205464453Y-136179895D02*
X205731515Y-136046364D01*
X204529733Y-134443987D02*
X204796795Y-134310455D01*
X204796795Y-134310455D02*
X205464453Y-134310455D01*
X205464453Y-134310455D02*
X205731515Y-134443987D01*
X205731515Y-134443987D02*
X205865047Y-134711049D01*
X205865047Y-134711049D02*
X205865047Y-134978112D01*
X205865047Y-134978112D02*
X205731515Y-135245175D01*
X205731515Y-135245175D02*
X205464453Y-135378707D01*
X205464453Y-135378707D02*
X204796795Y-135378707D01*
X204796795Y-135378707D02*
X204529733Y-135512238D01*
X201992636Y-134443987D02*
X202259698Y-134310455D01*
X202259698Y-134310455D02*
X202793824Y-134310455D01*
X202793824Y-134310455D02*
X203060887Y-134443987D01*
X203060887Y-134443987D02*
X203194418Y-134577518D01*
X203194418Y-134577518D02*
X203327950Y-134844581D01*
X203327950Y-134844581D02*
X203327950Y-135645769D01*
X203327950Y-135645769D02*
X203194418Y-135912832D01*
X203194418Y-135912832D02*
X203060887Y-136046364D01*
X203060887Y-136046364D02*
X202793824Y-136179895D01*
X202793824Y-136179895D02*
X202259698Y-136179895D01*
X202259698Y-136179895D02*
X201992636Y-136046364D01*
X200790852Y-134310455D02*
X200790852Y-137114615D01*
X200523790Y-135378707D02*
X199722601Y-134310455D01*
X199722601Y-136179895D02*
X200790852Y-135111644D01*
X195449595Y-135779301D02*
X195049001Y-135645769D01*
X195049001Y-135645769D02*
X194915470Y-135512238D01*
X194915470Y-135512238D02*
X194781938Y-135245175D01*
X194781938Y-135245175D02*
X194781938Y-134844581D01*
X194781938Y-134844581D02*
X194915470Y-134577518D01*
X194915470Y-134577518D02*
X195049001Y-134443987D01*
X195049001Y-134443987D02*
X195316064Y-134310455D01*
X195316064Y-134310455D02*
X196384315Y-134310455D01*
X196384315Y-134310455D02*
X196384315Y-137114615D01*
X196384315Y-137114615D02*
X195449595Y-137114615D01*
X195449595Y-137114615D02*
X195182533Y-136981084D01*
X195182533Y-136981084D02*
X195049001Y-136847552D01*
X195049001Y-136847552D02*
X194915470Y-136580489D01*
X194915470Y-136580489D02*
X194915470Y-136313427D01*
X194915470Y-136313427D02*
X195049001Y-136046364D01*
X195049001Y-136046364D02*
X195182533Y-135912832D01*
X195182533Y-135912832D02*
X195449595Y-135779301D01*
X195449595Y-135779301D02*
X196384315Y-135779301D01*
X193179561Y-134310455D02*
X193446624Y-134443987D01*
X193446624Y-134443987D02*
X193580155Y-134577518D01*
X193580155Y-134577518D02*
X193713687Y-134844581D01*
X193713687Y-134844581D02*
X193713687Y-135645769D01*
X193713687Y-135645769D02*
X193580155Y-135912832D01*
X193580155Y-135912832D02*
X193446624Y-136046364D01*
X193446624Y-136046364D02*
X193179561Y-136179895D01*
X193179561Y-136179895D02*
X192778967Y-136179895D01*
X192778967Y-136179895D02*
X192511904Y-136046364D01*
X192511904Y-136046364D02*
X192378373Y-135912832D01*
X192378373Y-135912832D02*
X192244841Y-135645769D01*
X192244841Y-135645769D02*
X192244841Y-134844581D01*
X192244841Y-134844581D02*
X192378373Y-134577518D01*
X192378373Y-134577518D02*
X192511904Y-134443987D01*
X192511904Y-134443987D02*
X192778967Y-134310455D01*
X192778967Y-134310455D02*
X193179561Y-134310455D01*
X191310121Y-134310455D02*
X189841276Y-136179895D01*
X191310121Y-136179895D02*
X189841276Y-134310455D01*
D10*
X216820697Y-114648467D02*
X219491326Y-114648467D01*
D14*
X208952555Y-129971182D02*
X208952555Y-131606942D01*
X208952555Y-131606942D02*
X208329408Y-131606942D01*
X208329408Y-131606942D02*
X208173622Y-131529049D01*
X208173622Y-131529049D02*
X208095728Y-131451156D01*
X208095728Y-131451156D02*
X208017835Y-131295369D01*
X208017835Y-131295369D02*
X208017835Y-131061689D01*
X208017835Y-131061689D02*
X208095728Y-130905902D01*
X208095728Y-130905902D02*
X208173622Y-130828009D01*
X208173622Y-130828009D02*
X208329408Y-130750116D01*
X208329408Y-130750116D02*
X208952555Y-130750116D01*
X207083115Y-129971182D02*
X207238902Y-130049076D01*
X207238902Y-130049076D02*
X207316795Y-130126969D01*
X207316795Y-130126969D02*
X207394688Y-130282756D01*
X207394688Y-130282756D02*
X207394688Y-130750116D01*
X207394688Y-130750116D02*
X207316795Y-130905902D01*
X207316795Y-130905902D02*
X207238902Y-130983796D01*
X207238902Y-130983796D02*
X207083115Y-131061689D01*
X207083115Y-131061689D02*
X206849435Y-131061689D01*
X206849435Y-131061689D02*
X206693648Y-130983796D01*
X206693648Y-130983796D02*
X206615755Y-130905902D01*
X206615755Y-130905902D02*
X206537862Y-130750116D01*
X206537862Y-130750116D02*
X206537862Y-130282756D01*
X206537862Y-130282756D02*
X206615755Y-130126969D01*
X206615755Y-130126969D02*
X206693648Y-130049076D01*
X206693648Y-130049076D02*
X206849435Y-129971182D01*
X206849435Y-129971182D02*
X207083115Y-129971182D01*
X206070502Y-131061689D02*
X205447355Y-131061689D01*
X205836822Y-131606942D02*
X205836822Y-130204862D01*
X205836822Y-130204862D02*
X205758929Y-130049076D01*
X205758929Y-130049076D02*
X205603142Y-129971182D01*
X205603142Y-129971182D02*
X205447355Y-129971182D01*
X204278955Y-130049076D02*
X204434742Y-129971182D01*
X204434742Y-129971182D02*
X204746315Y-129971182D01*
X204746315Y-129971182D02*
X204902102Y-130049076D01*
X204902102Y-130049076D02*
X204979995Y-130204862D01*
X204979995Y-130204862D02*
X204979995Y-130828009D01*
X204979995Y-130828009D02*
X204902102Y-130983796D01*
X204902102Y-130983796D02*
X204746315Y-131061689D01*
X204746315Y-131061689D02*
X204434742Y-131061689D01*
X204434742Y-131061689D02*
X204278955Y-130983796D01*
X204278955Y-130983796D02*
X204201062Y-130828009D01*
X204201062Y-130828009D02*
X204201062Y-130672222D01*
X204201062Y-130672222D02*
X204979995Y-130516436D01*
X203500022Y-131061689D02*
X203500022Y-129971182D01*
X203500022Y-130905902D02*
X203422129Y-130983796D01*
X203422129Y-130983796D02*
X203266342Y-131061689D01*
X203266342Y-131061689D02*
X203032662Y-131061689D01*
X203032662Y-131061689D02*
X202876875Y-130983796D01*
X202876875Y-130983796D02*
X202798982Y-130828009D01*
X202798982Y-130828009D02*
X202798982Y-129971182D01*
X202253729Y-131061689D02*
X201630582Y-131061689D01*
X202020049Y-131606942D02*
X202020049Y-130204862D01*
X202020049Y-130204862D02*
X201942156Y-130049076D01*
X201942156Y-130049076D02*
X201786369Y-129971182D01*
X201786369Y-129971182D02*
X201630582Y-129971182D01*
X201085329Y-129971182D02*
X201085329Y-131061689D01*
X201085329Y-131606942D02*
X201163222Y-131529049D01*
X201163222Y-131529049D02*
X201085329Y-131451156D01*
X201085329Y-131451156D02*
X201007436Y-131529049D01*
X201007436Y-131529049D02*
X201085329Y-131606942D01*
X201085329Y-131606942D02*
X201085329Y-131451156D01*
X200072716Y-129971182D02*
X200228503Y-130049076D01*
X200228503Y-130049076D02*
X200306396Y-130126969D01*
X200306396Y-130126969D02*
X200384289Y-130282756D01*
X200384289Y-130282756D02*
X200384289Y-130750116D01*
X200384289Y-130750116D02*
X200306396Y-130905902D01*
X200306396Y-130905902D02*
X200228503Y-130983796D01*
X200228503Y-130983796D02*
X200072716Y-131061689D01*
X200072716Y-131061689D02*
X199839036Y-131061689D01*
X199839036Y-131061689D02*
X199683249Y-130983796D01*
X199683249Y-130983796D02*
X199605356Y-130905902D01*
X199605356Y-130905902D02*
X199527463Y-130750116D01*
X199527463Y-130750116D02*
X199527463Y-130282756D01*
X199527463Y-130282756D02*
X199605356Y-130126969D01*
X199605356Y-130126969D02*
X199683249Y-130049076D01*
X199683249Y-130049076D02*
X199839036Y-129971182D01*
X199839036Y-129971182D02*
X200072716Y-129971182D01*
X198826423Y-129971182D02*
X198826423Y-131061689D01*
X198826423Y-130905902D02*
X198748530Y-130983796D01*
X198748530Y-130983796D02*
X198592743Y-131061689D01*
X198592743Y-131061689D02*
X198359063Y-131061689D01*
X198359063Y-131061689D02*
X198203276Y-130983796D01*
X198203276Y-130983796D02*
X198125383Y-130828009D01*
X198125383Y-130828009D02*
X198125383Y-129971182D01*
X198125383Y-130828009D02*
X198047490Y-130983796D01*
X198047490Y-130983796D02*
X197891703Y-131061689D01*
X197891703Y-131061689D02*
X197658023Y-131061689D01*
X197658023Y-131061689D02*
X197502236Y-130983796D01*
X197502236Y-130983796D02*
X197424343Y-130828009D01*
X197424343Y-130828009D02*
X197424343Y-129971182D01*
X196022263Y-130049076D02*
X196178050Y-129971182D01*
X196178050Y-129971182D02*
X196489623Y-129971182D01*
X196489623Y-129971182D02*
X196645410Y-130049076D01*
X196645410Y-130049076D02*
X196723303Y-130204862D01*
X196723303Y-130204862D02*
X196723303Y-130828009D01*
X196723303Y-130828009D02*
X196645410Y-130983796D01*
X196645410Y-130983796D02*
X196489623Y-131061689D01*
X196489623Y-131061689D02*
X196178050Y-131061689D01*
X196178050Y-131061689D02*
X196022263Y-130983796D01*
X196022263Y-130983796D02*
X195944370Y-130828009D01*
X195944370Y-130828009D02*
X195944370Y-130672222D01*
X195944370Y-130672222D02*
X196723303Y-130516436D01*
X195477010Y-131061689D02*
X194853863Y-131061689D01*
X195243330Y-131606942D02*
X195243330Y-130204862D01*
X195243330Y-130204862D02*
X195165437Y-130049076D01*
X195165437Y-130049076D02*
X195009650Y-129971182D01*
X195009650Y-129971182D02*
X194853863Y-129971182D01*
X193685463Y-130049076D02*
X193841250Y-129971182D01*
X193841250Y-129971182D02*
X194152823Y-129971182D01*
X194152823Y-129971182D02*
X194308610Y-130049076D01*
X194308610Y-130049076D02*
X194386503Y-130204862D01*
X194386503Y-130204862D02*
X194386503Y-130828009D01*
X194386503Y-130828009D02*
X194308610Y-130983796D01*
X194308610Y-130983796D02*
X194152823Y-131061689D01*
X194152823Y-131061689D02*
X193841250Y-131061689D01*
X193841250Y-131061689D02*
X193685463Y-130983796D01*
X193685463Y-130983796D02*
X193607570Y-130828009D01*
X193607570Y-130828009D02*
X193607570Y-130672222D01*
X193607570Y-130672222D02*
X194386503Y-130516436D01*
X192906530Y-129971182D02*
X192906530Y-131061689D01*
X192906530Y-130750116D02*
X192828637Y-130905902D01*
X192828637Y-130905902D02*
X192750743Y-130983796D01*
X192750743Y-130983796D02*
X192594957Y-131061689D01*
X192594957Y-131061689D02*
X192439170Y-131061689D01*
D18*
X118693622Y-104259982D02*
X119346765Y-104259982D01*
X119346765Y-104259982D02*
X119412079Y-103606839D01*
X119412079Y-103606839D02*
X119346765Y-103672154D01*
X119346765Y-103672154D02*
X119216137Y-103737468D01*
X119216137Y-103737468D02*
X118889565Y-103737468D01*
X118889565Y-103737468D02*
X118758937Y-103672154D01*
X118758937Y-103672154D02*
X118693622Y-103606839D01*
X118693622Y-103606839D02*
X118628308Y-103476211D01*
X118628308Y-103476211D02*
X118628308Y-103149639D01*
X118628308Y-103149639D02*
X118693622Y-103019011D01*
X118693622Y-103019011D02*
X118758937Y-102953697D01*
X118758937Y-102953697D02*
X118889565Y-102888382D01*
X118889565Y-102888382D02*
X119216137Y-102888382D01*
X119216137Y-102888382D02*
X119346765Y-102953697D01*
X119346765Y-102953697D02*
X119412079Y-103019011D01*
X128534308Y-102888382D02*
X129318079Y-102888382D01*
X128926194Y-102888382D02*
X128926194Y-104259982D01*
X128926194Y-104259982D02*
X129056822Y-104064039D01*
X129056822Y-104064039D02*
X129187451Y-103933411D01*
X129187451Y-103933411D02*
X129318079Y-103868097D01*
X130007508Y-108450982D02*
X129746251Y-108450982D01*
X129746251Y-108450982D02*
X129615622Y-108385668D01*
X129615622Y-108385668D02*
X129484994Y-108255039D01*
X129484994Y-108255039D02*
X129419679Y-107993782D01*
X129419679Y-107993782D02*
X129419679Y-107536582D01*
X129419679Y-107536582D02*
X129484994Y-107275325D01*
X129484994Y-107275325D02*
X129615622Y-107144697D01*
X129615622Y-107144697D02*
X129746251Y-107079382D01*
X129746251Y-107079382D02*
X130007508Y-107079382D01*
X130007508Y-107079382D02*
X130138137Y-107144697D01*
X130138137Y-107144697D02*
X130268765Y-107275325D01*
X130268765Y-107275325D02*
X130334079Y-107536582D01*
X130334079Y-107536582D02*
X130334079Y-107993782D01*
X130334079Y-107993782D02*
X130268765Y-108255039D01*
X130268765Y-108255039D02*
X130138137Y-108385668D01*
X130138137Y-108385668D02*
X130007508Y-108450982D01*
X128831851Y-107079382D02*
X128831851Y-108450982D01*
X128831851Y-108450982D02*
X128048080Y-107079382D01*
X128048080Y-107079382D02*
X128048080Y-108450982D01*
X121298937Y-103802782D02*
X121298937Y-102888382D01*
X121625508Y-104325297D02*
X121952079Y-103345582D01*
X121952079Y-103345582D02*
X121102994Y-103345582D01*
X124557394Y-104259982D02*
X123708308Y-104259982D01*
X123708308Y-104259982D02*
X124165508Y-103737468D01*
X124165508Y-103737468D02*
X123969565Y-103737468D01*
X123969565Y-103737468D02*
X123838937Y-103672154D01*
X123838937Y-103672154D02*
X123773622Y-103606839D01*
X123773622Y-103606839D02*
X123708308Y-103476211D01*
X123708308Y-103476211D02*
X123708308Y-103149639D01*
X123708308Y-103149639D02*
X123773622Y-103019011D01*
X123773622Y-103019011D02*
X123838937Y-102953697D01*
X123838937Y-102953697D02*
X123969565Y-102888382D01*
X123969565Y-102888382D02*
X124361451Y-102888382D01*
X124361451Y-102888382D02*
X124492079Y-102953697D01*
X124492079Y-102953697D02*
X124557394Y-103019011D01*
X121378765Y-107797839D02*
X120921565Y-107797839D01*
X120725622Y-107079382D02*
X121378765Y-107079382D01*
X121378765Y-107079382D02*
X121378765Y-108450982D01*
X121378765Y-108450982D02*
X120725622Y-108450982D01*
X120137794Y-107079382D02*
X120137794Y-108450982D01*
X120137794Y-108450982D02*
X119811223Y-108450982D01*
X119811223Y-108450982D02*
X119615280Y-108385668D01*
X119615280Y-108385668D02*
X119484651Y-108255039D01*
X119484651Y-108255039D02*
X119419337Y-108124411D01*
X119419337Y-108124411D02*
X119354023Y-107863154D01*
X119354023Y-107863154D02*
X119354023Y-107667211D01*
X119354023Y-107667211D02*
X119419337Y-107405954D01*
X119419337Y-107405954D02*
X119484651Y-107275325D01*
X119484651Y-107275325D02*
X119615280Y-107144697D01*
X119615280Y-107144697D02*
X119811223Y-107079382D01*
X119811223Y-107079382D02*
X120137794Y-107079382D01*
X118047737Y-108385668D02*
X118178366Y-108450982D01*
X118178366Y-108450982D02*
X118374308Y-108450982D01*
X118374308Y-108450982D02*
X118570251Y-108385668D01*
X118570251Y-108385668D02*
X118700880Y-108255039D01*
X118700880Y-108255039D02*
X118766194Y-108124411D01*
X118766194Y-108124411D02*
X118831508Y-107863154D01*
X118831508Y-107863154D02*
X118831508Y-107667211D01*
X118831508Y-107667211D02*
X118766194Y-107405954D01*
X118766194Y-107405954D02*
X118700880Y-107275325D01*
X118700880Y-107275325D02*
X118570251Y-107144697D01*
X118570251Y-107144697D02*
X118374308Y-107079382D01*
X118374308Y-107079382D02*
X118243680Y-107079382D01*
X118243680Y-107079382D02*
X118047737Y-107144697D01*
X118047737Y-107144697D02*
X117982423Y-107210011D01*
X117982423Y-107210011D02*
X117982423Y-107667211D01*
X117982423Y-107667211D02*
X118243680Y-107667211D01*
X127032079Y-104129354D02*
X126966765Y-104194668D01*
X126966765Y-104194668D02*
X126836137Y-104259982D01*
X126836137Y-104259982D02*
X126509565Y-104259982D01*
X126509565Y-104259982D02*
X126378937Y-104194668D01*
X126378937Y-104194668D02*
X126313622Y-104129354D01*
X126313622Y-104129354D02*
X126248308Y-103998725D01*
X126248308Y-103998725D02*
X126248308Y-103868097D01*
X126248308Y-103868097D02*
X126313622Y-103672154D01*
X126313622Y-103672154D02*
X127097394Y-102888382D01*
X127097394Y-102888382D02*
X126248308Y-102888382D01*
X176287263Y-105559417D02*
X176287263Y-106473817D01*
X175960691Y-105036903D02*
X175634120Y-106016617D01*
X175634120Y-106016617D02*
X176483205Y-106016617D01*
X176207434Y-101564360D02*
X176664634Y-101564360D01*
X176860577Y-102282817D02*
X176207434Y-102282817D01*
X176207434Y-102282817D02*
X176207434Y-100911217D01*
X176207434Y-100911217D02*
X176860577Y-100911217D01*
X177448405Y-102282817D02*
X177448405Y-100911217D01*
X177448405Y-100911217D02*
X177774976Y-100911217D01*
X177774976Y-100911217D02*
X177970919Y-100976531D01*
X177970919Y-100976531D02*
X178101548Y-101107160D01*
X178101548Y-101107160D02*
X178166862Y-101237788D01*
X178166862Y-101237788D02*
X178232176Y-101499045D01*
X178232176Y-101499045D02*
X178232176Y-101694988D01*
X178232176Y-101694988D02*
X178166862Y-101956245D01*
X178166862Y-101956245D02*
X178101548Y-102086874D01*
X178101548Y-102086874D02*
X177970919Y-102217503D01*
X177970919Y-102217503D02*
X177774976Y-102282817D01*
X177774976Y-102282817D02*
X177448405Y-102282817D01*
X179538462Y-100976531D02*
X179407834Y-100911217D01*
X179407834Y-100911217D02*
X179211891Y-100911217D01*
X179211891Y-100911217D02*
X179015948Y-100976531D01*
X179015948Y-100976531D02*
X178885319Y-101107160D01*
X178885319Y-101107160D02*
X178820005Y-101237788D01*
X178820005Y-101237788D02*
X178754691Y-101499045D01*
X178754691Y-101499045D02*
X178754691Y-101694988D01*
X178754691Y-101694988D02*
X178820005Y-101956245D01*
X178820005Y-101956245D02*
X178885319Y-102086874D01*
X178885319Y-102086874D02*
X179015948Y-102217503D01*
X179015948Y-102217503D02*
X179211891Y-102282817D01*
X179211891Y-102282817D02*
X179342519Y-102282817D01*
X179342519Y-102282817D02*
X179538462Y-102217503D01*
X179538462Y-102217503D02*
X179603776Y-102152188D01*
X179603776Y-102152188D02*
X179603776Y-101694988D01*
X179603776Y-101694988D02*
X179342519Y-101694988D01*
X169051891Y-106473817D02*
X168268120Y-106473817D01*
X168660005Y-106473817D02*
X168660005Y-105102217D01*
X168660005Y-105102217D02*
X168529377Y-105298160D01*
X168529377Y-105298160D02*
X168398748Y-105428788D01*
X168398748Y-105428788D02*
X168268120Y-105494103D01*
X173028805Y-105102217D02*
X173877891Y-105102217D01*
X173877891Y-105102217D02*
X173420691Y-105624731D01*
X173420691Y-105624731D02*
X173616634Y-105624731D01*
X173616634Y-105624731D02*
X173747263Y-105690045D01*
X173747263Y-105690045D02*
X173812577Y-105755360D01*
X173812577Y-105755360D02*
X173877891Y-105885988D01*
X173877891Y-105885988D02*
X173877891Y-106212560D01*
X173877891Y-106212560D02*
X173812577Y-106343188D01*
X173812577Y-106343188D02*
X173747263Y-106408503D01*
X173747263Y-106408503D02*
X173616634Y-106473817D01*
X173616634Y-106473817D02*
X173224748Y-106473817D01*
X173224748Y-106473817D02*
X173094120Y-106408503D01*
X173094120Y-106408503D02*
X173028805Y-106343188D01*
X170554120Y-105232845D02*
X170619434Y-105167531D01*
X170619434Y-105167531D02*
X170750063Y-105102217D01*
X170750063Y-105102217D02*
X171076634Y-105102217D01*
X171076634Y-105102217D02*
X171207263Y-105167531D01*
X171207263Y-105167531D02*
X171272577Y-105232845D01*
X171272577Y-105232845D02*
X171337891Y-105363474D01*
X171337891Y-105363474D02*
X171337891Y-105494103D01*
X171337891Y-105494103D02*
X171272577Y-105690045D01*
X171272577Y-105690045D02*
X170488805Y-106473817D01*
X170488805Y-106473817D02*
X171337891Y-106473817D01*
X167578691Y-100911217D02*
X167839948Y-100911217D01*
X167839948Y-100911217D02*
X167970577Y-100976531D01*
X167970577Y-100976531D02*
X168101205Y-101107160D01*
X168101205Y-101107160D02*
X168166520Y-101368417D01*
X168166520Y-101368417D02*
X168166520Y-101825617D01*
X168166520Y-101825617D02*
X168101205Y-102086874D01*
X168101205Y-102086874D02*
X167970577Y-102217503D01*
X167970577Y-102217503D02*
X167839948Y-102282817D01*
X167839948Y-102282817D02*
X167578691Y-102282817D01*
X167578691Y-102282817D02*
X167448063Y-102217503D01*
X167448063Y-102217503D02*
X167317434Y-102086874D01*
X167317434Y-102086874D02*
X167252120Y-101825617D01*
X167252120Y-101825617D02*
X167252120Y-101368417D01*
X167252120Y-101368417D02*
X167317434Y-101107160D01*
X167317434Y-101107160D02*
X167448063Y-100976531D01*
X167448063Y-100976531D02*
X167578691Y-100911217D01*
X168754348Y-102282817D02*
X168754348Y-100911217D01*
X168754348Y-100911217D02*
X169538119Y-102282817D01*
X169538119Y-102282817D02*
X169538119Y-100911217D01*
X178892577Y-105102217D02*
X178239434Y-105102217D01*
X178239434Y-105102217D02*
X178174120Y-105755360D01*
X178174120Y-105755360D02*
X178239434Y-105690045D01*
X178239434Y-105690045D02*
X178370063Y-105624731D01*
X178370063Y-105624731D02*
X178696634Y-105624731D01*
X178696634Y-105624731D02*
X178827263Y-105690045D01*
X178827263Y-105690045D02*
X178892577Y-105755360D01*
X178892577Y-105755360D02*
X178957891Y-105885988D01*
X178957891Y-105885988D02*
X178957891Y-106212560D01*
X178957891Y-106212560D02*
X178892577Y-106343188D01*
X178892577Y-106343188D02*
X178827263Y-106408503D01*
X178827263Y-106408503D02*
X178696634Y-106473817D01*
X178696634Y-106473817D02*
X178370063Y-106473817D01*
X178370063Y-106473817D02*
X178239434Y-106408503D01*
X178239434Y-106408503D02*
X178174120Y-106343188D01*
D19*
X131934963Y-112661720D02*
X131934963Y-113487220D01*
X131934963Y-113487220D02*
X131879930Y-113652320D01*
X131879930Y-113652320D02*
X131769863Y-113762387D01*
X131769863Y-113762387D02*
X131604763Y-113817420D01*
X131604763Y-113817420D02*
X131494697Y-113817420D01*
X132485296Y-113817420D02*
X132485296Y-112661720D01*
X132485296Y-112661720D02*
X132925563Y-112661720D01*
X132925563Y-112661720D02*
X133035630Y-112716753D01*
X133035630Y-112716753D02*
X133090663Y-112771787D01*
X133090663Y-112771787D02*
X133145696Y-112881853D01*
X133145696Y-112881853D02*
X133145696Y-113046953D01*
X133145696Y-113046953D02*
X133090663Y-113157020D01*
X133090663Y-113157020D02*
X133035630Y-113212053D01*
X133035630Y-113212053D02*
X132925563Y-113267087D01*
X132925563Y-113267087D02*
X132485296Y-113267087D01*
X134246363Y-113817420D02*
X133585963Y-113817420D01*
X133916163Y-113817420D02*
X133916163Y-112661720D01*
X133916163Y-112661720D02*
X133806096Y-112826820D01*
X133806096Y-112826820D02*
X133696030Y-112936887D01*
X133696030Y-112936887D02*
X133585963Y-112991920D01*
X135347030Y-113817420D02*
X134686630Y-113817420D01*
X135016830Y-113817420D02*
X135016830Y-112661720D01*
X135016830Y-112661720D02*
X134906763Y-112826820D01*
X134906763Y-112826820D02*
X134796697Y-112936887D01*
X134796697Y-112936887D02*
X134686630Y-112991920D01*
X202451602Y-127285389D02*
X202066369Y-126735056D01*
X201791202Y-127285389D02*
X201791202Y-126129689D01*
X201791202Y-126129689D02*
X202231469Y-126129689D01*
X202231469Y-126129689D02*
X202341536Y-126184722D01*
X202341536Y-126184722D02*
X202396569Y-126239756D01*
X202396569Y-126239756D02*
X202451602Y-126349822D01*
X202451602Y-126349822D02*
X202451602Y-126514922D01*
X202451602Y-126514922D02*
X202396569Y-126624989D01*
X202396569Y-126624989D02*
X202341536Y-126680022D01*
X202341536Y-126680022D02*
X202231469Y-126735056D01*
X202231469Y-126735056D02*
X201791202Y-126735056D01*
X203442202Y-126514922D02*
X203442202Y-127285389D01*
X203167036Y-126074656D02*
X202891869Y-126900156D01*
X202891869Y-126900156D02*
X203607302Y-126900156D01*
D20*
X203390862Y-119953192D02*
X202851221Y-119953192D01*
X202851221Y-119953192D02*
X203141797Y-119621105D01*
X203141797Y-119621105D02*
X203017264Y-119621105D01*
X203017264Y-119621105D02*
X202934243Y-119579594D01*
X202934243Y-119579594D02*
X202892732Y-119538083D01*
X202892732Y-119538083D02*
X202851221Y-119455061D01*
X202851221Y-119455061D02*
X202851221Y-119247507D01*
X202851221Y-119247507D02*
X202892732Y-119164485D01*
X202892732Y-119164485D02*
X202934243Y-119122975D01*
X202934243Y-119122975D02*
X203017264Y-119081464D01*
X203017264Y-119081464D02*
X203266329Y-119081464D01*
X203266329Y-119081464D02*
X203349351Y-119122975D01*
X203349351Y-119122975D02*
X203390862Y-119164485D01*
X197644221Y-119081464D02*
X198142351Y-119081464D01*
X197893286Y-119081464D02*
X197893286Y-119953192D01*
X197893286Y-119953192D02*
X197976308Y-119828659D01*
X197976308Y-119828659D02*
X198059329Y-119745637D01*
X198059329Y-119745637D02*
X198142351Y-119704127D01*
D18*
X127312434Y-116169360D02*
X127769634Y-116169360D01*
X127965577Y-116887817D02*
X127312434Y-116887817D01*
X127312434Y-116887817D02*
X127312434Y-115516217D01*
X127312434Y-115516217D02*
X127965577Y-115516217D01*
X128553405Y-116887817D02*
X128553405Y-115516217D01*
X128553405Y-115516217D02*
X128879976Y-115516217D01*
X128879976Y-115516217D02*
X129075919Y-115581531D01*
X129075919Y-115581531D02*
X129206548Y-115712160D01*
X129206548Y-115712160D02*
X129271862Y-115842788D01*
X129271862Y-115842788D02*
X129337176Y-116104045D01*
X129337176Y-116104045D02*
X129337176Y-116299988D01*
X129337176Y-116299988D02*
X129271862Y-116561245D01*
X129271862Y-116561245D02*
X129206548Y-116691874D01*
X129206548Y-116691874D02*
X129075919Y-116822503D01*
X129075919Y-116822503D02*
X128879976Y-116887817D01*
X128879976Y-116887817D02*
X128553405Y-116887817D01*
X130643462Y-115581531D02*
X130512834Y-115516217D01*
X130512834Y-115516217D02*
X130316891Y-115516217D01*
X130316891Y-115516217D02*
X130120948Y-115581531D01*
X130120948Y-115581531D02*
X129990319Y-115712160D01*
X129990319Y-115712160D02*
X129925005Y-115842788D01*
X129925005Y-115842788D02*
X129859691Y-116104045D01*
X129859691Y-116104045D02*
X129859691Y-116299988D01*
X129859691Y-116299988D02*
X129925005Y-116561245D01*
X129925005Y-116561245D02*
X129990319Y-116691874D01*
X129990319Y-116691874D02*
X130120948Y-116822503D01*
X130120948Y-116822503D02*
X130316891Y-116887817D01*
X130316891Y-116887817D02*
X130447519Y-116887817D01*
X130447519Y-116887817D02*
X130643462Y-116822503D01*
X130643462Y-116822503D02*
X130708776Y-116757188D01*
X130708776Y-116757188D02*
X130708776Y-116299988D01*
X130708776Y-116299988D02*
X130447519Y-116299988D01*
X120156891Y-121078817D02*
X119373120Y-121078817D01*
X119765005Y-121078817D02*
X119765005Y-119707217D01*
X119765005Y-119707217D02*
X119634377Y-119903160D01*
X119634377Y-119903160D02*
X119503748Y-120033788D01*
X119503748Y-120033788D02*
X119373120Y-120099103D01*
X121659120Y-119837845D02*
X121724434Y-119772531D01*
X121724434Y-119772531D02*
X121855063Y-119707217D01*
X121855063Y-119707217D02*
X122181634Y-119707217D01*
X122181634Y-119707217D02*
X122312263Y-119772531D01*
X122312263Y-119772531D02*
X122377577Y-119837845D01*
X122377577Y-119837845D02*
X122442891Y-119968474D01*
X122442891Y-119968474D02*
X122442891Y-120099103D01*
X122442891Y-120099103D02*
X122377577Y-120295045D01*
X122377577Y-120295045D02*
X121593805Y-121078817D01*
X121593805Y-121078817D02*
X122442891Y-121078817D01*
X124133805Y-119707217D02*
X124982891Y-119707217D01*
X124982891Y-119707217D02*
X124525691Y-120229731D01*
X124525691Y-120229731D02*
X124721634Y-120229731D01*
X124721634Y-120229731D02*
X124852263Y-120295045D01*
X124852263Y-120295045D02*
X124917577Y-120360360D01*
X124917577Y-120360360D02*
X124982891Y-120490988D01*
X124982891Y-120490988D02*
X124982891Y-120817560D01*
X124982891Y-120817560D02*
X124917577Y-120948188D01*
X124917577Y-120948188D02*
X124852263Y-121013503D01*
X124852263Y-121013503D02*
X124721634Y-121078817D01*
X124721634Y-121078817D02*
X124329748Y-121078817D01*
X124329748Y-121078817D02*
X124199120Y-121013503D01*
X124199120Y-121013503D02*
X124133805Y-120948188D01*
X129997577Y-119707217D02*
X129344434Y-119707217D01*
X129344434Y-119707217D02*
X129279120Y-120360360D01*
X129279120Y-120360360D02*
X129344434Y-120295045D01*
X129344434Y-120295045D02*
X129475063Y-120229731D01*
X129475063Y-120229731D02*
X129801634Y-120229731D01*
X129801634Y-120229731D02*
X129932263Y-120295045D01*
X129932263Y-120295045D02*
X129997577Y-120360360D01*
X129997577Y-120360360D02*
X130062891Y-120490988D01*
X130062891Y-120490988D02*
X130062891Y-120817560D01*
X130062891Y-120817560D02*
X129997577Y-120948188D01*
X129997577Y-120948188D02*
X129932263Y-121013503D01*
X129932263Y-121013503D02*
X129801634Y-121078817D01*
X129801634Y-121078817D02*
X129475063Y-121078817D01*
X129475063Y-121078817D02*
X129344434Y-121013503D01*
X129344434Y-121013503D02*
X129279120Y-120948188D01*
X118683691Y-115516217D02*
X118944948Y-115516217D01*
X118944948Y-115516217D02*
X119075577Y-115581531D01*
X119075577Y-115581531D02*
X119206205Y-115712160D01*
X119206205Y-115712160D02*
X119271520Y-115973417D01*
X119271520Y-115973417D02*
X119271520Y-116430617D01*
X119271520Y-116430617D02*
X119206205Y-116691874D01*
X119206205Y-116691874D02*
X119075577Y-116822503D01*
X119075577Y-116822503D02*
X118944948Y-116887817D01*
X118944948Y-116887817D02*
X118683691Y-116887817D01*
X118683691Y-116887817D02*
X118553063Y-116822503D01*
X118553063Y-116822503D02*
X118422434Y-116691874D01*
X118422434Y-116691874D02*
X118357120Y-116430617D01*
X118357120Y-116430617D02*
X118357120Y-115973417D01*
X118357120Y-115973417D02*
X118422434Y-115712160D01*
X118422434Y-115712160D02*
X118553063Y-115581531D01*
X118553063Y-115581531D02*
X118683691Y-115516217D01*
X119859348Y-116887817D02*
X119859348Y-115516217D01*
X119859348Y-115516217D02*
X120643119Y-116887817D01*
X120643119Y-116887817D02*
X120643119Y-115516217D01*
X127392263Y-120164417D02*
X127392263Y-121078817D01*
X127065691Y-119641903D02*
X126739120Y-120621617D01*
X126739120Y-120621617D02*
X127588205Y-120621617D01*
D20*
X93560337Y-90044007D02*
X94099978Y-90044007D01*
X94099978Y-90044007D02*
X93809402Y-90376094D01*
X93809402Y-90376094D02*
X93933935Y-90376094D01*
X93933935Y-90376094D02*
X94016957Y-90417605D01*
X94016957Y-90417605D02*
X94058467Y-90459116D01*
X94058467Y-90459116D02*
X94099978Y-90542138D01*
X94099978Y-90542138D02*
X94099978Y-90749692D01*
X94099978Y-90749692D02*
X94058467Y-90832714D01*
X94058467Y-90832714D02*
X94016957Y-90874225D01*
X94016957Y-90874225D02*
X93933935Y-90915735D01*
X93933935Y-90915735D02*
X93684870Y-90915735D01*
X93684870Y-90915735D02*
X93601848Y-90874225D01*
X93601848Y-90874225D02*
X93560337Y-90832714D01*
X99306978Y-90915735D02*
X98808848Y-90915735D01*
X99057913Y-90915735D02*
X99057913Y-90044007D01*
X99057913Y-90044007D02*
X98974891Y-90168540D01*
X98974891Y-90168540D02*
X98891870Y-90251562D01*
X98891870Y-90251562D02*
X98808848Y-90293073D01*
D19*
X131934963Y-117741720D02*
X131934963Y-118567220D01*
X131934963Y-118567220D02*
X131879930Y-118732320D01*
X131879930Y-118732320D02*
X131769863Y-118842387D01*
X131769863Y-118842387D02*
X131604763Y-118897420D01*
X131604763Y-118897420D02*
X131494697Y-118897420D01*
X132485296Y-118897420D02*
X132485296Y-117741720D01*
X132485296Y-117741720D02*
X132925563Y-117741720D01*
X132925563Y-117741720D02*
X133035630Y-117796753D01*
X133035630Y-117796753D02*
X133090663Y-117851787D01*
X133090663Y-117851787D02*
X133145696Y-117961853D01*
X133145696Y-117961853D02*
X133145696Y-118126953D01*
X133145696Y-118126953D02*
X133090663Y-118237020D01*
X133090663Y-118237020D02*
X133035630Y-118292053D01*
X133035630Y-118292053D02*
X132925563Y-118347087D01*
X132925563Y-118347087D02*
X132485296Y-118347087D01*
X134246363Y-118897420D02*
X133585963Y-118897420D01*
X133916163Y-118897420D02*
X133916163Y-117741720D01*
X133916163Y-117741720D02*
X133806096Y-117906820D01*
X133806096Y-117906820D02*
X133696030Y-118016887D01*
X133696030Y-118016887D02*
X133585963Y-118071920D01*
X134686630Y-117851787D02*
X134741663Y-117796753D01*
X134741663Y-117796753D02*
X134851730Y-117741720D01*
X134851730Y-117741720D02*
X135126897Y-117741720D01*
X135126897Y-117741720D02*
X135236963Y-117796753D01*
X135236963Y-117796753D02*
X135291997Y-117851787D01*
X135291997Y-117851787D02*
X135347030Y-117961853D01*
X135347030Y-117961853D02*
X135347030Y-118071920D01*
X135347030Y-118071920D02*
X135291997Y-118237020D01*
X135291997Y-118237020D02*
X134631597Y-118897420D01*
X134631597Y-118897420D02*
X135347030Y-118897420D01*
D18*
X170273765Y-93192839D02*
X169816565Y-93192839D01*
X169620622Y-92474382D02*
X170273765Y-92474382D01*
X170273765Y-92474382D02*
X170273765Y-93845982D01*
X170273765Y-93845982D02*
X169620622Y-93845982D01*
X169032794Y-92474382D02*
X169032794Y-93845982D01*
X169032794Y-93845982D02*
X168706223Y-93845982D01*
X168706223Y-93845982D02*
X168510280Y-93780668D01*
X168510280Y-93780668D02*
X168379651Y-93650039D01*
X168379651Y-93650039D02*
X168314337Y-93519411D01*
X168314337Y-93519411D02*
X168249023Y-93258154D01*
X168249023Y-93258154D02*
X168249023Y-93062211D01*
X168249023Y-93062211D02*
X168314337Y-92800954D01*
X168314337Y-92800954D02*
X168379651Y-92670325D01*
X168379651Y-92670325D02*
X168510280Y-92539697D01*
X168510280Y-92539697D02*
X168706223Y-92474382D01*
X168706223Y-92474382D02*
X169032794Y-92474382D01*
X166942737Y-93780668D02*
X167073366Y-93845982D01*
X167073366Y-93845982D02*
X167269308Y-93845982D01*
X167269308Y-93845982D02*
X167465251Y-93780668D01*
X167465251Y-93780668D02*
X167595880Y-93650039D01*
X167595880Y-93650039D02*
X167661194Y-93519411D01*
X167661194Y-93519411D02*
X167726508Y-93258154D01*
X167726508Y-93258154D02*
X167726508Y-93062211D01*
X167726508Y-93062211D02*
X167661194Y-92800954D01*
X167661194Y-92800954D02*
X167595880Y-92670325D01*
X167595880Y-92670325D02*
X167465251Y-92539697D01*
X167465251Y-92539697D02*
X167269308Y-92474382D01*
X167269308Y-92474382D02*
X167138680Y-92474382D01*
X167138680Y-92474382D02*
X166942737Y-92539697D01*
X166942737Y-92539697D02*
X166877423Y-92605011D01*
X166877423Y-92605011D02*
X166877423Y-93062211D01*
X166877423Y-93062211D02*
X167138680Y-93062211D01*
X170193937Y-89197782D02*
X170193937Y-88283382D01*
X170520508Y-89720297D02*
X170847079Y-88740582D01*
X170847079Y-88740582D02*
X169997994Y-88740582D01*
X167588622Y-89654982D02*
X168241765Y-89654982D01*
X168241765Y-89654982D02*
X168307079Y-89001839D01*
X168307079Y-89001839D02*
X168241765Y-89067154D01*
X168241765Y-89067154D02*
X168111137Y-89132468D01*
X168111137Y-89132468D02*
X167784565Y-89132468D01*
X167784565Y-89132468D02*
X167653937Y-89067154D01*
X167653937Y-89067154D02*
X167588622Y-89001839D01*
X167588622Y-89001839D02*
X167523308Y-88871211D01*
X167523308Y-88871211D02*
X167523308Y-88544639D01*
X167523308Y-88544639D02*
X167588622Y-88414011D01*
X167588622Y-88414011D02*
X167653937Y-88348697D01*
X167653937Y-88348697D02*
X167784565Y-88283382D01*
X167784565Y-88283382D02*
X168111137Y-88283382D01*
X168111137Y-88283382D02*
X168241765Y-88348697D01*
X168241765Y-88348697D02*
X168307079Y-88414011D01*
X178902508Y-93845982D02*
X178641251Y-93845982D01*
X178641251Y-93845982D02*
X178510622Y-93780668D01*
X178510622Y-93780668D02*
X178379994Y-93650039D01*
X178379994Y-93650039D02*
X178314679Y-93388782D01*
X178314679Y-93388782D02*
X178314679Y-92931582D01*
X178314679Y-92931582D02*
X178379994Y-92670325D01*
X178379994Y-92670325D02*
X178510622Y-92539697D01*
X178510622Y-92539697D02*
X178641251Y-92474382D01*
X178641251Y-92474382D02*
X178902508Y-92474382D01*
X178902508Y-92474382D02*
X179033137Y-92539697D01*
X179033137Y-92539697D02*
X179163765Y-92670325D01*
X179163765Y-92670325D02*
X179229079Y-92931582D01*
X179229079Y-92931582D02*
X179229079Y-93388782D01*
X179229079Y-93388782D02*
X179163765Y-93650039D01*
X179163765Y-93650039D02*
X179033137Y-93780668D01*
X179033137Y-93780668D02*
X178902508Y-93845982D01*
X177726851Y-92474382D02*
X177726851Y-93845982D01*
X177726851Y-93845982D02*
X176943080Y-92474382D01*
X176943080Y-92474382D02*
X176943080Y-93845982D01*
X173452394Y-89654982D02*
X172603308Y-89654982D01*
X172603308Y-89654982D02*
X173060508Y-89132468D01*
X173060508Y-89132468D02*
X172864565Y-89132468D01*
X172864565Y-89132468D02*
X172733937Y-89067154D01*
X172733937Y-89067154D02*
X172668622Y-89001839D01*
X172668622Y-89001839D02*
X172603308Y-88871211D01*
X172603308Y-88871211D02*
X172603308Y-88544639D01*
X172603308Y-88544639D02*
X172668622Y-88414011D01*
X172668622Y-88414011D02*
X172733937Y-88348697D01*
X172733937Y-88348697D02*
X172864565Y-88283382D01*
X172864565Y-88283382D02*
X173256451Y-88283382D01*
X173256451Y-88283382D02*
X173387079Y-88348697D01*
X173387079Y-88348697D02*
X173452394Y-88414011D01*
X177429308Y-88283382D02*
X178213079Y-88283382D01*
X177821194Y-88283382D02*
X177821194Y-89654982D01*
X177821194Y-89654982D02*
X177951822Y-89459039D01*
X177951822Y-89459039D02*
X178082451Y-89328411D01*
X178082451Y-89328411D02*
X178213079Y-89263097D01*
X175927079Y-89524354D02*
X175861765Y-89589668D01*
X175861765Y-89589668D02*
X175731137Y-89654982D01*
X175731137Y-89654982D02*
X175404565Y-89654982D01*
X175404565Y-89654982D02*
X175273937Y-89589668D01*
X175273937Y-89589668D02*
X175208622Y-89524354D01*
X175208622Y-89524354D02*
X175143308Y-89393725D01*
X175143308Y-89393725D02*
X175143308Y-89263097D01*
X175143308Y-89263097D02*
X175208622Y-89067154D01*
X175208622Y-89067154D02*
X175992394Y-88283382D01*
X175992394Y-88283382D02*
X175143308Y-88283382D01*
D21*
%TO.C,JP9*%
G36*
X162699600Y-101442600D02*
G01*
X162191600Y-101442600D01*
X162191600Y-100934600D01*
X162699600Y-100934600D01*
X162699600Y-101442600D01*
G37*
G36*
X165239600Y-101442600D02*
G01*
X164731600Y-101442600D01*
X164731600Y-100934600D01*
X165239600Y-100934600D01*
X165239600Y-101442600D01*
G37*
D18*
%TO.C,SW1*%
X117233600Y-101950600D02*
X117233600Y-103982600D01*
X117233600Y-103982600D02*
X117233600Y-107284600D01*
X117233600Y-107284600D02*
X117233600Y-109316600D01*
X117233600Y-107284600D02*
X117741600Y-107284600D01*
X117233600Y-109316600D02*
X131457600Y-109316600D01*
X117741600Y-103982600D02*
X117233600Y-103982600D01*
X117741600Y-107284600D02*
X117741600Y-103982600D01*
X118503600Y-103728600D02*
X118503600Y-107538600D01*
X118503600Y-103728600D02*
X120027600Y-103728600D01*
X120027600Y-107538600D02*
X118503600Y-107538600D01*
X120027600Y-107538600D02*
X120027600Y-103728600D01*
X121043600Y-103728600D02*
X121043600Y-107538600D01*
X121043600Y-103728600D02*
X122567600Y-103728600D01*
X122567600Y-107538600D02*
X121043600Y-107538600D01*
X122567600Y-107538600D02*
X122567600Y-103728600D01*
X123583600Y-103728600D02*
X123583600Y-107538600D01*
X123583600Y-103728600D02*
X125107600Y-103728600D01*
X125107600Y-107538600D02*
X123583600Y-107538600D01*
X125107600Y-107538600D02*
X125107600Y-103728600D01*
X126123600Y-103728600D02*
X126123600Y-107538600D01*
X126123600Y-103728600D02*
X127647600Y-103728600D01*
X127647600Y-107538600D02*
X126123600Y-107538600D01*
X127647600Y-107538600D02*
X127647600Y-103728600D01*
X128663600Y-103728600D02*
X128663600Y-107538600D01*
X128663600Y-103728600D02*
X130187600Y-103728600D01*
X130187600Y-107538600D02*
X128663600Y-107538600D01*
X130187600Y-107538600D02*
X130187600Y-103728600D01*
X130949600Y-103982600D02*
X130949600Y-107284600D01*
X130949600Y-107284600D02*
X131457600Y-107284600D01*
X131457600Y-101950600D02*
X117233600Y-101950600D01*
X131457600Y-103982600D02*
X130949600Y-103982600D01*
X131457600Y-103982600D02*
X131457600Y-101950600D01*
X131457600Y-107284600D02*
X131457600Y-103982600D01*
X131457600Y-109316600D02*
X131457600Y-107284600D01*
D21*
G36*
X119773600Y-104363600D02*
G01*
X118757600Y-104363600D01*
X118757600Y-103982600D01*
X119773600Y-103982600D01*
X119773600Y-104363600D01*
G37*
G36*
X119773600Y-104998600D02*
G01*
X118757600Y-104998600D01*
X118757600Y-104617600D01*
X119773600Y-104617600D01*
X119773600Y-104998600D01*
G37*
G36*
X119773600Y-105633600D02*
G01*
X118757600Y-105633600D01*
X118757600Y-105252600D01*
X119773600Y-105252600D01*
X119773600Y-105633600D01*
G37*
G36*
X122313600Y-104363600D02*
G01*
X121297600Y-104363600D01*
X121297600Y-103982600D01*
X122313600Y-103982600D01*
X122313600Y-104363600D01*
G37*
G36*
X122313600Y-104998600D02*
G01*
X121297600Y-104998600D01*
X121297600Y-104617600D01*
X122313600Y-104617600D01*
X122313600Y-104998600D01*
G37*
G36*
X122313600Y-105633600D02*
G01*
X121297600Y-105633600D01*
X121297600Y-105252600D01*
X122313600Y-105252600D01*
X122313600Y-105633600D01*
G37*
G36*
X124853600Y-104363600D02*
G01*
X123837600Y-104363600D01*
X123837600Y-103982600D01*
X124853600Y-103982600D01*
X124853600Y-104363600D01*
G37*
G36*
X124853600Y-104998600D02*
G01*
X123837600Y-104998600D01*
X123837600Y-104617600D01*
X124853600Y-104617600D01*
X124853600Y-104998600D01*
G37*
G36*
X124853600Y-105633600D02*
G01*
X123837600Y-105633600D01*
X123837600Y-105252600D01*
X124853600Y-105252600D01*
X124853600Y-105633600D01*
G37*
G36*
X127393600Y-104363600D02*
G01*
X126377600Y-104363600D01*
X126377600Y-103982600D01*
X127393600Y-103982600D01*
X127393600Y-104363600D01*
G37*
G36*
X127393600Y-104998600D02*
G01*
X126377600Y-104998600D01*
X126377600Y-104617600D01*
X127393600Y-104617600D01*
X127393600Y-104998600D01*
G37*
G36*
X127393600Y-105633600D02*
G01*
X126377600Y-105633600D01*
X126377600Y-105252600D01*
X127393600Y-105252600D01*
X127393600Y-105633600D01*
G37*
G36*
X129933600Y-104363600D02*
G01*
X128917600Y-104363600D01*
X128917600Y-103982600D01*
X129933600Y-103982600D01*
X129933600Y-104363600D01*
G37*
G36*
X129933600Y-104998600D02*
G01*
X128917600Y-104998600D01*
X128917600Y-104617600D01*
X129933600Y-104617600D01*
X129933600Y-104998600D01*
G37*
G36*
X129933600Y-105633600D02*
G01*
X128917600Y-105633600D01*
X128917600Y-105252600D01*
X129933600Y-105252600D01*
X129933600Y-105633600D01*
G37*
D18*
%TO.C,SW3*%
X166128600Y-100045600D02*
X166128600Y-102077600D01*
X166128600Y-102077600D02*
X166128600Y-105379600D01*
X166128600Y-105379600D02*
X166128600Y-107411600D01*
X166128600Y-105379600D02*
X166636600Y-105379600D01*
X166128600Y-107411600D02*
X180352600Y-107411600D01*
X166636600Y-102077600D02*
X166128600Y-102077600D01*
X166636600Y-105379600D02*
X166636600Y-102077600D01*
X167398600Y-101823600D02*
X167398600Y-105633600D01*
X167398600Y-101823600D02*
X168922600Y-101823600D01*
X168922600Y-105633600D02*
X167398600Y-105633600D01*
X168922600Y-105633600D02*
X168922600Y-101823600D01*
X169938600Y-101823600D02*
X169938600Y-105633600D01*
X169938600Y-101823600D02*
X171462600Y-101823600D01*
X171462600Y-105633600D02*
X169938600Y-105633600D01*
X171462600Y-105633600D02*
X171462600Y-101823600D01*
X172478600Y-101823600D02*
X172478600Y-105633600D01*
X172478600Y-101823600D02*
X174002600Y-101823600D01*
X174002600Y-105633600D02*
X172478600Y-105633600D01*
X174002600Y-105633600D02*
X174002600Y-101823600D01*
X175018600Y-101823600D02*
X175018600Y-105633600D01*
X175018600Y-101823600D02*
X176542600Y-101823600D01*
X176542600Y-105633600D02*
X175018600Y-105633600D01*
X176542600Y-105633600D02*
X176542600Y-101823600D01*
X177558600Y-101823600D02*
X177558600Y-105633600D01*
X177558600Y-101823600D02*
X179082600Y-101823600D01*
X179082600Y-105633600D02*
X177558600Y-105633600D01*
X179082600Y-105633600D02*
X179082600Y-101823600D01*
X179844600Y-102077600D02*
X179844600Y-105379600D01*
X179844600Y-105379600D02*
X180352600Y-105379600D01*
X180352600Y-100045600D02*
X166128600Y-100045600D01*
X180352600Y-102077600D02*
X179844600Y-102077600D01*
X180352600Y-102077600D02*
X180352600Y-100045600D01*
X180352600Y-105379600D02*
X180352600Y-102077600D01*
X180352600Y-107411600D02*
X180352600Y-105379600D01*
D21*
G36*
X168668600Y-104109600D02*
G01*
X167652600Y-104109600D01*
X167652600Y-103728600D01*
X168668600Y-103728600D01*
X168668600Y-104109600D01*
G37*
G36*
X168668600Y-104744600D02*
G01*
X167652600Y-104744600D01*
X167652600Y-104363600D01*
X168668600Y-104363600D01*
X168668600Y-104744600D01*
G37*
G36*
X168668600Y-105379600D02*
G01*
X167652600Y-105379600D01*
X167652600Y-104998600D01*
X168668600Y-104998600D01*
X168668600Y-105379600D01*
G37*
G36*
X171208600Y-104109600D02*
G01*
X170192600Y-104109600D01*
X170192600Y-103728600D01*
X171208600Y-103728600D01*
X171208600Y-104109600D01*
G37*
G36*
X171208600Y-104744600D02*
G01*
X170192600Y-104744600D01*
X170192600Y-104363600D01*
X171208600Y-104363600D01*
X171208600Y-104744600D01*
G37*
G36*
X171208600Y-105379600D02*
G01*
X170192600Y-105379600D01*
X170192600Y-104998600D01*
X171208600Y-104998600D01*
X171208600Y-105379600D01*
G37*
G36*
X173748600Y-104109600D02*
G01*
X172732600Y-104109600D01*
X172732600Y-103728600D01*
X173748600Y-103728600D01*
X173748600Y-104109600D01*
G37*
G36*
X173748600Y-104744600D02*
G01*
X172732600Y-104744600D01*
X172732600Y-104363600D01*
X173748600Y-104363600D01*
X173748600Y-104744600D01*
G37*
G36*
X173748600Y-105379600D02*
G01*
X172732600Y-105379600D01*
X172732600Y-104998600D01*
X173748600Y-104998600D01*
X173748600Y-105379600D01*
G37*
G36*
X176288600Y-104109600D02*
G01*
X175272600Y-104109600D01*
X175272600Y-103728600D01*
X176288600Y-103728600D01*
X176288600Y-104109600D01*
G37*
G36*
X176288600Y-104744600D02*
G01*
X175272600Y-104744600D01*
X175272600Y-104363600D01*
X176288600Y-104363600D01*
X176288600Y-104744600D01*
G37*
G36*
X176288600Y-105379600D02*
G01*
X175272600Y-105379600D01*
X175272600Y-104998600D01*
X176288600Y-104998600D01*
X176288600Y-105379600D01*
G37*
G36*
X178828600Y-104109600D02*
G01*
X177812600Y-104109600D01*
X177812600Y-103728600D01*
X178828600Y-103728600D01*
X178828600Y-104109600D01*
G37*
G36*
X178828600Y-104744600D02*
G01*
X177812600Y-104744600D01*
X177812600Y-104363600D01*
X178828600Y-104363600D01*
X178828600Y-104744600D01*
G37*
G36*
X178828600Y-105379600D02*
G01*
X177812600Y-105379600D01*
X177812600Y-104998600D01*
X178828600Y-104998600D01*
X178828600Y-105379600D01*
G37*
D22*
%TO.C,C2*%
X113585600Y-117988600D02*
X113585600Y-116138600D01*
X114785600Y-116138600D02*
X114785600Y-117988600D01*
D21*
G36*
X114835600Y-116563600D02*
G01*
X113535600Y-116563600D01*
X113535600Y-116063600D01*
X114835600Y-116063600D01*
X114835600Y-116563600D01*
G37*
G36*
X114835600Y-118063600D02*
G01*
X113535600Y-118063600D01*
X113535600Y-117563600D01*
X114835600Y-117563600D01*
X114835600Y-118063600D01*
G37*
%TO.C,JP11*%
G36*
X132854600Y-116047600D02*
G01*
X132346600Y-116047600D01*
X132346600Y-115539600D01*
X132854600Y-115539600D01*
X132854600Y-116047600D01*
G37*
G36*
X135394600Y-116047600D02*
G01*
X134886600Y-116047600D01*
X134886600Y-115539600D01*
X135394600Y-115539600D01*
X135394600Y-116047600D01*
G37*
D18*
%TO.C,R4*%
X196989600Y-118841600D02*
X196989600Y-125445600D01*
X197243600Y-118587600D02*
X196989600Y-118841600D01*
X197243600Y-125699600D02*
X196989600Y-125445600D01*
X197243600Y-125699600D02*
X203847600Y-125699600D01*
X198031000Y-122143600D02*
X197650000Y-122143600D01*
X198767600Y-120365600D02*
X198513600Y-120111600D01*
X198767600Y-123794600D02*
X198513600Y-124048600D01*
X199021600Y-121762600D02*
X199021600Y-122524600D01*
X199021600Y-122524600D02*
X199783600Y-122524600D01*
X199783600Y-121762600D02*
X199021600Y-121762600D01*
X199783600Y-122524600D02*
X200164600Y-122905600D01*
X199910600Y-123159600D02*
X200545600Y-123794600D01*
X200164600Y-120619600D02*
X200164600Y-121381600D01*
X200164600Y-121381600D02*
X199783600Y-121762600D01*
X200164600Y-122905600D02*
X200164600Y-123159600D01*
X200164600Y-123159600D02*
X199910600Y-123159600D01*
X200545600Y-123794600D02*
X201180600Y-123159600D01*
X200545600Y-124607400D02*
X200545600Y-124988400D01*
X200926600Y-120619600D02*
X200164600Y-120619600D01*
X200926600Y-121381600D02*
X200926600Y-120619600D01*
X200926600Y-121381600D02*
X201307600Y-121762600D01*
X200926600Y-122905600D02*
X201307600Y-122524600D01*
X200926600Y-123159600D02*
X200926600Y-122905600D01*
X201180600Y-123159600D02*
X200926600Y-123159600D01*
X201307600Y-122524600D02*
X202069600Y-122524600D01*
X202069600Y-121762600D02*
X201307600Y-121762600D01*
X202069600Y-122524600D02*
X202069600Y-121762600D01*
X202323600Y-120365600D02*
X202577600Y-120111600D01*
X202450600Y-123794600D02*
X202704600Y-124048600D01*
X203060200Y-122143600D02*
X203441200Y-122143600D01*
X203847600Y-118587600D02*
X197243600Y-118587600D01*
X203847600Y-118587600D02*
X204101600Y-118841600D01*
X203847600Y-125699600D02*
X204101600Y-125445600D01*
X204101600Y-125445600D02*
X204101600Y-118841600D01*
X202196600Y-120365600D02*
G75*
G02*
X198894599Y-120365601I-1651000J-1727201D01*
G01*
X202577600Y-122143600D02*
G75*
G02*
X198513600Y-122143600I-2032000J0D01*
G01*
X198513600Y-122143600D02*
G75*
G02*
X202577600Y-122143600I2032000J0D01*
G01*
D16*
%TO.C,L4*%
X164305600Y-103728600D02*
G75*
G02*
X155505600Y-103728600I-4400000J0D01*
G01*
X155505600Y-103728600D02*
G75*
G02*
X164305600Y-103728600I4400000J0D01*
G01*
D18*
%TO.C,SW2*%
X117233600Y-114650600D02*
X117233600Y-116682600D01*
X117233600Y-116682600D02*
X117233600Y-119984600D01*
X117233600Y-119984600D02*
X117233600Y-122016600D01*
X117233600Y-119984600D02*
X117741600Y-119984600D01*
X117233600Y-122016600D02*
X131457600Y-122016600D01*
X117741600Y-116682600D02*
X117233600Y-116682600D01*
X117741600Y-119984600D02*
X117741600Y-116682600D01*
X118503600Y-116428600D02*
X118503600Y-120238600D01*
X118503600Y-116428600D02*
X120027600Y-116428600D01*
X120027600Y-120238600D02*
X118503600Y-120238600D01*
X120027600Y-120238600D02*
X120027600Y-116428600D01*
X121043600Y-116428600D02*
X121043600Y-120238600D01*
X121043600Y-116428600D02*
X122567600Y-116428600D01*
X122567600Y-120238600D02*
X121043600Y-120238600D01*
X122567600Y-120238600D02*
X122567600Y-116428600D01*
X123583600Y-116428600D02*
X123583600Y-120238600D01*
X123583600Y-116428600D02*
X125107600Y-116428600D01*
X125107600Y-120238600D02*
X123583600Y-120238600D01*
X125107600Y-120238600D02*
X125107600Y-116428600D01*
X126123600Y-116428600D02*
X126123600Y-120238600D01*
X126123600Y-116428600D02*
X127647600Y-116428600D01*
X127647600Y-120238600D02*
X126123600Y-120238600D01*
X127647600Y-120238600D02*
X127647600Y-116428600D01*
X128663600Y-116428600D02*
X128663600Y-120238600D01*
X128663600Y-116428600D02*
X130187600Y-116428600D01*
X130187600Y-120238600D02*
X128663600Y-120238600D01*
X130187600Y-120238600D02*
X130187600Y-116428600D01*
X130949600Y-116682600D02*
X130949600Y-119984600D01*
X130949600Y-119984600D02*
X131457600Y-119984600D01*
X131457600Y-114650600D02*
X117233600Y-114650600D01*
X131457600Y-116682600D02*
X130949600Y-116682600D01*
X131457600Y-116682600D02*
X131457600Y-114650600D01*
X131457600Y-119984600D02*
X131457600Y-116682600D01*
X131457600Y-122016600D02*
X131457600Y-119984600D01*
D21*
G36*
X119773600Y-118714600D02*
G01*
X118757600Y-118714600D01*
X118757600Y-118333600D01*
X119773600Y-118333600D01*
X119773600Y-118714600D01*
G37*
G36*
X119773600Y-119349600D02*
G01*
X118757600Y-119349600D01*
X118757600Y-118968600D01*
X119773600Y-118968600D01*
X119773600Y-119349600D01*
G37*
G36*
X119773600Y-119984600D02*
G01*
X118757600Y-119984600D01*
X118757600Y-119603600D01*
X119773600Y-119603600D01*
X119773600Y-119984600D01*
G37*
G36*
X122313600Y-118714600D02*
G01*
X121297600Y-118714600D01*
X121297600Y-118333600D01*
X122313600Y-118333600D01*
X122313600Y-118714600D01*
G37*
G36*
X122313600Y-119349600D02*
G01*
X121297600Y-119349600D01*
X121297600Y-118968600D01*
X122313600Y-118968600D01*
X122313600Y-119349600D01*
G37*
G36*
X122313600Y-119984600D02*
G01*
X121297600Y-119984600D01*
X121297600Y-119603600D01*
X122313600Y-119603600D01*
X122313600Y-119984600D01*
G37*
G36*
X124853600Y-118714600D02*
G01*
X123837600Y-118714600D01*
X123837600Y-118333600D01*
X124853600Y-118333600D01*
X124853600Y-118714600D01*
G37*
G36*
X124853600Y-119349600D02*
G01*
X123837600Y-119349600D01*
X123837600Y-118968600D01*
X124853600Y-118968600D01*
X124853600Y-119349600D01*
G37*
G36*
X124853600Y-119984600D02*
G01*
X123837600Y-119984600D01*
X123837600Y-119603600D01*
X124853600Y-119603600D01*
X124853600Y-119984600D01*
G37*
G36*
X127393600Y-118714600D02*
G01*
X126377600Y-118714600D01*
X126377600Y-118333600D01*
X127393600Y-118333600D01*
X127393600Y-118714600D01*
G37*
G36*
X127393600Y-119349600D02*
G01*
X126377600Y-119349600D01*
X126377600Y-118968600D01*
X127393600Y-118968600D01*
X127393600Y-119349600D01*
G37*
G36*
X127393600Y-119984600D02*
G01*
X126377600Y-119984600D01*
X126377600Y-119603600D01*
X127393600Y-119603600D01*
X127393600Y-119984600D01*
G37*
G36*
X129933600Y-118714600D02*
G01*
X128917600Y-118714600D01*
X128917600Y-118333600D01*
X129933600Y-118333600D01*
X129933600Y-118714600D01*
G37*
G36*
X129933600Y-119349600D02*
G01*
X128917600Y-119349600D01*
X128917600Y-118968600D01*
X129933600Y-118968600D01*
X129933600Y-119349600D01*
G37*
G36*
X129933600Y-119984600D02*
G01*
X128917600Y-119984600D01*
X128917600Y-119603600D01*
X129933600Y-119603600D01*
X129933600Y-119984600D01*
G37*
%TO.C,JP2*%
G36*
X87134600Y-98902600D02*
G01*
X86626600Y-98902600D01*
X86626600Y-98394600D01*
X87134600Y-98394600D01*
X87134600Y-98902600D01*
G37*
G36*
X87134600Y-101442600D02*
G01*
X86626600Y-101442600D01*
X86626600Y-100934600D01*
X87134600Y-100934600D01*
X87134600Y-101442600D01*
G37*
D22*
%TO.C,C1*%
X114220600Y-105288600D02*
X114220600Y-103438600D01*
X115420600Y-103438600D02*
X115420600Y-105288600D01*
D21*
G36*
X115470600Y-103863600D02*
G01*
X114170600Y-103863600D01*
X114170600Y-103363600D01*
X115470600Y-103363600D01*
X115470600Y-103863600D01*
G37*
G36*
X115470600Y-105363600D02*
G01*
X114170600Y-105363600D01*
X114170600Y-104863600D01*
X115470600Y-104863600D01*
X115470600Y-105363600D01*
G37*
%TO.C,JP8*%
G36*
X132854600Y-108427600D02*
G01*
X132346600Y-108427600D01*
X132346600Y-107919600D01*
X132854600Y-107919600D01*
X132854600Y-108427600D01*
G37*
G36*
X135394600Y-108427600D02*
G01*
X134886600Y-108427600D01*
X134886600Y-107919600D01*
X135394600Y-107919600D01*
X135394600Y-108427600D01*
G37*
%TO.C,JP6*%
G36*
X200799600Y-109062600D02*
G01*
X200291600Y-109062600D01*
X200291600Y-108554600D01*
X200799600Y-108554600D01*
X200799600Y-109062600D01*
G37*
G36*
X200799600Y-111602600D02*
G01*
X200291600Y-111602600D01*
X200291600Y-111094600D01*
X200799600Y-111094600D01*
X200799600Y-111602600D01*
G37*
%TO.C,JP1*%
G36*
X200799600Y-101442600D02*
G01*
X200291600Y-101442600D01*
X200291600Y-100934600D01*
X200799600Y-100934600D01*
X200799600Y-101442600D01*
G37*
G36*
X203339600Y-101442600D02*
G01*
X202831600Y-101442600D01*
X202831600Y-100934600D01*
X203339600Y-100934600D01*
X203339600Y-101442600D01*
G37*
D22*
%TO.C,C4*%
X182800600Y-93223600D02*
X182800600Y-91373600D01*
X184000600Y-91373600D02*
X184000600Y-93223600D01*
D21*
G36*
X184050600Y-91798600D02*
G01*
X182750600Y-91798600D01*
X182750600Y-91298600D01*
X184050600Y-91298600D01*
X184050600Y-91798600D01*
G37*
G36*
X184050600Y-93298600D02*
G01*
X182750600Y-93298600D01*
X182750600Y-92798600D01*
X184050600Y-92798600D01*
X184050600Y-93298600D01*
G37*
%TO.C,U$2*%
G36*
X212335600Y-140968600D02*
G01*
X212045600Y-140968600D01*
X212045600Y-136738600D01*
X212335600Y-136738600D01*
X212335600Y-140968600D01*
G37*
G36*
X212325600Y-138192016D02*
G01*
X212325600Y-137902691D01*
X213207138Y-135558600D01*
X213869327Y-135558600D01*
X212325600Y-138192016D01*
G37*
G36*
X216531919Y-135501207D02*
G01*
X212325600Y-138733748D01*
X212325600Y-138541427D01*
X215779161Y-135318104D01*
X216531919Y-135501207D01*
G37*
G36*
X216146767Y-137806720D02*
G01*
X212325600Y-139160676D01*
X212325600Y-139030370D01*
X216013737Y-137366700D01*
X216146767Y-137806720D01*
G37*
G36*
X215415600Y-140388600D02*
G01*
X214995600Y-140388600D01*
X214995600Y-140258600D01*
X215415600Y-140258600D01*
X215415600Y-140388600D01*
G37*
G36*
X215415600Y-140668600D02*
G01*
X215005600Y-140668600D01*
X215005600Y-140538600D01*
X215415600Y-140538600D01*
X215415600Y-140668600D01*
G37*
G36*
X217335600Y-136248600D02*
G01*
X216785600Y-136248600D01*
X216785600Y-135558600D01*
X217335600Y-135558600D01*
X217335600Y-136248600D01*
G37*
G36*
X218975600Y-140968600D02*
G01*
X218685600Y-140968600D01*
X218685600Y-136698600D01*
X218975600Y-136698600D01*
X218975600Y-140968600D01*
G37*
G36*
X216095600Y-140518600D02*
G01*
X216245600Y-140518600D01*
X216245600Y-140617812D01*
X215945600Y-140669536D01*
X215945600Y-139958600D01*
X216095600Y-139958600D01*
X216095600Y-140518600D01*
G37*
G36*
X218695600Y-139468600D02*
G01*
X217473852Y-139468600D01*
X217616787Y-138998956D01*
X217820179Y-138978617D01*
X218110256Y-138958612D01*
X218110257Y-138958612D01*
X218390167Y-138938618D01*
X218695600Y-138908075D01*
X218695600Y-139468600D01*
G37*
G36*
X213099457Y-140538600D02*
G01*
X213525600Y-140538600D01*
X213525600Y-140398600D01*
X213675600Y-140398600D01*
X213675600Y-140668600D01*
X212905600Y-140668600D01*
X212905600Y-140552195D01*
X213267794Y-139958600D01*
X213449457Y-139958600D01*
X213099457Y-140538600D01*
G37*
G36*
X218225278Y-137105371D02*
G01*
X217935365Y-137935122D01*
X217485431Y-139464898D01*
X217060514Y-141194911D01*
X216825752Y-140204823D01*
X216695768Y-139714884D01*
X216525789Y-139074962D01*
X216345807Y-138455021D01*
X216005877Y-137375244D01*
X215795976Y-136815510D01*
X215532824Y-136238600D01*
X218578033Y-136238600D01*
X218225278Y-137105371D01*
G37*
G36*
X216637086Y-139468600D02*
G01*
X212325600Y-139468600D01*
X212325600Y-139368600D01*
X212450426Y-139368600D01*
X212730244Y-139348613D01*
X213010256Y-139328612D01*
X213310267Y-139308611D01*
X213310268Y-139308611D01*
X213590244Y-139288613D01*
X214710244Y-139208613D01*
X214990256Y-139188612D01*
X215290267Y-139168611D01*
X215290268Y-139168611D01*
X215550242Y-139148613D01*
X215850267Y-139128611D01*
X215850268Y-139128611D01*
X216130244Y-139108613D01*
X216410186Y-139088617D01*
X216410185Y-139088617D01*
X216534367Y-139078269D01*
X216637086Y-139468600D01*
G37*
G36*
X218354487Y-135320449D02*
G01*
X218504708Y-135520744D01*
X218684907Y-135801054D01*
X218815173Y-136041544D01*
X218895403Y-136262178D01*
X218955537Y-136522759D01*
X218976186Y-136708600D01*
X218686558Y-136708600D01*
X218655753Y-136564842D01*
X218625801Y-136465005D01*
X218585879Y-136325278D01*
X218526058Y-136185696D01*
X218466191Y-136065962D01*
X218386345Y-135926231D01*
X218306486Y-135806443D01*
X218206710Y-135666755D01*
X218097013Y-135547086D01*
X217807331Y-135267393D01*
X217665899Y-135158600D01*
X218212869Y-135158600D01*
X218354487Y-135320449D01*
G37*
G36*
X215671712Y-133558660D02*
G01*
X215772373Y-133598924D01*
X215932406Y-133658937D01*
X216032490Y-133698971D01*
X216272682Y-133799051D01*
X216592960Y-133959190D01*
X216733060Y-134039246D01*
X216953124Y-134159281D01*
X217113312Y-134259399D01*
X217293374Y-134379440D01*
X217413441Y-134459484D01*
X217553617Y-134559611D01*
X217753790Y-134719749D01*
X217894000Y-134839929D01*
X218054136Y-135000064D01*
X218222671Y-135168600D01*
X217678846Y-135168600D01*
X217477772Y-135007739D01*
X217048087Y-134757923D01*
X216748177Y-134587973D01*
X216468539Y-134438167D01*
X216069231Y-134288426D01*
X215609868Y-134198551D01*
X215505600Y-134188125D01*
X215505600Y-133548278D01*
X215671712Y-133558660D01*
G37*
G36*
X215891502Y-134528681D02*
G01*
X215991697Y-134548720D01*
X216311837Y-134628755D01*
X216541612Y-134688696D01*
X216671471Y-134708675D01*
X216771410Y-134728662D01*
X216931100Y-134748623D01*
X217062132Y-134758703D01*
X217489581Y-135008917D01*
X216870247Y-134998595D01*
X216709879Y-134978549D01*
X216589581Y-134958499D01*
X216509500Y-134938479D01*
X216409503Y-134918480D01*
X215929499Y-134798479D01*
X215829694Y-134778518D01*
X215710186Y-134758600D01*
X215331014Y-134758600D01*
X215211506Y-134778518D01*
X215111701Y-134798479D01*
X214631749Y-134918467D01*
X214451554Y-134958510D01*
X214331365Y-134978542D01*
X214190994Y-134998594D01*
X213532881Y-135008877D01*
X213929027Y-134758680D01*
X214110152Y-134748617D01*
X214269868Y-134728653D01*
X214389644Y-134708690D01*
X214569443Y-134668735D01*
X215049503Y-134548720D01*
X215149698Y-134528681D01*
X215270186Y-134508600D01*
X215771014Y-134508600D01*
X215891502Y-134528681D01*
G37*
G36*
X214462197Y-139978808D02*
G01*
X214503562Y-139999491D01*
X214544970Y-140040899D01*
X214565404Y-140102201D01*
X214575600Y-140142984D01*
X214575600Y-140364626D01*
X214546282Y-140433037D01*
X214546578Y-140433469D01*
X214545045Y-140435922D01*
X214541621Y-140443911D01*
X214540800Y-140442715D01*
X214494538Y-140516733D01*
X214453884Y-140557387D01*
X214372951Y-140618087D01*
X214251999Y-140658404D01*
X214211216Y-140668600D01*
X213987769Y-140668600D01*
X213922000Y-140558986D01*
X214149993Y-140548622D01*
X214249319Y-140528757D01*
X214307897Y-140509231D01*
X214405600Y-140411528D01*
X214405600Y-140389263D01*
X214330911Y-140398600D01*
X213949789Y-140398600D01*
X213888249Y-140378087D01*
X213846478Y-140346759D01*
X213825832Y-140295142D01*
X213805544Y-140213991D01*
X213815673Y-140102569D01*
X213836230Y-140040899D01*
X213857415Y-140019714D01*
X213888547Y-139998959D01*
X214049984Y-139958600D01*
X214351051Y-139958600D01*
X214462197Y-139978808D01*
G37*
G36*
X212431701Y-140978720D02*
G01*
X212531506Y-140998682D01*
X212651554Y-141018690D01*
X212741525Y-141038683D01*
X212871391Y-141058663D01*
X212991356Y-141078656D01*
X213131365Y-141098658D01*
X213251357Y-141118657D01*
X213391300Y-141138649D01*
X213871188Y-141198635D01*
X214051098Y-141218625D01*
X214251098Y-141238625D01*
X214470998Y-141258616D01*
X214750877Y-141278607D01*
X215150730Y-141298600D01*
X215890470Y-141298600D01*
X216290305Y-141278608D01*
X216550191Y-141258617D01*
X216770103Y-141238625D01*
X216770102Y-141238625D01*
X216970102Y-141218625D01*
X217150012Y-141198635D01*
X217309901Y-141178648D01*
X217449936Y-141158644D01*
X217609901Y-141138648D01*
X217749844Y-141118657D01*
X217869835Y-141098658D01*
X218009845Y-141078656D01*
X218129778Y-141058668D01*
X218249694Y-141038682D01*
X218349698Y-141018681D01*
X218469778Y-140998668D01*
X218589695Y-140978681D01*
X218690105Y-140958600D01*
X218975600Y-140958600D01*
X218975600Y-141548600D01*
X212045600Y-141548600D01*
X212045600Y-140958600D01*
X212351216Y-140958600D01*
X212431701Y-140978720D01*
G37*
G36*
X215515600Y-134187890D02*
G01*
X215251409Y-134228534D01*
X215031773Y-134268468D01*
X214832329Y-134328301D01*
X214512759Y-134468113D01*
X213973061Y-134747956D01*
X213533488Y-135017694D01*
X213223911Y-135267353D01*
X212954122Y-135527150D01*
X212874384Y-135606888D01*
X212694684Y-135846488D01*
X212574932Y-136026116D01*
X212495164Y-136185652D01*
X212455326Y-136285247D01*
X212395436Y-136484881D01*
X212334578Y-136748600D01*
X212045075Y-136748600D01*
X212065656Y-136542786D01*
X212125781Y-136282244D01*
X212165886Y-136161931D01*
X212226034Y-136001537D01*
X212306188Y-135851247D01*
X212386330Y-135700980D01*
X212526596Y-135500602D01*
X212686749Y-135300410D01*
X212806929Y-135160200D01*
X213007157Y-134959971D01*
X213207300Y-134779843D01*
X213347470Y-134659698D01*
X213587666Y-134479551D01*
X213787823Y-134339441D01*
X214007971Y-134199346D01*
X214208127Y-134079253D01*
X214468296Y-133939162D01*
X214628447Y-133859086D01*
X214848580Y-133759026D01*
X214988822Y-133698922D01*
X215048879Y-133678903D01*
X215148794Y-133638937D01*
X215309337Y-133578733D01*
X215515600Y-133547794D01*
X215515600Y-134187890D01*
G37*
G36*
X215871401Y-135068661D02*
G01*
X215971697Y-135088720D01*
X216051702Y-135108721D01*
X216151779Y-135128737D01*
X216291897Y-135168769D01*
X216531757Y-135228735D01*
X216711525Y-135268683D01*
X216970983Y-135308600D01*
X217670385Y-135308600D01*
X217902887Y-135288382D01*
X218078863Y-135516116D01*
X217981844Y-135548456D01*
X217871428Y-135568532D01*
X217741229Y-135588562D01*
X217540849Y-135608600D01*
X217330428Y-135608600D01*
X216749816Y-135568558D01*
X216509387Y-135508451D01*
X215829688Y-135348521D01*
X215610261Y-135318600D01*
X215430867Y-135318600D01*
X215241351Y-135338549D01*
X215141631Y-135358493D01*
X215051757Y-135378465D01*
X214571749Y-135498467D01*
X214481685Y-135518481D01*
X214391633Y-135538492D01*
X214291444Y-135558530D01*
X214151215Y-135578563D01*
X213960862Y-135598600D01*
X213830514Y-135598600D01*
X213250020Y-135578583D01*
X212940229Y-135516625D01*
X213199044Y-135268163D01*
X213391122Y-135308600D01*
X214070243Y-135308600D01*
X214209844Y-135288657D01*
X214329694Y-135268682D01*
X214429499Y-135248721D01*
X214589451Y-135208733D01*
X214679365Y-135188752D01*
X214749306Y-135168769D01*
X214829387Y-135148749D01*
X214909451Y-135128733D01*
X214999515Y-135108719D01*
X215089567Y-135088708D01*
X215189756Y-135068670D01*
X215330245Y-135048600D01*
X215710911Y-135048600D01*
X215871401Y-135068661D01*
G37*
G36*
X215553106Y-139979035D02*
G01*
X215574709Y-140000638D01*
X215595600Y-140042420D01*
X215595600Y-140265671D01*
X215553562Y-140307709D01*
X215511780Y-140328600D01*
X215475600Y-140328600D01*
X215475600Y-140338600D01*
X215522114Y-140338600D01*
X215553785Y-140359714D01*
X215575600Y-140381529D01*
X215575600Y-140626690D01*
X215552601Y-140638189D01*
X215471507Y-140668600D01*
X215405999Y-140668600D01*
X215395372Y-140541076D01*
X215425600Y-140520924D01*
X215425600Y-140396690D01*
X215405600Y-140386690D01*
X215405600Y-140260510D01*
X215427636Y-140249492D01*
X215445600Y-140231528D01*
X215445600Y-140116690D01*
X215408680Y-140098230D01*
X215379790Y-140088600D01*
X215051217Y-140088600D01*
X215012343Y-140098318D01*
X214975600Y-140116690D01*
X214975600Y-140240924D01*
X215005600Y-140260924D01*
X215005600Y-140385114D01*
X214984932Y-140416116D01*
X214975600Y-140434780D01*
X214975600Y-140481528D01*
X215035600Y-140541529D01*
X215035600Y-140668600D01*
X214949984Y-140668600D01*
X214868044Y-140648115D01*
X214846230Y-140626301D01*
X214825600Y-140564411D01*
X214825600Y-140422420D01*
X214846491Y-140380638D01*
X214888529Y-140338600D01*
X214925600Y-140338600D01*
X214925600Y-140328600D01*
X214909420Y-140328600D01*
X214867638Y-140307709D01*
X214825600Y-140265671D01*
X214825600Y-140021529D01*
X214868044Y-139979085D01*
X214949984Y-139958600D01*
X215461149Y-139958600D01*
X215553106Y-139979035D01*
G37*
D22*
%TO.C,C3*%
X182165600Y-105923600D02*
X182165600Y-104073600D01*
X183365600Y-104073600D02*
X183365600Y-105923600D01*
D21*
G36*
X183415600Y-104498600D02*
G01*
X182115600Y-104498600D01*
X182115600Y-103998600D01*
X183415600Y-103998600D01*
X183415600Y-104498600D01*
G37*
G36*
X183415600Y-105998600D02*
G01*
X182115600Y-105998600D01*
X182115600Y-105498600D01*
X183415600Y-105498600D01*
X183415600Y-105998600D01*
G37*
%TO.C,JP4*%
G36*
X96659600Y-98902600D02*
G01*
X96151600Y-98902600D01*
X96151600Y-98394600D01*
X96659600Y-98394600D01*
X96659600Y-98902600D01*
G37*
G36*
X96659600Y-101442600D02*
G01*
X96151600Y-101442600D01*
X96151600Y-100934600D01*
X96659600Y-100934600D01*
X96659600Y-101442600D01*
G37*
D18*
%TO.C,R1*%
X83527800Y-88425100D02*
X83527800Y-90342800D01*
X85153400Y-88425100D02*
X85153400Y-90342800D01*
D21*
G36*
X85216900Y-88425100D02*
G01*
X83464300Y-88425100D01*
X83464300Y-87688500D01*
X85216900Y-87688500D01*
X85216900Y-88425100D01*
G37*
G36*
X85216900Y-91066700D02*
G01*
X83464300Y-91066700D01*
X83464300Y-90330100D01*
X85216900Y-90330100D01*
X85216900Y-91066700D01*
G37*
%TO.C,U$1*%
G36*
X78265600Y-73298600D02*
G01*
X77975600Y-73298600D01*
X77975600Y-69028600D01*
X78265600Y-69028600D01*
X78265600Y-73298600D01*
G37*
G36*
X80165600Y-74438600D02*
G01*
X79615600Y-74438600D01*
X79615600Y-73748600D01*
X80165600Y-73748600D01*
X80165600Y-74438600D01*
G37*
G36*
X81945600Y-69458600D02*
G01*
X81535600Y-69458600D01*
X81535600Y-69328600D01*
X81945600Y-69328600D01*
X81945600Y-69458600D01*
G37*
G36*
X81955600Y-69738600D02*
G01*
X81535600Y-69738600D01*
X81535600Y-69608600D01*
X81955600Y-69608600D01*
X81955600Y-69738600D01*
G37*
G36*
X84625600Y-70966830D02*
G01*
X80937463Y-72630500D01*
X80804433Y-72190480D01*
X84625600Y-70836524D01*
X84625600Y-70966830D01*
G37*
G36*
X84625600Y-71455773D02*
G01*
X81172039Y-74679096D01*
X80419281Y-74495993D01*
X84625600Y-71263452D01*
X84625600Y-71455773D01*
G37*
G36*
X84625600Y-72094509D02*
G01*
X83744062Y-74438600D01*
X83081873Y-74438600D01*
X84625600Y-71805184D01*
X84625600Y-72094509D01*
G37*
G36*
X84905600Y-73258600D02*
G01*
X84615600Y-73258600D01*
X84615600Y-69028600D01*
X84905600Y-69028600D01*
X84905600Y-73258600D01*
G37*
G36*
X81005600Y-70038600D02*
G01*
X80855600Y-70038600D01*
X80855600Y-69478600D01*
X80705600Y-69478600D01*
X80705600Y-69379388D01*
X81005600Y-69327664D01*
X81005600Y-70038600D01*
G37*
G36*
X79334413Y-70998244D02*
G01*
X79131021Y-71018583D01*
X78840944Y-71038588D01*
X78840943Y-71038588D01*
X78561033Y-71058582D01*
X78255600Y-71089125D01*
X78255600Y-70528600D01*
X79477348Y-70528600D01*
X79334413Y-70998244D01*
G37*
G36*
X84045600Y-69445005D02*
G01*
X83683406Y-70038600D01*
X83501743Y-70038600D01*
X83851743Y-69458600D01*
X83425600Y-69458600D01*
X83425600Y-69598600D01*
X83275600Y-69598600D01*
X83275600Y-69328600D01*
X84045600Y-69328600D01*
X84045600Y-69445005D01*
G37*
G36*
X80125448Y-69792377D02*
G01*
X80255432Y-70282316D01*
X80425411Y-70922238D01*
X80605393Y-71542179D01*
X80945323Y-72621956D01*
X81155224Y-73181690D01*
X81418376Y-73758600D01*
X78373167Y-73758600D01*
X78725922Y-72891829D01*
X79015835Y-72062078D01*
X79465769Y-70532302D01*
X79890686Y-68802289D01*
X80125448Y-69792377D01*
G37*
G36*
X78295447Y-73432358D02*
G01*
X78325399Y-73532195D01*
X78365321Y-73671922D01*
X78425142Y-73811504D01*
X78485009Y-73931238D01*
X78564855Y-74070969D01*
X78644714Y-74190757D01*
X78744490Y-74330445D01*
X78854187Y-74450114D01*
X79143869Y-74729807D01*
X79285301Y-74838600D01*
X78738331Y-74838600D01*
X78596713Y-74676751D01*
X78446492Y-74476456D01*
X78266293Y-74196146D01*
X78136027Y-73955656D01*
X78055797Y-73735022D01*
X77995663Y-73474441D01*
X77975014Y-73288600D01*
X78264642Y-73288600D01*
X78295447Y-73432358D01*
G37*
G36*
X84625600Y-70628600D02*
G01*
X84500774Y-70628600D01*
X84220956Y-70648587D01*
X83940944Y-70668588D01*
X83640933Y-70688589D01*
X83640932Y-70688589D01*
X83360956Y-70708587D01*
X82240956Y-70788587D01*
X81960944Y-70808588D01*
X81660933Y-70828589D01*
X81660932Y-70828589D01*
X81400958Y-70848587D01*
X81100933Y-70868589D01*
X81100932Y-70868589D01*
X80820956Y-70888587D01*
X80541014Y-70908583D01*
X80541015Y-70908583D01*
X80416833Y-70918931D01*
X80314114Y-70528600D01*
X84625600Y-70528600D01*
X84625600Y-70628600D01*
G37*
G36*
X79473428Y-74989461D02*
G01*
X79903113Y-75239277D01*
X80203023Y-75409227D01*
X80482661Y-75559033D01*
X80881969Y-75708774D01*
X81341332Y-75798649D01*
X81445600Y-75809075D01*
X81445600Y-76448922D01*
X81279488Y-76438540D01*
X81178827Y-76398276D01*
X81018794Y-76338263D01*
X80918710Y-76298229D01*
X80678518Y-76198149D01*
X80358240Y-76038010D01*
X80218140Y-75957954D01*
X79998076Y-75837919D01*
X79837888Y-75737801D01*
X79657826Y-75617760D01*
X79537759Y-75537716D01*
X79397583Y-75437589D01*
X79197410Y-75277451D01*
X79057200Y-75157271D01*
X78897064Y-74997136D01*
X78728529Y-74828600D01*
X79272354Y-74828600D01*
X79473428Y-74989461D01*
G37*
G36*
X80080953Y-74998605D02*
G01*
X80241321Y-75018651D01*
X80361619Y-75038701D01*
X80441700Y-75058721D01*
X80541697Y-75078720D01*
X81021701Y-75198721D01*
X81121506Y-75218682D01*
X81241014Y-75238600D01*
X81620186Y-75238600D01*
X81739694Y-75218682D01*
X81839499Y-75198721D01*
X82319451Y-75078733D01*
X82499646Y-75038690D01*
X82619835Y-75018658D01*
X82760206Y-74998606D01*
X83418319Y-74988323D01*
X83022173Y-75238520D01*
X82841048Y-75248583D01*
X82681332Y-75268547D01*
X82561556Y-75288510D01*
X82381757Y-75328465D01*
X81901697Y-75448480D01*
X81801502Y-75468519D01*
X81681014Y-75488600D01*
X81180186Y-75488600D01*
X81059698Y-75468519D01*
X80959503Y-75448480D01*
X80639363Y-75368445D01*
X80409588Y-75308504D01*
X80279729Y-75288525D01*
X80179790Y-75268538D01*
X80020100Y-75248577D01*
X79889068Y-75238497D01*
X79461619Y-74988283D01*
X80080953Y-74998605D01*
G37*
G36*
X83029200Y-69438214D02*
G01*
X82801207Y-69448578D01*
X82701881Y-69468443D01*
X82643303Y-69487969D01*
X82545600Y-69585672D01*
X82545600Y-69607937D01*
X82620289Y-69598600D01*
X83001411Y-69598600D01*
X83062951Y-69619113D01*
X83104722Y-69650441D01*
X83125368Y-69702058D01*
X83145656Y-69783209D01*
X83135527Y-69894631D01*
X83114970Y-69956301D01*
X83093785Y-69977486D01*
X83062653Y-69998241D01*
X82901216Y-70038600D01*
X82600149Y-70038600D01*
X82489003Y-70018392D01*
X82447638Y-69997709D01*
X82406230Y-69956301D01*
X82385796Y-69894999D01*
X82375600Y-69854216D01*
X82375600Y-69632574D01*
X82404918Y-69564163D01*
X82404622Y-69563731D01*
X82406155Y-69561278D01*
X82409579Y-69553289D01*
X82410400Y-69554485D01*
X82456662Y-69480467D01*
X82497316Y-69439813D01*
X82578249Y-69379113D01*
X82699201Y-69338796D01*
X82739984Y-69328600D01*
X82963431Y-69328600D01*
X83029200Y-69438214D01*
G37*
G36*
X84905600Y-69038600D02*
G01*
X84599984Y-69038600D01*
X84519499Y-69018480D01*
X84419694Y-68998518D01*
X84299646Y-68978510D01*
X84209675Y-68958517D01*
X84079809Y-68938537D01*
X83959844Y-68918544D01*
X83819835Y-68898542D01*
X83699843Y-68878543D01*
X83559900Y-68858551D01*
X83080012Y-68798565D01*
X82900102Y-68778575D01*
X82700102Y-68758575D01*
X82480202Y-68738584D01*
X82200323Y-68718593D01*
X81800470Y-68698600D01*
X81060730Y-68698600D01*
X80660895Y-68718592D01*
X80401009Y-68738583D01*
X80181097Y-68758575D01*
X80181098Y-68758575D01*
X79981098Y-68778575D01*
X79801188Y-68798565D01*
X79641299Y-68818552D01*
X79501264Y-68838556D01*
X79341299Y-68858552D01*
X79201356Y-68878543D01*
X79081365Y-68898542D01*
X78941355Y-68918544D01*
X78821422Y-68938532D01*
X78701506Y-68958518D01*
X78601502Y-68978519D01*
X78481422Y-68998532D01*
X78361505Y-69018519D01*
X78261095Y-69038600D01*
X77975600Y-69038600D01*
X77975600Y-68448600D01*
X84905600Y-68448600D01*
X84905600Y-69038600D01*
G37*
G36*
X84885544Y-73454414D02*
G01*
X84825419Y-73714956D01*
X84785314Y-73835269D01*
X84725166Y-73995663D01*
X84645012Y-74145953D01*
X84564870Y-74296220D01*
X84424604Y-74496598D01*
X84264451Y-74696790D01*
X84144271Y-74837000D01*
X83944043Y-75037229D01*
X83743900Y-75217357D01*
X83603730Y-75337502D01*
X83363534Y-75517649D01*
X83163377Y-75657759D01*
X82943229Y-75797854D01*
X82743073Y-75917947D01*
X82482904Y-76058038D01*
X82322753Y-76138114D01*
X82102620Y-76238174D01*
X81962378Y-76298278D01*
X81902321Y-76318297D01*
X81802406Y-76358263D01*
X81641863Y-76418467D01*
X81435600Y-76449406D01*
X81435600Y-75809310D01*
X81699791Y-75768666D01*
X81919427Y-75728732D01*
X82118871Y-75668899D01*
X82438441Y-75529087D01*
X82978139Y-75249244D01*
X83417712Y-74979506D01*
X83727289Y-74729847D01*
X83997078Y-74470050D01*
X84076816Y-74390312D01*
X84256516Y-74150712D01*
X84376268Y-73971084D01*
X84456036Y-73811548D01*
X84495874Y-73711953D01*
X84555764Y-73512319D01*
X84616622Y-73248600D01*
X84906125Y-73248600D01*
X84885544Y-73454414D01*
G37*
G36*
X80201384Y-74428642D02*
G01*
X80441813Y-74488749D01*
X81121512Y-74648679D01*
X81340939Y-74678600D01*
X81520333Y-74678600D01*
X81709849Y-74658651D01*
X81809569Y-74638707D01*
X81899443Y-74618735D01*
X82379451Y-74498733D01*
X82469515Y-74478719D01*
X82559567Y-74458708D01*
X82659756Y-74438670D01*
X82799985Y-74418637D01*
X82990338Y-74398600D01*
X83120686Y-74398600D01*
X83701180Y-74418617D01*
X84010971Y-74480575D01*
X83752156Y-74729037D01*
X83560078Y-74688600D01*
X82880957Y-74688600D01*
X82741356Y-74708543D01*
X82621506Y-74728518D01*
X82521701Y-74748479D01*
X82361749Y-74788467D01*
X82271835Y-74808448D01*
X82201894Y-74828431D01*
X82121813Y-74848451D01*
X82041749Y-74868467D01*
X81951685Y-74888481D01*
X81861633Y-74908492D01*
X81761444Y-74928530D01*
X81620955Y-74948600D01*
X81240289Y-74948600D01*
X81079799Y-74928539D01*
X80979503Y-74908480D01*
X80899498Y-74888479D01*
X80799421Y-74868463D01*
X80659303Y-74828431D01*
X80419443Y-74768465D01*
X80239675Y-74728517D01*
X79980217Y-74688600D01*
X79280815Y-74688600D01*
X79048313Y-74708818D01*
X78872337Y-74481084D01*
X78969356Y-74448744D01*
X79079772Y-74428668D01*
X79209971Y-74408638D01*
X79410351Y-74388600D01*
X79620772Y-74388600D01*
X80201384Y-74428642D01*
G37*
G36*
X81555828Y-69456124D02*
G01*
X81525600Y-69476276D01*
X81525600Y-69600510D01*
X81545600Y-69610510D01*
X81545600Y-69736690D01*
X81523564Y-69747708D01*
X81505600Y-69765672D01*
X81505600Y-69880510D01*
X81542520Y-69898970D01*
X81571410Y-69908600D01*
X81899983Y-69908600D01*
X81938857Y-69898882D01*
X81975600Y-69880510D01*
X81975600Y-69756276D01*
X81945600Y-69736276D01*
X81945600Y-69612086D01*
X81966268Y-69581084D01*
X81975600Y-69562420D01*
X81975600Y-69515672D01*
X81915600Y-69455671D01*
X81915600Y-69328600D01*
X82001216Y-69328600D01*
X82083156Y-69349085D01*
X82104970Y-69370899D01*
X82125600Y-69432789D01*
X82125600Y-69574780D01*
X82104709Y-69616562D01*
X82062671Y-69658600D01*
X82025600Y-69658600D01*
X82025600Y-69668600D01*
X82041780Y-69668600D01*
X82083562Y-69689491D01*
X82125600Y-69731529D01*
X82125600Y-69975671D01*
X82083156Y-70018115D01*
X82001216Y-70038600D01*
X81490051Y-70038600D01*
X81398094Y-70018165D01*
X81376491Y-69996562D01*
X81355600Y-69954780D01*
X81355600Y-69731529D01*
X81397638Y-69689491D01*
X81439420Y-69668600D01*
X81475600Y-69668600D01*
X81475600Y-69658600D01*
X81429086Y-69658600D01*
X81397415Y-69637486D01*
X81375600Y-69615671D01*
X81375600Y-69370510D01*
X81398599Y-69359011D01*
X81479693Y-69328600D01*
X81545201Y-69328600D01*
X81555828Y-69456124D01*
G37*
D16*
%TO.C,L2*%
X142080600Y-105633600D02*
G75*
G02*
X133280600Y-105633600I-4400000J0D01*
G01*
X133280600Y-105633600D02*
G75*
G02*
X142080600Y-105633600I4400000J0D01*
G01*
D18*
%TO.C,R3*%
X92849600Y-84551600D02*
X92849600Y-91155600D01*
X93103600Y-84297600D02*
X92849600Y-84551600D01*
X93103600Y-91409600D02*
X92849600Y-91155600D01*
X93103600Y-91409600D02*
X99707600Y-91409600D01*
X93891000Y-87853600D02*
X93510000Y-87853600D01*
X94500600Y-86202600D02*
X94246600Y-85948600D01*
X94627600Y-89631600D02*
X94373600Y-89885600D01*
X94881600Y-87472600D02*
X94881600Y-88234600D01*
X94881600Y-88234600D02*
X95643600Y-88234600D01*
X95643600Y-87472600D02*
X94881600Y-87472600D01*
X95770600Y-86837600D02*
X96024600Y-86837600D01*
X96024600Y-86837600D02*
X96024600Y-87091600D01*
X96024600Y-87091600D02*
X95643600Y-87472600D01*
X96024600Y-88615600D02*
X95643600Y-88234600D01*
X96024600Y-88615600D02*
X96024600Y-89377600D01*
X96024600Y-89377600D02*
X96786600Y-89377600D01*
X96405600Y-85389800D02*
X96405600Y-85008800D01*
X96405600Y-86202600D02*
X95770600Y-86837600D01*
X96786600Y-86837600D02*
X97040600Y-86837600D01*
X96786600Y-87091600D02*
X96786600Y-86837600D01*
X96786600Y-88615600D02*
X97167600Y-88234600D01*
X96786600Y-89377600D02*
X96786600Y-88615600D01*
X97040600Y-86837600D02*
X96405600Y-86202600D01*
X97167600Y-87472600D02*
X96786600Y-87091600D01*
X97167600Y-88234600D02*
X97929600Y-88234600D01*
X97929600Y-87472600D02*
X97167600Y-87472600D01*
X97929600Y-88234600D02*
X97929600Y-87472600D01*
X98183600Y-86202600D02*
X98437600Y-85948600D01*
X98183600Y-89631600D02*
X98437600Y-89885600D01*
X98920200Y-87853600D02*
X99301200Y-87853600D01*
X99707600Y-84297600D02*
X93103600Y-84297600D01*
X99707600Y-84297600D02*
X99961600Y-84551600D01*
X99707600Y-91409600D02*
X99961600Y-91155600D01*
X99961600Y-91155600D02*
X99961600Y-84551600D01*
X94754600Y-89631600D02*
G75*
G02*
X98056601Y-89631599I1651000J1727201D01*
G01*
X98437600Y-87853600D02*
G75*
G02*
X94373600Y-87853600I-2032000J0D01*
G01*
X94373600Y-87853600D02*
G75*
G02*
X98437600Y-87853600I2032000J0D01*
G01*
D21*
%TO.C,JP10*%
G36*
X162699600Y-106522600D02*
G01*
X162191600Y-106522600D01*
X162191600Y-106014600D01*
X162699600Y-106014600D01*
X162699600Y-106522600D01*
G37*
G36*
X165239600Y-106522600D02*
G01*
X164731600Y-106522600D01*
X164731600Y-106014600D01*
X165239600Y-106014600D01*
X165239600Y-106522600D01*
G37*
%TO.C,JP13*%
G36*
X162699600Y-93822600D02*
G01*
X162191600Y-93822600D01*
X162191600Y-93314600D01*
X162699600Y-93314600D01*
X162699600Y-93822600D01*
G37*
G36*
X165239600Y-93822600D02*
G01*
X164731600Y-93822600D01*
X164731600Y-93314600D01*
X165239600Y-93314600D01*
X165239600Y-93822600D01*
G37*
%TO.C,JP3*%
G36*
X94119600Y-109062600D02*
G01*
X93611600Y-109062600D01*
X93611600Y-108554600D01*
X94119600Y-108554600D01*
X94119600Y-109062600D01*
G37*
G36*
X96659600Y-109062600D02*
G01*
X96151600Y-109062600D01*
X96151600Y-108554600D01*
X96659600Y-108554600D01*
X96659600Y-109062600D01*
G37*
%TO.C,JP12*%
G36*
X132854600Y-121127600D02*
G01*
X132346600Y-121127600D01*
X132346600Y-120619600D01*
X132854600Y-120619600D01*
X132854600Y-121127600D01*
G37*
G36*
X135394600Y-121127600D02*
G01*
X134886600Y-121127600D01*
X134886600Y-120619600D01*
X135394600Y-120619600D01*
X135394600Y-121127600D01*
G37*
D16*
%TO.C,L1*%
X142080600Y-118333600D02*
G75*
G02*
X133280600Y-118333600I-4400000J0D01*
G01*
X133280600Y-118333600D02*
G75*
G02*
X142080600Y-118333600I4400000J0D01*
G01*
D21*
%TO.C,JP5*%
G36*
X210324600Y-109062600D02*
G01*
X209816600Y-109062600D01*
X209816600Y-108554600D01*
X210324600Y-108554600D01*
X210324600Y-109062600D01*
G37*
G36*
X210324600Y-111602600D02*
G01*
X209816600Y-111602600D01*
X209816600Y-111094600D01*
X210324600Y-111094600D01*
X210324600Y-111602600D01*
G37*
D16*
%TO.C,L3*%
X164305600Y-91028600D02*
G75*
G02*
X155505600Y-91028600I-4400000J0D01*
G01*
X155505600Y-91028600D02*
G75*
G02*
X164305600Y-91028600I4400000J0D01*
G01*
D21*
%TO.C,JP7*%
G36*
X132854600Y-103347600D02*
G01*
X132346600Y-103347600D01*
X132346600Y-102839600D01*
X132854600Y-102839600D01*
X132854600Y-103347600D01*
G37*
G36*
X135394600Y-103347600D02*
G01*
X134886600Y-103347600D01*
X134886600Y-102839600D01*
X135394600Y-102839600D01*
X135394600Y-103347600D01*
G37*
%TO.C,JP14*%
G36*
X162699600Y-88742600D02*
G01*
X162191600Y-88742600D01*
X162191600Y-88234600D01*
X162699600Y-88234600D01*
X162699600Y-88742600D01*
G37*
G36*
X165239600Y-88742600D02*
G01*
X164731600Y-88742600D01*
X164731600Y-88234600D01*
X165239600Y-88234600D01*
X165239600Y-88742600D01*
G37*
D18*
%TO.C,R2*%
X211797800Y-121191100D02*
X211797800Y-119273400D01*
X213423400Y-121191100D02*
X213423400Y-119273400D01*
D21*
G36*
X213486900Y-119286100D02*
G01*
X211734300Y-119286100D01*
X211734300Y-118549500D01*
X213486900Y-118549500D01*
X213486900Y-119286100D01*
G37*
G36*
X213486900Y-121927700D02*
G01*
X211734300Y-121927700D01*
X211734300Y-121191100D01*
X213486900Y-121191100D01*
X213486900Y-121927700D01*
G37*
D18*
%TO.C,SW4*%
X166128600Y-87345600D02*
X166128600Y-89377600D01*
X166128600Y-89377600D02*
X166128600Y-92679600D01*
X166128600Y-92679600D02*
X166128600Y-94711600D01*
X166128600Y-92679600D02*
X166636600Y-92679600D01*
X166128600Y-94711600D02*
X180352600Y-94711600D01*
X166636600Y-89377600D02*
X166128600Y-89377600D01*
X166636600Y-92679600D02*
X166636600Y-89377600D01*
X167398600Y-89123600D02*
X167398600Y-92933600D01*
X167398600Y-89123600D02*
X168922600Y-89123600D01*
X168922600Y-92933600D02*
X167398600Y-92933600D01*
X168922600Y-92933600D02*
X168922600Y-89123600D01*
X169938600Y-89123600D02*
X169938600Y-92933600D01*
X169938600Y-89123600D02*
X171462600Y-89123600D01*
X171462600Y-92933600D02*
X169938600Y-92933600D01*
X171462600Y-92933600D02*
X171462600Y-89123600D01*
X172478600Y-89123600D02*
X172478600Y-92933600D01*
X172478600Y-89123600D02*
X174002600Y-89123600D01*
X174002600Y-92933600D02*
X172478600Y-92933600D01*
X174002600Y-92933600D02*
X174002600Y-89123600D01*
X175018600Y-89123600D02*
X175018600Y-92933600D01*
X175018600Y-89123600D02*
X176542600Y-89123600D01*
X176542600Y-92933600D02*
X175018600Y-92933600D01*
X176542600Y-92933600D02*
X176542600Y-89123600D01*
X177558600Y-89123600D02*
X177558600Y-92933600D01*
X177558600Y-89123600D02*
X179082600Y-89123600D01*
X179082600Y-92933600D02*
X177558600Y-92933600D01*
X179082600Y-92933600D02*
X179082600Y-89123600D01*
X179844600Y-89377600D02*
X179844600Y-92679600D01*
X179844600Y-92679600D02*
X180352600Y-92679600D01*
X180352600Y-87345600D02*
X166128600Y-87345600D01*
X180352600Y-89377600D02*
X179844600Y-89377600D01*
X180352600Y-89377600D02*
X180352600Y-87345600D01*
X180352600Y-92679600D02*
X180352600Y-89377600D01*
X180352600Y-94711600D02*
X180352600Y-92679600D01*
D21*
G36*
X168668600Y-89758600D02*
G01*
X167652600Y-89758600D01*
X167652600Y-89377600D01*
X168668600Y-89377600D01*
X168668600Y-89758600D01*
G37*
G36*
X168668600Y-90393600D02*
G01*
X167652600Y-90393600D01*
X167652600Y-90012600D01*
X168668600Y-90012600D01*
X168668600Y-90393600D01*
G37*
G36*
X168668600Y-91028600D02*
G01*
X167652600Y-91028600D01*
X167652600Y-90647600D01*
X168668600Y-90647600D01*
X168668600Y-91028600D01*
G37*
G36*
X171208600Y-89758600D02*
G01*
X170192600Y-89758600D01*
X170192600Y-89377600D01*
X171208600Y-89377600D01*
X171208600Y-89758600D01*
G37*
G36*
X171208600Y-90393600D02*
G01*
X170192600Y-90393600D01*
X170192600Y-90012600D01*
X171208600Y-90012600D01*
X171208600Y-90393600D01*
G37*
G36*
X171208600Y-91028600D02*
G01*
X170192600Y-91028600D01*
X170192600Y-90647600D01*
X171208600Y-90647600D01*
X171208600Y-91028600D01*
G37*
G36*
X173748600Y-89758600D02*
G01*
X172732600Y-89758600D01*
X172732600Y-89377600D01*
X173748600Y-89377600D01*
X173748600Y-89758600D01*
G37*
G36*
X173748600Y-90393600D02*
G01*
X172732600Y-90393600D01*
X172732600Y-90012600D01*
X173748600Y-90012600D01*
X173748600Y-90393600D01*
G37*
G36*
X173748600Y-91028600D02*
G01*
X172732600Y-91028600D01*
X172732600Y-90647600D01*
X173748600Y-90647600D01*
X173748600Y-91028600D01*
G37*
G36*
X176288600Y-89758600D02*
G01*
X175272600Y-89758600D01*
X175272600Y-89377600D01*
X176288600Y-89377600D01*
X176288600Y-89758600D01*
G37*
G36*
X176288600Y-90393600D02*
G01*
X175272600Y-90393600D01*
X175272600Y-90012600D01*
X176288600Y-90012600D01*
X176288600Y-90393600D01*
G37*
G36*
X176288600Y-91028600D02*
G01*
X175272600Y-91028600D01*
X175272600Y-90647600D01*
X176288600Y-90647600D01*
X176288600Y-91028600D01*
G37*
G36*
X178828600Y-89758600D02*
G01*
X177812600Y-89758600D01*
X177812600Y-89377600D01*
X178828600Y-89377600D01*
X178828600Y-89758600D01*
G37*
G36*
X178828600Y-90393600D02*
G01*
X177812600Y-90393600D01*
X177812600Y-90012600D01*
X178828600Y-90012600D01*
X178828600Y-90393600D01*
G37*
G36*
X178828600Y-91028600D02*
G01*
X177812600Y-91028600D01*
X177812600Y-90647600D01*
X178828600Y-90647600D01*
X178828600Y-91028600D01*
G37*
%TD*%
G36*
X185248639Y-110098285D02*
G01*
X185294394Y-110151089D01*
X185305600Y-110202600D01*
X185305600Y-126464600D01*
X185285915Y-126531639D01*
X185233111Y-126577394D01*
X185181600Y-126588600D01*
X154949600Y-126588600D01*
X154882561Y-126568915D01*
X154836806Y-126516111D01*
X154825600Y-126464600D01*
X154825600Y-110202600D01*
X154845285Y-110135561D01*
X154898089Y-110089806D01*
X154949600Y-110078600D01*
X185181600Y-110078600D01*
X185248639Y-110098285D01*
G37*
G36*
X212681511Y-78854906D02*
G01*
X213354294Y-79527689D01*
X213372600Y-79571883D01*
X213372600Y-91055317D01*
X213354294Y-91099511D01*
X212681511Y-91772294D01*
X212637317Y-91790600D01*
X193533883Y-91790600D01*
X193489689Y-91772294D01*
X192816906Y-91099511D01*
X192798600Y-91055317D01*
X192798600Y-79571883D01*
X192816906Y-79527689D01*
X193489689Y-78854906D01*
X193533883Y-78836600D01*
X212637317Y-78836600D01*
X212681511Y-78854906D01*
G37*
G36*
X141433639Y-82793285D02*
G01*
X141479394Y-82846089D01*
X141490600Y-82897600D01*
X141490600Y-99159600D01*
X141470915Y-99226639D01*
X141418111Y-99272394D01*
X141366600Y-99283600D01*
X111134600Y-99283600D01*
X111067561Y-99263915D01*
X111021806Y-99211111D01*
X111010600Y-99159600D01*
X111010600Y-82897600D01*
X111030285Y-82830561D01*
X111083089Y-82784806D01*
X111134600Y-82773600D01*
X141366600Y-82773600D01*
X141433639Y-82793285D01*
G37*
G36*
X103461511Y-118224906D02*
G01*
X104134294Y-118897689D01*
X104152600Y-118941883D01*
X104152600Y-130425317D01*
X104134294Y-130469511D01*
X103461511Y-131142294D01*
X103417317Y-131160600D01*
X84313883Y-131160600D01*
X84269689Y-131142294D01*
X83596906Y-130469511D01*
X83578600Y-130425317D01*
X83578600Y-118941883D01*
X83596906Y-118897689D01*
X84269689Y-118224906D01*
X84313883Y-118206600D01*
X103417317Y-118206600D01*
X103461511Y-118224906D01*
G37*
M02*
